{"glyphs":{"0":{"ha":819,"x_min":21,"x_max":681,"o":"m 251 881 l 246 874 l 219 842 l 208 828 l 199 814 l 188 800 l 174 785 l 165 771 l 158 754 l 150 731 l 142 707 l 132 685 l 124 663 l 114 638 l 106 611 l 97 586 l 93 560 l 93 532 l 90 506 l 90 478 l 90 450 l 90 422 l 90 394 l 92 369 l 93 344 l 96 322 l 100 297 l 106 274 l 111 253 l 118 229 l 124 207 l 129 190 l 139 171 l 147 156 l 158 139 l 169 124 l 181 108 l 190 97 l 203 83 l 213 75 l 235 63 l 254 60 l 267 58 l 286 58 l 301 58 l 318 60 l 338 65 l 356 71 l 374 76 l 394 82 l 408 90 l 424 99 l 443 110 l 458 121 l 471 131 l 485 146 l 499 163 l 513 181 l 522 201 l 535 225 l 543 247 l 553 271 l 563 294 l 572 317 l 578 342 l 585 363 l 586 383 l 590 408 l 592 431 l 596 454 l 597 476 l 597 501 l 599 531 l 599 558 l 599 585 l 597 610 l 593 633 l 589 657 l 582 681 l 578 703 l 567 724 l 558 744 l 549 763 l 542 779 l 533 796 l 525 814 l 511 831 l 500 843 l 490 853 l 476 863 l 463 872 l 450 881 l 438 886 l 422 890 l 404 894 l 386 899 l 368 900 l 350 903 l 336 904 l 306 904 l 286 900 l 269 890 l 251 881 m 179 68 l 171 78 l 158 92 l 147 107 l 136 122 l 122 142 l 114 157 l 104 179 l 96 199 l 90 221 l 83 244 l 78 268 l 72 292 l 68 319 l 65 342 l 64 367 l 63 394 l 63 422 l 63 450 l 63 478 l 63 508 l 65 535 l 65 563 l 69 592 l 81 619 l 85 638 l 78 622 l 68 600 l 61 578 l 56 556 l 51 533 l 50 513 l 49 490 l 49 467 l 49 442 l 49 419 l 49 397 l 49 374 l 49 354 l 51 331 l 54 310 l 58 290 l 63 267 l 68 246 l 75 224 l 82 203 l 89 185 l 101 163 l 111 143 l 119 128 l 133 110 l 144 96 l 157 85 l 168 75 l 179 68 m 578 767 l 583 756 l 592 735 l 603 711 l 610 689 l 617 663 l 621 639 l 625 613 l 626 585 l 626 558 l 626 531 l 625 501 l 625 476 l 624 451 l 619 428 l 618 406 l 614 381 l 613 357 l 606 333 l 597 308 l 588 283 l 578 260 l 568 236 l 567 232 l 575 243 l 582 257 l 589 271 l 597 286 l 604 303 l 613 319 l 618 338 l 624 357 l 633 381 l 639 400 l 642 419 l 646 442 l 650 461 l 651 483 l 653 503 l 653 525 l 653 544 l 653 565 l 653 583 l 649 603 l 644 622 l 639 642 l 633 660 l 626 676 l 619 693 l 610 711 l 603 725 l 593 742 l 585 757 l 578 767 m 233 903 l 235 904 l 236 904 l 256 915 l 278 925 l 303 932 l 336 932 l 353 931 l 371 928 l 389 926 l 400 924 l 400 950 l 425 950 l 447 940 l 467 928 l 490 913 l 510 894 l 525 879 l 542 863 l 553 847 l 564 832 l 576 815 l 589 801 l 599 786 l 607 771 l 618 756 l 628 739 l 635 722 l 644 704 l 651 688 l 658 668 l 664 650 l 672 631 l 676 608 l 681 586 l 681 565 l 681 544 l 681 525 l 681 503 l 679 481 l 678 458 l 674 436 l 669 414 l 667 394 l 658 372 l 651 349 l 646 329 l 638 308 l 629 292 l 622 275 l 614 260 l 607 243 l 597 229 l 589 215 l 579 201 l 567 186 l 560 172 l 550 157 l 539 144 l 528 129 l 517 115 l 506 104 l 494 92 l 481 79 l 467 69 l 451 58 l 436 49 l 421 40 l 404 35 l 390 29 l 375 22 l 350 17 l 324 13 l 297 13 l 269 14 l 243 17 l 228 18 l 213 24 l 183 35 l 167 43 l 151 53 l 138 65 l 125 76 l 111 93 l 97 111 l 86 129 l 76 149 l 64 174 l 57 194 l 50 215 l 40 238 l 35 261 l 31 285 l 26 304 l 24 328 l 21 351 l 21 374 l 21 397 l 21 419 l 21 442 l 21 467 l 21 490 l 22 515 l 24 536 l 28 561 l 33 586 l 43 611 l 53 633 l 64 656 l 71 676 l 81 699 l 88 717 l 97 738 l 107 760 l 118 778 l 129 797 l 142 819 l 157 838 l 174 858 l 194 875 l 213 890 l 233 903 z "},"1":{"ha":653,"x_min":56,"x_max":514,"o":"m 354 874 l 354 876 l 354 901 l 354 906 l 351 901 l 344 885 l 335 864 l 328 843 l 314 821 l 308 813 l 317 819 l 325 831 l 336 844 l 349 865 l 354 874 m 382 68 l 381 78 l 378 78 l 363 81 l 350 81 l 350 69 l 361 68 l 378 68 l 382 68 m 379 106 l 378 119 l 378 133 l 378 147 l 378 161 l 378 176 l 378 200 l 378 215 l 378 232 l 378 247 l 378 264 l 378 281 l 378 299 l 379 314 l 379 329 l 381 349 l 381 368 l 382 385 l 382 406 l 383 426 l 385 449 l 386 469 l 389 488 l 392 513 l 394 536 l 397 557 l 403 583 l 406 604 l 408 626 l 413 649 l 415 667 l 417 685 l 417 704 l 417 722 l 417 743 l 417 757 l 414 774 l 413 794 l 413 813 l 411 831 l 410 849 l 410 868 l 410 888 l 410 901 l 410 919 l 401 907 l 392 890 l 386 875 l 382 867 l 381 853 l 376 824 l 372 794 l 368 758 l 363 724 l 361 693 l 356 657 l 356 625 l 353 590 l 353 558 l 351 528 l 350 500 l 350 471 l 347 444 l 347 417 l 347 390 l 346 364 l 346 343 l 346 318 l 346 299 l 346 278 l 346 258 l 346 239 l 346 224 l 346 208 l 347 193 l 347 168 l 347 143 l 349 122 l 350 108 l 365 108 l 379 106 m 431 46 l 442 44 l 460 43 l 474 40 l 485 38 l 488 42 l 486 53 l 488 63 l 483 67 l 474 67 l 446 69 l 424 72 l 410 75 l 410 69 l 388 67 l 396 67 l 411 65 l 431 65 l 431 46 m 261 71 l 268 71 l 282 69 l 297 69 l 313 69 l 322 69 l 322 81 l 314 81 l 297 81 l 286 82 l 286 76 l 275 78 l 261 72 l 261 71 m 179 35 l 188 63 l 204 57 l 206 83 l 224 88 l 239 93 l 253 97 l 260 101 l 263 114 l 283 110 l 297 108 l 314 108 l 322 108 l 321 119 l 319 143 l 319 168 l 319 193 l 318 208 l 318 224 l 318 239 l 318 258 l 318 278 l 318 299 l 318 318 l 318 343 l 318 364 l 319 390 l 319 417 l 319 447 l 322 474 l 322 500 l 324 528 l 325 558 l 325 590 l 328 625 l 328 660 l 333 696 l 335 726 l 340 761 l 344 797 l 347 814 l 336 800 l 322 788 l 307 774 l 292 764 l 274 753 l 260 743 l 243 733 l 240 732 l 235 728 l 214 714 l 193 704 l 168 697 l 146 697 l 125 697 l 104 699 l 85 704 l 65 717 l 56 735 l 81 746 l 85 736 l 96 729 l 110 726 l 115 726 l 100 733 l 83 749 l 74 768 l 99 779 l 106 765 l 117 756 l 132 747 l 149 744 l 174 744 l 189 744 l 217 753 l 226 757 l 232 761 l 249 779 l 263 794 l 278 814 l 289 835 l 303 854 l 310 875 l 319 896 l 326 913 l 335 928 l 340 943 l 347 960 l 375 957 l 382 938 l 382 928 l 390 942 l 397 954 l 425 954 l 436 932 l 438 901 l 438 888 l 438 868 l 438 849 l 439 833 l 440 813 l 440 794 l 442 776 l 444 760 l 444 743 l 444 722 l 444 704 l 444 685 l 443 664 l 440 643 l 436 621 l 433 601 l 431 578 l 425 551 l 422 533 l 419 510 l 417 485 l 414 467 l 413 446 l 411 424 l 410 406 l 410 385 l 408 368 l 408 349 l 407 329 l 407 314 l 406 299 l 406 281 l 406 264 l 406 247 l 406 232 l 406 215 l 406 200 l 406 176 l 406 161 l 406 147 l 406 133 l 406 119 l 407 107 l 407 103 l 410 103 l 426 100 l 449 97 l 476 94 l 497 92 l 513 71 l 514 53 l 513 33 l 496 13 l 471 13 l 457 15 l 439 17 l 419 19 l 400 21 l 375 24 l 350 26 l 342 26 l 336 22 l 332 28 l 321 28 l 297 28 l 272 28 l 247 28 l 226 29 l 203 29 l 179 35 z "},"2":{"ha":828,"x_min":-62,"x_max":690,"o":"m 569 721 l 571 726 l 572 747 l 575 771 l 575 789 l 571 807 l 563 825 l 551 843 l 535 865 l 525 876 l 511 892 l 496 906 l 486 915 l 472 926 l 457 935 l 443 942 l 429 950 l 415 957 l 397 961 l 386 963 l 414 950 l 439 938 l 467 924 l 486 910 l 506 893 l 521 876 l 533 858 l 547 838 l 553 819 l 561 800 l 567 778 l 568 756 l 569 733 l 569 721 m 615 58 l 621 63 l 633 72 l 643 83 l 654 97 l 661 108 l 661 115 l 657 108 l 640 86 l 621 64 l 615 58 m 164 163 l 150 171 l 132 175 l 114 175 l 90 175 l 68 172 l 42 167 l 22 157 l 1 142 l -15 126 l -18 113 l -14 104 l 1 106 l 19 106 l 33 107 l 51 108 l 64 108 l 79 114 l 97 117 l 115 128 l 138 140 l 156 156 l 164 163 m 193 188 l 174 200 l 151 214 l 128 224 l 104 231 l 86 235 l 67 238 l 51 238 l 35 238 l 24 236 l 13 231 l -3 213 l -11 199 l -19 181 l -28 160 l -31 149 l -15 164 l 8 182 l 33 192 l 63 200 l 88 203 l 114 203 l 135 203 l 161 196 l 181 186 l 188 182 l 193 188 m 110 694 l 110 704 l 115 704 l 108 725 l 107 749 l 107 768 l 107 788 l 108 808 l 113 833 l 117 843 l 115 842 l 106 825 l 92 799 l 85 775 l 85 753 l 85 733 l 88 715 l 92 703 l 96 693 l 108 694 l 110 694 m 158 704 l 158 676 l 156 676 l 131 665 l 129 669 l 117 668 l 110 647 l 90 654 l 72 676 l 67 692 l 60 710 l 57 731 l 57 753 l 57 781 l 67 810 l 81 839 l 93 858 l 113 879 l 132 899 l 154 914 l 156 914 l 164 925 l 178 936 l 192 946 l 208 956 l 224 967 l 244 976 l 263 985 l 281 992 l 306 993 l 325 993 l 340 993 l 360 993 l 381 992 l 403 989 l 424 982 l 443 975 l 457 967 l 471 960 l 486 949 l 506 938 l 515 925 l 531 911 l 544 896 l 557 882 l 574 860 l 588 839 l 599 815 l 603 792 l 603 768 l 600 744 l 599 721 l 590 694 l 578 668 l 568 653 l 560 639 l 553 625 l 544 611 l 533 588 l 524 574 l 517 560 l 514 557 l 513 553 l 496 526 l 494 522 l 488 510 l 475 492 l 467 475 l 456 460 l 444 444 l 436 429 l 422 414 l 413 399 l 397 381 l 396 379 l 394 376 l 393 374 l 383 361 l 375 351 l 365 338 l 350 318 l 340 306 l 338 301 l 322 281 l 307 263 l 289 240 l 269 218 l 254 197 l 243 183 l 250 178 l 267 164 l 283 150 l 301 135 l 315 121 l 331 111 l 344 100 l 358 88 l 371 81 l 386 71 l 400 64 l 414 58 l 429 53 l 444 49 l 456 46 l 460 44 l 475 44 l 496 44 l 513 44 l 528 44 l 551 50 l 563 54 l 582 67 l 601 83 l 618 103 l 635 122 l 646 143 l 647 156 l 650 175 l 650 193 l 678 199 l 688 178 l 689 151 l 690 135 l 690 118 l 686 100 l 676 81 l 665 67 l 653 53 l 638 40 l 624 31 l 600 19 l 576 13 l 554 11 l 532 10 l 508 10 l 483 11 l 465 14 l 447 18 l 435 21 l 414 26 l 397 33 l 375 42 l 354 51 l 335 64 l 315 76 l 299 89 l 281 100 l 261 110 l 242 121 l 225 131 l 203 140 l 192 128 l 176 115 l 161 104 l 144 92 l 128 85 l 108 76 l 89 69 l 68 63 l 47 63 l 26 63 l 8 64 l -7 65 l -37 75 l -61 96 l -62 124 l -60 150 l -53 168 l -44 192 l -36 213 l -25 229 l -4 253 l 15 264 l 35 265 l 51 265 l 69 265 l 92 263 l 113 258 l 136 249 l 165 239 l 188 222 l 211 208 l 213 207 l 214 208 l 232 224 l 243 239 l 258 254 l 272 268 l 286 285 l 300 300 l 314 317 l 318 322 l 331 340 l 346 360 l 354 369 l 357 374 l 369 390 l 372 394 l 385 414 l 400 432 l 414 450 l 426 474 l 442 493 l 457 517 l 469 536 l 471 539 l 479 556 l 490 571 l 501 592 l 515 621 l 529 650 l 536 672 l 542 694 l 542 713 l 542 733 l 540 753 l 539 772 l 533 792 l 528 811 l 522 826 l 511 842 l 499 860 l 486 874 l 469 888 l 453 899 l 425 913 l 403 925 l 378 935 l 356 939 l 332 939 l 307 939 l 281 935 l 257 929 l 232 922 l 210 913 l 190 901 l 174 893 l 168 886 l 156 861 l 149 849 l 140 825 l 136 806 l 135 788 l 135 768 l 135 749 l 136 731 l 142 711 l 144 704 l 158 704 z "},"3":{"ha":854,"x_min":40,"x_max":715,"o":"m 543 679 l 536 669 l 547 682 l 557 697 l 565 711 l 572 728 l 578 742 l 582 758 l 586 772 l 588 786 l 590 803 l 590 815 l 590 831 l 590 846 l 590 861 l 588 876 l 583 893 l 579 906 l 568 915 l 558 929 l 550 939 l 539 947 l 524 961 l 508 967 l 493 976 l 475 985 l 451 994 l 429 1006 l 414 1008 l 399 1011 l 381 1014 l 368 1018 l 347 1018 l 329 1022 l 315 1024 l 296 1024 l 282 1025 l 265 1025 l 250 1025 l 232 1025 l 219 1024 l 208 1019 l 197 1013 l 186 1004 l 175 996 l 165 983 l 156 971 l 147 956 l 136 940 l 126 929 l 117 908 l 106 890 l 104 886 l 106 888 l 121 903 l 140 919 l 160 935 l 182 950 l 204 961 l 231 969 l 250 974 l 271 976 l 294 979 l 317 981 l 340 981 l 361 981 l 382 979 l 401 974 l 422 967 l 436 960 l 454 953 l 471 946 l 486 935 l 504 922 l 517 908 l 526 893 l 538 882 l 553 854 l 561 825 l 564 808 l 565 792 l 565 778 l 565 754 l 565 739 l 558 711 l 551 694 l 543 679 m 363 550 l 383 554 l 393 563 l 396 564 l 381 563 l 371 556 l 363 550 m 560 83 l 571 92 l 585 101 l 594 110 l 614 128 l 628 143 l 639 156 l 647 169 l 657 186 l 667 204 l 678 224 l 682 247 l 685 260 l 686 274 l 686 300 l 688 315 l 688 329 l 688 343 l 688 358 l 688 375 l 686 388 l 685 399 l 672 418 l 664 435 l 653 449 l 643 460 l 632 476 l 619 489 l 604 504 l 589 519 l 574 536 l 557 549 l 539 561 l 522 572 l 501 583 l 482 590 l 471 593 l 469 593 l 458 582 l 446 569 l 429 556 l 435 556 l 458 556 l 482 556 l 504 551 l 524 544 l 539 532 l 557 522 l 575 506 l 594 489 l 613 464 l 626 438 l 633 424 l 642 408 l 656 379 l 664 351 l 668 322 l 669 299 l 669 285 l 669 261 l 663 235 l 653 208 l 646 192 l 633 172 l 626 160 l 617 146 l 603 126 l 592 114 l 581 104 l 571 93 l 560 83 m 138 92 l 139 90 l 156 76 l 165 68 l 186 58 l 207 47 l 232 39 l 258 35 l 283 31 l 307 29 l 332 26 l 353 26 l 376 26 l 401 26 l 425 26 l 439 29 l 453 32 l 468 36 l 492 44 l 511 54 l 489 46 l 465 39 l 444 36 l 422 32 l 397 32 l 374 32 l 344 32 l 317 32 l 300 32 l 282 35 l 254 40 l 236 44 l 221 50 l 190 63 l 175 68 l 160 78 l 144 88 l 138 92 m 382 590 l 388 592 l 401 596 l 411 600 l 396 600 l 385 593 l 382 590 m 132 690 l 113 671 l 97 686 l 81 713 l 75 735 l 74 743 l 69 750 l 68 765 l 67 772 l 67 776 l 67 789 l 67 801 l 67 806 l 67 824 l 69 844 l 69 861 l 74 882 l 81 901 l 92 922 l 104 946 l 114 957 l 125 972 l 133 985 l 143 1000 l 156 1015 l 169 1026 l 181 1035 l 194 1044 l 214 1051 l 232 1053 l 250 1053 l 265 1053 l 282 1053 l 296 1051 l 315 1051 l 335 1050 l 350 1046 l 371 1046 l 386 1042 l 404 1039 l 419 1036 l 438 1031 l 463 1019 l 486 1010 l 507 1001 l 522 992 l 538 983 l 556 969 l 569 958 l 581 946 l 590 932 l 601 919 l 608 901 l 615 882 l 618 864 l 618 846 l 618 831 l 618 815 l 618 800 l 615 783 l 614 767 l 610 750 l 603 733 l 597 717 l 590 700 l 582 683 l 569 665 l 556 650 l 540 638 l 521 624 l 503 613 l 513 608 l 536 597 l 556 583 l 574 571 l 593 556 l 608 539 l 624 524 l 639 508 l 654 493 l 665 476 l 675 465 l 686 449 l 697 432 l 710 407 l 714 390 l 715 375 l 715 358 l 715 343 l 715 329 l 715 315 l 714 300 l 714 274 l 713 257 l 710 242 l 703 215 l 692 190 l 682 172 l 672 156 l 661 139 l 647 124 l 633 108 l 614 90 l 601 79 l 588 69 l 564 54 l 550 44 l 528 31 l 503 19 l 476 8 l 458 4 l 444 1 l 428 -1 l 401 -1 l 376 -1 l 353 -1 l 329 -1 l 304 1 l 281 3 l 253 7 l 226 11 l 196 22 l 172 33 l 151 46 l 139 54 l 119 71 l 101 94 l 93 107 l 83 121 l 76 135 l 71 151 l 64 167 l 60 183 l 54 201 l 51 222 l 51 228 l 44 247 l 43 263 l 40 282 l 40 306 l 40 322 l 40 325 l 40 349 l 68 349 l 68 325 l 71 301 l 71 286 l 72 271 l 75 257 l 78 240 l 78 232 l 81 228 l 85 203 l 96 181 l 110 160 l 118 147 l 126 136 l 136 126 l 161 110 l 174 100 l 186 93 l 201 88 l 229 75 l 244 72 l 260 68 l 288 63 l 303 60 l 317 60 l 344 60 l 374 60 l 397 60 l 419 60 l 439 64 l 460 67 l 481 74 l 500 79 l 515 88 l 533 99 l 551 113 l 561 124 l 572 133 l 581 143 l 594 163 l 601 174 l 608 186 l 621 206 l 628 219 l 635 243 l 642 264 l 642 285 l 642 299 l 640 319 l 636 346 l 631 368 l 617 394 l 608 410 l 601 424 l 588 450 l 575 469 l 556 486 l 540 500 l 525 510 l 510 519 l 496 524 l 479 528 l 458 528 l 435 528 l 421 528 l 406 528 l 394 528 l 386 522 l 363 508 l 347 503 l 322 493 l 297 483 l 278 481 l 263 476 l 249 500 l 264 517 l 286 524 l 306 532 l 328 539 l 343 546 l 356 549 l 336 564 l 343 581 l 351 597 l 368 615 l 388 628 l 411 628 l 428 628 l 449 625 l 463 625 l 471 635 l 481 647 l 492 658 l 501 671 l 511 683 l 521 696 l 526 706 l 531 719 l 538 742 l 538 754 l 538 778 l 538 792 l 536 806 l 533 819 l 528 843 l 515 865 l 504 876 l 494 892 l 485 900 l 469 913 l 457 921 l 443 928 l 425 935 l 411 942 l 393 946 l 376 951 l 361 953 l 340 953 l 317 953 l 297 951 l 274 949 l 256 946 l 236 942 l 215 936 l 196 925 l 176 913 l 157 897 l 140 883 l 125 868 l 110 849 l 100 833 l 96 819 l 94 806 l 94 801 l 94 789 l 94 779 l 96 771 l 97 763 l 100 750 l 104 740 l 103 739 l 106 724 l 119 703 l 132 690 z "},"4":{"ha":853,"x_min":-40,"x_max":715,"o":"m 468 893 l 465 889 l 464 889 l 451 865 l 442 854 l 428 832 l 418 817 l 410 803 l 401 788 l 392 772 l 381 756 l 374 743 l 364 725 l 354 707 l 340 688 l 329 668 l 318 646 l 300 622 l 285 601 l 269 579 l 253 553 l 233 529 l 219 510 l 200 483 l 186 465 l 174 446 l 160 429 l 149 413 l 136 397 l 122 383 l 115 371 l 100 358 l 89 347 l 81 338 l 82 338 l 101 333 l 119 328 l 136 324 l 156 319 l 181 315 l 197 313 l 219 310 l 244 307 l 265 303 l 288 299 l 313 294 l 331 292 l 353 290 l 372 288 l 394 286 l 415 285 l 436 282 l 440 282 l 440 283 l 440 301 l 440 304 l 440 324 l 440 326 l 440 347 l 440 349 l 440 368 l 440 371 l 440 393 l 440 397 l 440 417 l 440 424 l 440 443 l 440 453 l 440 476 l 440 503 l 440 531 l 440 561 l 440 590 l 440 621 l 440 651 l 440 681 l 442 710 l 442 739 l 447 767 l 451 794 l 457 825 l 463 853 l 467 881 l 468 893 m 539 983 l 536 988 l 533 982 l 519 968 l 508 957 l 506 936 l 506 896 l 506 874 l 506 851 l 504 822 l 504 799 l 499 771 l 497 750 l 496 726 l 494 699 l 493 674 l 490 644 l 488 614 l 485 585 l 482 551 l 478 522 l 475 493 l 471 467 l 468 440 l 468 424 l 468 417 l 468 397 l 468 393 l 468 371 l 468 368 l 468 349 l 468 347 l 468 326 l 468 324 l 468 304 l 468 301 l 468 283 l 468 282 l 476 282 l 493 282 l 493 290 l 493 304 l 493 318 l 493 333 l 493 349 l 492 365 l 492 381 l 492 397 l 492 414 l 492 432 l 492 447 l 492 465 l 492 486 l 492 503 l 492 521 l 492 535 l 492 550 l 492 575 l 492 589 l 492 603 l 493 619 l 494 636 l 496 651 l 496 669 l 496 686 l 499 704 l 501 724 l 501 743 l 503 764 l 504 783 l 506 801 l 507 821 l 511 840 l 513 854 l 517 871 l 519 886 l 521 900 l 525 925 l 528 946 l 528 964 l 536 985 l 539 983 m 594 988 l 586 963 l 571 967 l 560 969 l 556 958 l 556 943 l 553 922 l 549 897 l 547 883 l 544 865 l 540 849 l 539 835 l 535 818 l 533 799 l 532 781 l 531 761 l 529 743 l 529 721 l 526 701 l 524 683 l 524 669 l 524 651 l 522 633 l 521 617 l 519 603 l 519 589 l 519 575 l 519 550 l 519 535 l 519 521 l 519 503 l 519 486 l 519 465 l 519 447 l 519 432 l 519 414 l 519 397 l 519 381 l 519 365 l 521 349 l 521 333 l 521 318 l 521 304 l 521 290 l 521 282 l 535 282 l 554 282 l 572 288 l 593 292 l 613 297 l 629 303 l 650 313 l 667 322 l 682 331 l 701 342 l 715 317 l 696 306 l 681 297 l 661 288 l 640 278 l 621 269 l 599 264 l 578 260 l 557 254 l 535 254 l 521 254 l 521 250 l 521 228 l 521 204 l 521 182 l 521 158 l 521 135 l 521 111 l 521 89 l 521 72 l 521 57 l 493 57 l 493 72 l 493 89 l 493 111 l 493 135 l 493 158 l 493 182 l 493 204 l 493 228 l 493 250 l 493 254 l 476 254 l 469 254 l 469 239 l 472 221 l 476 201 l 478 186 l 481 167 l 482 150 l 482 136 l 482 124 l 485 103 l 486 89 l 488 74 l 488 60 l 488 46 l 460 46 l 460 60 l 460 74 l 460 79 l 435 79 l 435 100 l 436 117 l 438 131 l 438 147 l 439 164 l 439 181 l 440 199 l 440 221 l 440 242 l 440 254 l 433 254 l 413 257 l 392 258 l 369 260 l 350 263 l 328 264 l 307 267 l 282 271 l 260 275 l 239 279 l 217 282 l 194 285 l 175 288 l 150 292 l 131 296 l 111 300 l 93 306 l 76 310 l 63 313 l 50 313 l 32 297 l 15 288 l -10 279 l -36 283 l -40 313 l -18 333 l 6 340 l 35 340 l 39 340 l 46 346 l 60 356 l 69 367 l 81 378 l 93 388 l 100 400 l 117 417 l 126 429 l 138 446 l 151 463 l 164 482 l 178 500 l 197 526 l 211 546 l 231 569 l 247 593 l 263 618 l 278 639 l 293 660 l 304 682 l 318 701 l 329 721 l 339 739 l 349 757 l 358 772 l 369 786 l 376 801 l 385 817 l 396 833 l 406 846 l 419 871 l 429 882 l 439 901 l 450 924 l 457 942 l 463 963 l 467 978 l 486 974 l 500 988 l 517 1004 l 539 1015 l 557 1003 l 565 996 l 579 994 l 594 988 z "},"5":{"ha":890,"x_min":79,"x_max":753,"o":"m 176 846 l 175 853 l 174 874 l 172 885 l 167 886 l 158 886 l 146 883 l 140 882 l 142 878 l 147 867 l 156 858 l 172 849 l 176 846 m 279 38 l 285 36 l 303 33 l 325 29 l 350 29 l 376 28 l 392 28 l 421 28 l 433 29 l 449 33 l 468 40 l 482 47 l 499 56 l 515 64 l 544 78 l 558 83 l 572 89 l 593 100 l 613 115 l 624 125 l 643 140 l 651 151 l 658 164 l 668 176 l 678 189 l 692 213 l 699 226 l 704 242 l 710 254 l 713 267 l 715 281 l 719 297 l 721 310 l 724 325 l 725 338 l 725 361 l 725 376 l 724 397 l 717 418 l 706 436 l 694 454 l 679 469 l 664 488 l 650 504 l 635 521 l 622 529 l 603 543 l 593 551 l 568 564 l 549 576 l 535 581 l 510 588 l 497 592 l 472 597 l 458 597 l 443 599 l 431 600 l 417 600 l 392 600 l 368 600 l 357 599 l 329 590 l 313 586 l 296 579 l 281 575 l 256 568 l 240 563 l 226 557 l 200 544 l 188 536 l 176 531 l 188 535 l 206 544 l 228 551 l 250 560 l 274 568 l 296 578 l 318 582 l 338 586 l 357 589 l 376 590 l 396 590 l 414 590 l 432 590 l 456 589 l 475 583 l 492 578 l 511 571 l 529 563 l 546 554 l 563 546 l 578 536 l 592 525 l 603 511 l 611 499 l 621 485 l 632 469 l 642 447 l 649 432 l 656 411 l 663 393 l 667 374 l 669 356 l 672 340 l 674 325 l 675 308 l 675 294 l 675 278 l 675 263 l 671 243 l 663 226 l 657 208 l 640 186 l 631 174 l 621 163 l 610 149 l 599 138 l 585 125 l 569 110 l 557 99 l 540 85 l 525 75 l 508 68 l 492 61 l 464 51 l 449 46 l 433 43 l 419 42 l 403 40 l 388 39 l 371 38 l 351 38 l 336 38 l 318 38 l 297 38 l 279 38 m 222 865 l 222 857 l 218 840 l 217 831 l 219 831 l 232 828 l 246 828 l 260 828 l 274 828 l 264 835 l 244 847 l 228 860 l 222 865 m 489 801 l 486 810 l 504 814 l 519 819 l 535 825 l 550 832 l 568 840 l 539 831 l 524 825 l 510 822 l 479 815 l 461 813 l 443 808 l 424 806 l 415 806 l 421 804 l 436 803 l 450 803 l 471 803 l 489 801 m 665 886 l 653 878 l 639 865 l 624 849 l 603 832 l 582 815 l 586 817 l 607 828 l 628 839 l 644 851 l 653 863 l 661 875 l 665 886 m 688 931 l 694 915 l 696 896 l 693 878 l 686 861 l 675 846 l 664 832 l 642 817 l 621 803 l 597 792 l 574 782 l 547 775 l 519 774 l 493 774 l 471 775 l 450 775 l 436 775 l 415 776 l 397 781 l 378 783 l 358 790 l 336 799 l 329 800 l 322 800 l 307 800 l 292 800 l 275 800 l 260 800 l 246 800 l 229 800 l 214 803 l 213 794 l 211 774 l 208 758 l 206 744 l 206 743 l 203 722 l 200 706 l 197 688 l 192 671 l 190 654 l 188 633 l 182 617 l 181 599 l 176 581 l 172 565 l 169 558 l 174 561 l 186 569 l 215 582 l 232 588 l 247 593 l 272 603 l 288 607 l 304 611 l 321 618 l 351 626 l 368 628 l 392 628 l 417 628 l 431 628 l 446 626 l 458 625 l 475 625 l 503 619 l 518 615 l 543 608 l 560 601 l 582 589 l 607 574 l 619 565 l 639 551 l 651 543 l 669 524 l 686 507 l 701 489 l 717 471 l 731 450 l 742 429 l 751 403 l 753 376 l 753 361 l 753 338 l 751 322 l 749 307 l 747 292 l 743 275 l 740 261 l 735 246 l 729 231 l 724 215 l 717 199 l 700 172 l 690 160 l 681 147 l 674 135 l 663 121 l 640 103 l 629 93 l 607 78 l 583 64 l 569 58 l 556 53 l 526 39 l 510 31 l 493 22 l 479 15 l 457 8 l 439 1 l 421 0 l 392 0 l 376 0 l 350 1 l 322 1 l 297 6 l 279 8 l 261 11 l 247 18 l 232 22 l 218 29 l 203 38 l 190 44 l 176 54 l 165 63 l 149 74 l 133 83 l 118 94 l 107 107 l 97 121 l 92 138 l 85 154 l 81 176 l 79 196 l 79 213 l 79 232 l 79 251 l 79 279 l 85 303 l 113 306 l 121 281 l 122 256 l 122 242 l 122 226 l 122 210 l 125 197 l 128 182 l 132 167 l 136 153 l 143 138 l 149 124 l 156 113 l 172 93 l 181 86 l 194 82 l 213 76 l 228 72 l 246 68 l 264 65 l 279 65 l 297 65 l 318 65 l 336 65 l 351 65 l 371 65 l 385 67 l 400 68 l 417 69 l 431 71 l 443 74 l 456 76 l 481 86 l 497 93 l 511 100 l 524 107 l 540 121 l 550 129 l 565 144 l 579 157 l 590 168 l 599 179 l 608 190 l 618 203 l 632 222 l 638 238 l 646 251 l 647 265 l 647 278 l 647 294 l 647 308 l 646 322 l 644 338 l 642 350 l 639 368 l 635 385 l 631 403 l 624 421 l 617 436 l 607 456 l 599 468 l 589 482 l 581 494 l 572 506 l 561 514 l 549 521 l 532 529 l 518 538 l 500 546 l 483 550 l 467 556 l 450 561 l 432 563 l 414 563 l 396 563 l 376 563 l 360 561 l 343 558 l 324 554 l 304 550 l 282 543 l 258 535 l 236 526 l 217 519 l 199 510 l 182 503 l 167 494 l 156 486 l 143 478 l 132 467 l 131 464 l 122 450 l 111 428 l 83 433 l 83 458 l 104 479 l 110 483 l 115 497 l 124 511 l 114 518 l 121 535 l 124 554 l 128 578 l 132 593 l 135 607 l 139 622 l 146 640 l 157 668 l 164 694 l 169 718 l 176 742 l 178 747 l 178 761 l 178 776 l 178 794 l 178 813 l 178 814 l 158 824 l 139 836 l 125 850 l 114 872 l 115 896 l 135 908 l 156 914 l 175 914 l 194 901 l 197 890 l 199 899 l 225 907 l 236 893 l 247 879 l 261 869 l 278 857 l 301 844 l 321 832 l 335 828 l 336 828 l 351 829 l 371 831 l 386 831 l 401 832 l 421 833 l 438 836 l 456 840 l 474 843 l 504 850 l 518 853 l 531 856 l 560 868 l 574 871 l 596 885 l 606 893 l 614 901 l 629 922 l 638 939 l 661 928 l 688 931 z "},"6":{"ha":821,"x_min":72,"x_max":683,"o":"m 125 221 l 129 211 l 125 226 l 118 243 l 125 221 m 132 342 l 132 333 l 135 307 l 138 293 l 142 267 l 146 251 l 150 235 l 157 219 l 160 204 l 168 192 l 175 175 l 183 161 l 190 147 l 201 135 l 213 124 l 222 111 l 235 103 l 246 93 l 260 86 l 274 78 l 296 65 l 311 57 l 314 57 l 344 51 l 360 49 l 375 47 l 389 46 l 404 46 l 415 46 l 426 49 l 442 56 l 456 58 l 468 65 l 494 79 l 508 88 l 522 94 l 535 104 l 547 117 l 560 129 l 568 139 l 575 153 l 582 168 l 592 193 l 594 206 l 597 229 l 600 256 l 600 269 l 600 285 l 600 300 l 600 315 l 599 328 l 596 339 l 590 354 l 585 379 l 579 392 l 567 419 l 557 442 l 546 463 l 533 483 l 521 503 l 506 519 l 490 536 l 471 551 l 456 567 l 436 578 l 419 588 l 413 588 l 399 588 l 381 588 l 367 588 l 353 588 l 339 585 l 315 578 l 300 572 l 286 564 l 272 557 l 257 543 l 238 528 l 224 513 l 214 499 l 206 483 l 197 467 l 193 451 l 188 433 l 181 414 l 172 394 l 167 376 l 163 361 l 157 344 l 132 342 m 156 424 q 154 422 156 422 l 156 422 l 156 424 m 622 201 l 628 207 l 633 219 l 642 235 l 650 260 l 654 274 l 656 289 l 656 306 l 656 326 l 656 342 l 653 358 l 650 375 l 646 392 l 643 408 l 639 422 l 635 436 l 621 460 l 611 472 l 603 483 l 594 496 l 586 508 l 578 518 l 568 529 l 557 539 l 543 549 l 531 557 l 515 564 l 500 568 l 489 572 l 490 571 l 510 556 l 525 539 l 543 519 l 556 497 l 571 476 l 582 453 l 592 431 l 604 403 l 610 388 l 618 363 l 624 347 l 626 331 l 628 315 l 628 300 l 628 285 l 628 269 l 628 256 l 625 226 l 622 201 m 247 885 l 253 892 l 263 904 l 285 925 l 297 933 l 307 942 l 290 933 l 276 922 l 263 908 l 250 894 l 238 878 l 225 861 l 235 871 l 244 882 l 247 885 m 569 769 l 572 774 l 590 768 l 589 778 l 586 800 l 583 814 l 581 828 l 578 839 l 569 851 l 563 867 l 554 878 l 544 893 l 528 911 l 518 918 l 504 926 l 493 936 l 481 942 l 465 947 l 450 953 l 438 956 l 424 958 l 421 958 l 404 956 l 389 950 l 372 946 l 369 943 l 382 946 l 401 946 l 422 946 l 439 943 l 458 938 l 474 929 l 486 918 l 500 904 l 510 893 l 524 878 l 532 867 l 543 850 l 553 833 l 558 814 l 565 799 l 569 779 l 569 769 m 569 732 l 542 732 l 542 750 l 542 764 l 542 776 l 538 790 l 533 806 l 528 822 l 521 836 l 510 850 l 501 861 l 490 874 l 481 885 l 467 899 l 457 907 l 447 913 l 433 915 l 419 918 l 401 918 l 385 918 l 368 915 l 351 911 l 333 906 l 317 900 l 301 892 l 290 885 l 275 872 l 268 865 l 260 856 l 246 833 l 235 821 l 228 808 l 221 796 l 213 782 l 203 767 l 196 749 l 189 732 l 179 714 l 172 699 l 167 685 l 163 667 l 158 651 l 154 633 l 149 613 l 146 593 l 142 574 l 139 554 l 136 536 l 135 515 l 133 499 l 132 483 l 132 467 l 132 453 l 132 443 l 135 451 l 146 474 l 154 489 l 172 514 l 189 533 l 213 553 l 229 563 l 244 574 l 257 581 l 258 582 l 281 599 l 304 614 l 328 626 l 347 628 l 365 628 l 383 628 l 406 624 l 426 615 l 432 615 l 453 611 l 472 607 l 490 601 l 508 596 l 526 589 l 544 582 l 560 571 l 574 561 l 588 549 l 600 538 l 608 525 l 617 513 l 625 500 l 633 489 l 643 476 l 660 447 l 667 431 l 671 414 l 674 397 l 678 381 l 681 364 l 683 344 l 683 326 l 683 306 l 683 289 l 682 268 l 678 251 l 667 224 l 658 208 l 650 190 l 632 171 l 617 151 l 599 132 l 590 122 l 581 107 l 569 93 l 560 81 l 547 65 l 533 57 l 518 46 l 501 39 l 485 33 l 457 22 l 438 18 l 419 18 l 417 18 l 396 15 l 374 14 l 349 14 l 328 22 l 306 29 l 301 31 l 294 32 l 279 36 l 249 47 l 233 54 l 219 61 l 204 68 l 189 79 l 176 89 l 164 101 l 151 115 l 142 128 l 131 144 l 124 157 l 114 178 l 107 193 l 100 210 l 90 235 l 86 251 l 79 274 l 75 293 l 74 313 l 72 332 l 72 353 l 72 372 l 72 396 l 72 421 l 74 446 l 75 469 l 75 492 l 79 518 l 81 539 l 85 561 l 89 582 l 93 601 l 99 624 l 104 649 l 113 674 l 121 694 l 128 717 l 135 736 l 142 757 l 150 781 l 160 800 l 169 822 l 178 839 l 189 860 l 203 878 l 215 894 l 228 911 l 243 928 l 260 944 l 276 956 l 293 967 l 311 975 l 328 982 l 350 986 l 371 988 l 389 988 l 408 988 l 419 986 l 447 992 l 475 992 l 500 988 l 519 975 l 540 958 l 557 932 l 568 908 l 576 897 l 590 875 l 603 857 l 613 833 l 619 808 l 619 789 l 619 774 l 618 761 l 621 749 l 618 747 l 618 740 l 613 740 l 596 740 l 582 739 l 569 756 l 569 750 l 569 732 m 118 243 l 114 261 l 110 288 l 107 304 l 104 331 l 104 358 l 104 374 l 104 388 l 104 403 l 104 419 l 104 436 l 104 453 l 104 467 l 104 483 l 106 501 l 103 489 l 103 469 l 101 443 l 100 421 l 100 396 l 100 372 l 100 353 l 100 332 l 101 315 l 103 299 l 107 282 l 114 260 l 118 243 z "},"7":{"ha":824,"x_min":49,"x_max":686,"o":"m 207 829 l 218 825 l 233 822 l 250 819 l 233 824 l 207 829 m 421 539 l 414 526 l 407 511 l 401 496 l 399 482 l 389 457 l 388 451 l 390 458 l 399 478 l 406 499 l 414 518 l 421 539 m 444 589 l 442 585 l 436 572 l 439 576 l 444 589 m 547 799 l 535 797 l 532 794 l 519 781 l 506 761 l 490 742 l 476 721 l 464 703 l 453 681 l 440 658 l 429 638 l 418 615 l 408 594 l 400 572 l 392 550 l 382 531 l 374 510 l 365 489 l 357 467 l 347 446 l 339 426 l 331 408 l 325 390 l 318 371 l 313 353 l 306 333 l 301 315 l 296 296 l 292 278 l 288 261 l 286 242 l 282 225 l 279 207 l 276 192 l 274 176 l 275 176 l 279 190 l 285 207 l 290 221 l 299 238 l 306 253 l 313 272 l 318 296 l 325 317 l 335 342 l 342 364 l 349 389 l 353 406 l 354 419 l 356 435 l 358 450 l 361 465 l 371 490 l 374 504 l 382 522 l 389 538 l 399 557 l 408 576 l 417 596 l 426 615 l 436 633 l 450 654 l 463 675 l 478 697 l 489 714 l 507 738 l 521 758 l 532 772 l 542 792 l 547 799 m 101 914 l 103 908 l 110 894 l 115 892 l 132 885 l 144 876 l 161 872 l 179 868 l 197 863 l 215 857 l 239 851 l 256 847 l 281 843 l 299 839 l 318 836 l 344 833 l 367 832 l 390 831 l 417 829 l 439 828 l 467 828 l 489 828 l 513 833 l 531 838 l 536 839 l 540 843 l 556 858 l 569 872 l 586 886 l 601 900 l 618 913 l 632 922 l 635 922 l 638 926 l 644 939 l 672 933 l 672 931 l 678 929 l 686 903 l 678 893 l 657 874 l 651 869 l 644 864 l 632 853 l 621 844 l 608 832 l 607 832 l 604 825 l 603 822 l 606 817 l 597 813 l 594 807 l 586 793 l 579 781 l 571 768 l 564 756 l 557 742 l 550 729 l 543 715 l 533 700 l 528 686 l 514 668 l 506 651 l 497 635 l 489 619 l 483 606 l 474 588 l 464 565 l 456 549 l 446 528 l 439 507 l 431 488 l 424 467 l 415 447 l 408 431 l 403 413 l 399 393 l 393 375 l 389 358 l 383 339 l 378 322 l 375 304 l 365 283 l 360 265 l 354 249 l 347 231 l 340 215 l 335 200 l 329 182 l 324 164 l 313 147 l 306 132 l 293 113 l 283 99 l 281 93 l 281 88 l 276 74 l 275 56 l 271 42 l 271 29 l 250 29 l 244 13 l 217 19 l 219 38 l 222 54 l 225 78 l 229 96 l 235 115 l 239 135 l 243 156 l 246 175 l 249 197 l 251 213 l 254 231 l 258 247 l 260 267 l 264 283 l 268 301 l 274 321 l 278 342 l 288 361 l 293 379 l 300 399 l 306 417 l 314 438 l 322 457 l 332 478 l 340 500 l 349 521 l 357 542 l 367 561 l 375 583 l 383 606 l 393 626 l 404 649 l 415 672 l 428 694 l 439 717 l 454 738 l 468 758 l 483 778 l 493 790 l 490 790 l 472 790 l 453 788 l 431 788 l 407 786 l 383 785 l 360 785 l 344 785 l 331 785 l 315 785 l 297 785 l 278 788 l 264 789 l 244 792 l 228 794 l 210 797 l 182 808 l 160 818 l 136 829 l 117 843 l 97 857 l 88 876 l 85 878 l 63 899 l 49 921 l 60 928 l 58 931 l 82 944 l 94 928 l 100 915 l 101 914 m 250 819 l 267 817 l 250 819 z "},"8":{"ha":772,"x_min":57,"x_max":635,"o":"m 224 778 l 224 776 l 229 758 l 236 733 l 243 721 l 254 699 l 269 679 l 278 669 l 293 654 l 313 638 l 333 628 l 354 617 l 376 606 l 390 597 l 396 594 l 404 604 l 415 621 l 425 633 l 436 653 l 447 671 l 456 686 l 463 700 l 467 715 l 471 729 l 478 756 l 481 776 l 481 789 l 481 811 l 472 831 l 461 850 l 449 869 l 438 878 l 428 888 l 407 904 l 386 915 l 371 917 l 356 919 l 343 922 l 317 922 l 306 921 l 294 915 l 285 908 l 274 899 l 263 883 l 249 869 l 242 858 l 231 839 l 226 813 l 225 797 l 224 778 m 276 631 l 279 628 l 293 615 l 304 606 l 319 594 l 335 581 l 346 571 l 361 560 l 363 561 l 375 574 l 363 581 l 340 592 l 319 603 l 299 615 l 276 631 m 408 933 l 421 926 l 444 910 l 457 900 l 468 889 l 486 864 l 497 842 l 508 817 l 508 789 l 508 774 l 506 750 l 499 721 l 494 707 l 488 689 l 481 675 l 472 657 l 458 639 l 447 619 l 439 607 l 449 614 l 463 624 l 475 632 l 494 650 l 506 660 l 514 671 l 529 692 l 540 711 l 547 728 l 551 744 l 553 757 l 553 775 l 553 786 l 549 800 l 543 814 l 535 829 l 528 844 l 518 860 l 504 875 l 485 890 l 467 907 l 446 919 l 426 931 l 408 933 m 196 436 l 190 433 l 181 426 l 172 418 l 164 407 l 156 394 l 144 376 l 132 361 l 119 342 l 108 325 l 100 307 l 92 288 l 86 267 l 85 249 l 85 224 l 86 204 l 88 183 l 90 176 l 88 204 l 88 229 l 88 243 l 88 263 l 92 281 l 97 299 l 110 322 l 119 339 l 131 353 l 139 365 l 147 379 l 167 403 l 176 415 l 188 425 l 199 436 l 196 436 m 418 551 l 404 542 l 397 535 l 403 532 l 418 522 l 433 510 l 446 497 l 458 488 l 472 476 l 494 457 l 506 446 l 517 433 l 526 421 l 538 404 l 546 389 l 553 375 l 563 360 l 572 347 l 579 332 l 586 315 l 594 292 l 599 276 l 600 254 l 603 232 l 603 207 l 600 186 l 592 164 l 585 151 l 590 158 l 597 169 l 603 186 l 607 203 l 607 226 l 606 253 l 606 265 l 603 279 l 601 293 l 597 310 l 596 324 l 592 338 l 582 365 l 578 379 l 572 401 l 563 421 l 553 439 l 542 454 l 529 469 l 514 486 l 504 494 l 482 510 l 471 519 l 460 525 l 446 533 l 429 542 l 418 551 m 196 782 l 196 801 l 197 825 l 199 840 l 204 864 l 210 885 l 218 904 l 228 924 l 242 938 l 257 950 l 278 961 l 306 967 l 321 967 l 335 967 l 364 967 l 381 965 l 408 963 l 435 956 l 460 944 l 483 929 l 504 913 l 524 894 l 540 876 l 553 858 l 560 840 l 568 825 l 574 808 l 581 792 l 581 775 l 581 757 l 579 739 l 572 719 l 565 700 l 551 678 l 536 654 l 525 640 l 514 631 l 492 610 l 479 601 l 465 592 l 453 582 l 440 574 l 438 571 l 443 564 l 457 558 l 474 550 l 488 542 l 499 532 l 521 517 l 533 506 l 551 489 l 564 471 l 578 453 l 588 432 l 597 413 l 606 388 l 610 374 l 617 346 l 624 329 l 625 315 l 629 299 l 631 282 l 633 268 l 633 253 l 635 226 l 635 200 l 631 178 l 622 158 l 613 142 l 600 126 l 589 115 l 568 93 l 556 85 l 532 69 l 508 54 l 493 50 l 479 44 l 464 39 l 447 32 l 431 25 l 413 19 l 399 17 l 385 14 l 358 11 l 343 11 l 317 11 l 307 11 l 306 11 l 290 11 l 276 11 l 263 11 l 244 11 l 228 17 l 211 22 l 196 29 l 181 36 l 165 46 l 163 47 l 157 50 l 132 64 l 113 81 l 97 99 l 89 113 l 76 132 l 69 156 l 60 178 l 58 201 l 57 224 l 57 249 l 58 272 l 67 296 l 75 318 l 83 339 l 97 358 l 110 378 l 122 393 l 133 408 l 142 424 l 150 435 l 161 449 l 176 458 l 176 461 l 189 463 l 192 464 l 193 464 l 194 464 l 213 468 l 238 475 l 264 486 l 282 496 l 299 506 l 314 518 l 333 532 l 340 540 l 329 549 l 315 561 l 303 572 l 288 583 l 274 596 l 260 608 l 247 622 l 236 636 l 226 649 l 217 663 l 207 675 l 194 703 l 194 719 l 194 733 l 194 749 l 194 764 l 196 781 l 196 782 m 372 518 l 368 515 l 356 506 l 342 496 l 329 488 l 308 472 l 288 463 l 269 453 l 251 442 l 233 428 l 221 419 l 207 406 l 196 396 l 189 386 l 169 363 l 161 351 l 153 336 l 142 322 l 135 308 l 122 288 l 119 272 l 115 260 l 115 243 l 115 229 l 115 204 l 118 178 l 124 153 l 128 136 l 132 122 l 144 101 l 161 85 l 171 76 l 176 72 l 192 67 l 217 58 l 242 50 l 267 44 l 281 42 l 293 39 l 299 39 l 306 39 l 318 40 l 342 43 l 365 44 l 388 49 l 407 54 l 429 60 l 449 72 l 467 82 l 485 92 l 499 99 l 511 106 l 522 114 l 532 125 l 542 133 l 549 146 l 557 160 l 567 175 l 572 192 l 575 210 l 575 229 l 572 251 l 571 271 l 567 283 l 561 307 l 554 321 l 547 333 l 540 346 l 529 361 l 521 375 l 513 390 l 504 404 l 494 417 l 486 426 l 475 438 l 456 454 l 442 465 l 426 478 l 414 490 l 401 500 l 389 507 l 375 517 l 372 518 z "},"9":{"ha":811,"x_min":35,"x_max":672,"o":"m 107 815 l 108 822 l 115 854 l 113 849 l 106 835 l 97 819 l 89 803 l 81 789 l 74 774 l 71 760 l 63 736 l 63 717 l 63 703 l 65 676 l 68 665 l 74 651 l 81 638 l 88 624 l 94 610 l 103 599 l 113 585 l 121 575 l 129 567 l 119 583 l 107 604 l 100 622 l 90 640 l 89 658 l 88 679 l 88 699 l 88 722 l 90 744 l 93 767 l 100 789 l 103 803 l 107 815 m 589 196 l 592 201 l 601 218 l 608 233 l 617 251 l 621 268 l 626 286 l 631 301 l 635 321 l 638 339 l 639 354 l 640 371 l 642 386 l 643 401 l 644 415 l 644 431 l 644 444 l 644 458 l 644 474 l 643 500 l 640 515 l 639 531 l 638 544 l 635 560 l 632 575 l 628 593 l 624 610 l 618 628 l 613 644 l 608 660 l 603 676 l 596 704 l 592 718 l 586 742 l 578 765 l 575 772 l 575 769 l 574 747 l 572 735 l 574 729 l 578 710 l 581 693 l 583 674 l 588 656 l 590 626 l 592 610 l 593 592 l 594 576 l 596 558 l 599 538 l 599 521 l 599 503 l 603 483 l 604 465 l 604 443 l 604 425 l 604 406 l 604 385 l 604 363 l 604 347 l 604 328 l 604 307 l 604 289 l 604 267 l 601 249 l 599 231 l 593 217 l 589 196 m 521 114 l 529 131 l 539 146 l 547 163 l 554 179 l 561 200 l 565 225 l 571 239 l 574 254 l 576 269 l 576 289 l 576 307 l 576 328 l 576 347 l 576 363 l 576 385 l 576 406 l 576 425 l 576 443 l 576 465 l 575 481 l 571 500 l 571 521 l 571 535 l 568 556 l 567 574 l 565 589 l 564 607 l 563 624 l 560 650 l 556 668 l 554 661 l 549 646 l 543 631 l 531 600 l 522 589 l 517 574 l 500 553 l 482 533 l 469 524 l 454 514 l 442 507 l 426 499 l 399 488 l 382 483 l 372 482 l 349 476 l 332 476 l 318 476 l 297 476 l 281 478 l 267 481 l 251 482 l 225 488 l 199 497 l 169 508 l 153 514 l 139 525 l 126 533 l 113 544 l 101 556 l 90 568 l 81 582 l 72 596 l 63 610 l 56 626 l 49 640 l 40 657 l 38 674 l 35 703 l 35 717 l 35 742 l 43 768 l 49 782 l 56 800 l 64 817 l 72 833 l 81 849 l 88 863 l 96 876 l 103 889 l 113 903 l 121 917 l 133 933 l 138 943 l 154 971 l 167 982 l 179 996 l 192 1004 l 207 1014 l 224 1019 l 239 1022 l 254 1025 l 272 1025 l 288 1025 l 318 1025 l 343 1021 l 357 1021 l 382 1017 l 407 1008 l 428 997 l 449 983 l 469 969 l 482 961 l 500 943 l 511 932 l 526 913 l 533 907 l 539 901 l 553 879 l 563 865 l 571 851 l 578 838 l 588 815 l 597 793 l 603 774 l 614 750 l 619 726 l 624 713 l 631 685 l 636 668 l 640 653 l 646 636 l 651 618 l 656 599 l 660 581 l 663 565 l 665 547 l 667 533 l 668 518 l 671 503 l 672 474 l 672 458 l 672 444 l 672 431 l 672 415 l 671 399 l 669 383 l 668 368 l 667 351 l 665 336 l 663 315 l 658 296 l 654 278 l 649 260 l 642 240 l 633 222 l 626 207 l 617 188 l 607 171 l 597 156 l 586 139 l 568 121 l 554 107 l 543 97 l 542 96 l 531 81 l 517 67 l 504 56 l 485 46 l 464 39 l 450 36 l 442 32 l 426 24 l 408 17 l 386 17 l 371 17 l 361 18 l 357 17 l 335 14 l 311 11 l 286 11 l 272 11 l 258 11 l 235 11 l 210 14 l 182 24 l 169 35 l 157 43 l 143 51 l 133 64 l 113 85 l 94 108 l 82 140 l 79 156 l 76 183 l 76 199 l 76 221 l 76 240 l 79 261 l 86 279 l 96 299 l 125 300 l 138 278 l 142 260 l 146 246 l 153 226 l 157 201 l 164 178 l 172 157 l 182 140 l 192 126 l 203 111 l 217 100 l 228 93 l 249 85 l 274 74 l 296 63 l 319 54 l 335 50 l 358 46 l 361 46 l 378 49 l 403 54 l 426 60 l 442 63 l 442 64 l 457 74 l 476 82 l 488 92 l 504 101 l 521 114 m 507 893 l 489 913 l 481 924 l 465 939 l 453 947 l 435 961 l 414 972 l 396 983 l 376 989 l 354 993 l 340 993 l 315 997 l 288 997 l 272 997 l 257 997 l 244 994 l 229 992 l 218 989 l 208 982 l 204 979 l 218 981 l 232 981 l 246 981 l 274 981 l 299 978 l 324 975 l 338 974 l 360 971 l 382 964 l 404 954 l 425 944 l 438 935 l 456 922 l 481 904 l 500 883 l 508 876 l 507 879 l 507 893 m 111 267 l 107 256 l 104 238 l 104 221 l 104 199 l 104 186 l 107 161 l 110 149 l 119 122 l 135 104 l 153 83 l 163 74 l 174 65 l 186 57 l 196 49 l 215 42 l 238 39 l 258 39 l 272 39 l 282 39 l 263 49 l 238 60 l 217 68 l 200 78 l 183 92 l 169 110 l 160 126 l 147 146 l 139 169 l 129 196 l 125 218 l 118 238 l 114 251 l 111 267 m 213 921 l 218 893 l 199 890 l 182 878 l 174 869 l 160 850 l 144 832 l 136 814 l 135 808 l 129 772 l 125 774 l 121 761 l 118 742 l 115 719 l 115 699 l 115 679 l 117 661 l 118 649 l 125 633 l 132 618 l 144 597 l 154 579 l 168 563 l 182 549 l 197 539 l 215 528 l 236 519 l 260 514 l 286 511 l 300 510 l 317 510 l 333 510 l 351 510 l 365 510 l 368 510 l 369 511 l 382 514 l 394 521 l 417 533 l 432 543 l 449 557 l 457 567 l 472 586 l 485 607 l 494 619 l 501 632 l 515 657 l 528 679 l 532 690 l 533 697 l 536 711 l 538 733 l 538 757 l 536 761 l 533 778 l 531 792 l 529 794 l 519 817 l 506 835 l 493 853 l 481 864 l 461 882 l 439 900 l 421 913 l 411 919 l 393 929 l 374 939 l 354 943 l 335 946 l 321 947 l 296 950 l 271 953 l 246 953 l 232 953 l 218 953 l 208 951 l 189 943 l 171 932 l 158 919 l 158 918 l 154 901 l 150 885 l 151 886 l 165 900 l 188 915 l 213 921 z "}," ":{"ha":417,"x_min":0,"x_max":0,"o":""},"!":{"ha":403,"x_min":129,"x_max":264,"o":"m 201 1014 l 197 1025 l 215 1032 l 235 1028 l 257 1029 l 258 1003 l 258 985 l 260 964 l 261 933 l 261 911 l 261 885 l 261 856 l 261 829 l 263 800 l 263 769 l 263 740 l 263 710 l 264 679 l 264 638 l 264 613 l 264 586 l 264 563 l 261 538 l 261 515 l 257 494 l 257 472 l 256 451 l 253 431 l 251 411 l 251 393 l 251 374 l 250 357 l 249 342 l 246 326 l 242 306 l 240 301 l 242 300 l 239 296 l 238 288 l 235 272 l 207 278 l 210 289 l 197 306 l 190 324 l 186 336 l 168 336 l 168 360 l 169 389 l 171 407 l 171 428 l 171 447 l 171 474 l 171 497 l 171 524 l 171 551 l 171 575 l 171 597 l 171 621 l 171 642 l 171 663 l 171 685 l 171 710 l 169 736 l 169 764 l 169 790 l 164 818 l 164 846 l 160 869 l 156 900 l 154 943 l 154 961 l 160 989 l 165 988 l 164 989 l 174 1001 l 189 1013 l 201 1014 m 208 1000 l 210 988 l 200 988 l 193 982 l 186 972 l 185 974 l 182 958 l 182 943 l 183 903 l 188 875 l 192 849 l 192 821 l 197 793 l 197 764 l 197 736 l 199 710 l 199 685 l 199 663 l 199 642 l 199 621 l 199 597 l 199 575 l 199 551 l 199 524 l 199 497 l 199 474 l 199 447 l 199 428 l 199 407 l 197 386 l 196 360 l 196 342 l 213 347 l 215 332 l 218 329 l 218 332 l 221 344 l 222 360 l 224 374 l 224 393 l 224 411 l 225 433 l 228 454 l 229 472 l 229 497 l 233 518 l 233 540 l 236 565 l 236 586 l 236 613 l 236 638 l 236 679 l 235 710 l 235 740 l 235 769 l 235 800 l 233 829 l 233 856 l 233 885 l 233 911 l 233 933 l 232 961 l 231 985 l 231 1003 l 231 1008 l 228 1000 l 218 1004 l 208 1000 m 158 75 l 156 86 l 154 85 l 154 78 l 158 75 m 218 89 l 219 78 l 201 54 l 218 75 l 225 86 l 228 89 l 218 89 m 206 117 l 222 117 l 253 103 l 250 75 l 240 58 l 213 29 l 178 29 l 129 67 l 129 96 l 149 117 l 160 106 l 165 121 l 192 124 l 206 117 z "},"\"":{"ha":499,"x_min":44,"x_max":361,"o":"m 99 982 l 149 957 l 129 922 l 108 849 l 101 792 l 100 767 l 101 710 l 110 674 l 128 626 l 75 607 l 57 657 l 46 701 l 44 767 l 46 797 l 53 860 l 79 944 l 99 982 m 286 981 l 339 961 l 322 918 l 315 886 l 315 839 l 317 813 l 322 785 l 328 754 l 332 726 l 336 696 l 346 668 l 361 632 l 308 610 l 293 649 l 283 682 l 276 718 l 272 746 l 267 774 l 261 807 l 260 839 l 260 892 l 269 935 l 286 981 z "},"#":{"ha":835,"x_min":-31,"x_max":697,"o":"m 353 893 l 350 889 l 346 876 l 342 865 l 340 863 l 335 839 l 326 807 l 315 776 l 314 775 l 314 767 l 311 747 l 310 736 l 311 740 l 315 757 l 322 785 l 326 800 l 331 815 l 335 832 l 343 858 l 349 878 l 353 893 m 182 310 l 179 308 l 176 304 l 171 286 l 163 268 l 156 249 l 149 232 l 140 210 l 131 190 l 121 172 l 111 157 l 101 131 l 97 114 l 93 99 l 93 81 l 92 67 l 94 63 l 99 65 l 107 75 l 118 96 l 126 110 l 131 125 l 138 139 l 142 154 l 144 167 l 150 186 l 156 204 l 160 224 l 165 242 l 169 260 l 175 279 l 179 297 l 182 310 m 297 832 l 300 838 l 306 854 l 314 869 l 317 875 l 322 894 l 326 911 l 321 901 l 313 889 l 306 865 l 299 839 l 297 832 m 558 728 l 561 733 l 567 749 l 575 765 l 582 781 l 592 804 l 597 818 l 604 832 l 610 846 l 615 863 l 621 878 l 624 890 l 626 917 l 628 929 l 621 935 l 611 935 l 601 919 l 596 915 l 593 900 l 583 858 l 578 839 l 571 821 l 563 800 l 557 783 l 547 758 l 539 739 l 535 724 l 544 726 l 558 728 m 532 794 l 538 808 l 546 829 l 550 847 l 550 849 l 539 831 l 535 818 l 535 804 l 532 794 m 529 694 l 529 678 l 529 669 l 536 685 l 543 697 l 529 694 m 479 435 l 469 433 l 467 414 l 465 392 l 468 399 l 472 417 l 479 435 m 481 463 l 482 463 l 486 463 l 489 482 l 489 486 l 483 469 l 481 463 m 419 271 l 393 272 l 389 263 l 385 250 l 381 232 l 375 215 l 368 197 l 361 179 l 357 164 l 351 146 l 346 122 l 340 104 l 336 86 l 335 74 l 333 63 l 338 65 l 347 75 l 358 88 l 372 106 l 385 132 l 394 158 l 399 176 l 403 189 l 406 206 l 408 224 l 413 239 l 417 257 l 419 271 m 428 329 l 421 331 l 418 322 l 410 308 l 404 300 l 421 299 l 424 299 l 426 310 l 428 329 m 122 661 l 117 658 l 133 660 l 158 660 l 172 660 l 189 660 l 206 660 l 224 658 l 244 656 l 249 656 l 253 663 l 254 667 l 251 668 l 236 672 l 215 672 l 188 672 l 164 671 l 138 665 l 122 661 m 633 632 l 643 642 l 649 654 l 650 664 l 644 675 l 636 685 l 619 693 l 607 700 l 590 701 l 576 701 l 569 688 l 561 674 l 553 654 l 543 635 l 542 632 l 547 632 l 565 632 l 589 632 l 610 632 l 632 632 l 633 632 m 363 656 l 371 651 l 393 644 l 414 639 l 436 635 l 451 633 l 475 632 l 479 632 l 481 640 l 486 668 l 493 685 l 493 688 l 481 685 l 456 681 l 429 676 l 406 669 l 381 660 l 367 656 l 363 656 m 214 631 l 206 632 l 189 632 l 172 632 l 158 632 l 133 632 l 119 631 l 107 628 l 97 626 l 106 618 l 113 613 l 125 613 l 142 615 l 163 618 l 183 622 l 207 629 l 214 631 m 79 414 l 82 413 l 101 401 l 122 388 l 133 379 l 144 372 l 164 361 l 171 360 l 172 363 l 179 382 l 182 392 l 178 393 l 163 397 l 144 403 l 128 408 l 113 413 l 94 414 l 79 414 m 560 321 l 553 321 l 525 321 l 496 322 l 476 324 l 475 313 l 471 299 l 481 299 l 494 303 l 513 307 l 528 311 l 542 315 l 554 318 l 560 321 m 599 350 l 603 353 l 617 367 l 624 386 l 624 396 l 619 407 l 604 415 l 588 425 l 572 428 l 546 433 l 535 435 l 518 435 l 510 435 l 510 433 l 500 408 l 496 390 l 489 368 l 485 350 l 496 350 l 525 349 l 553 349 l 578 349 l 599 350 m 310 379 l 318 378 l 335 376 l 364 369 l 382 367 l 399 361 l 404 360 l 407 365 l 414 376 l 418 389 l 425 408 l 433 426 l 425 424 l 410 418 l 386 413 l 365 404 l 342 394 l 326 388 l 311 381 l 310 379 m 274 360 l 268 356 l 254 347 l 236 339 l 244 338 l 258 335 l 272 332 l 288 328 l 304 324 l 319 317 l 346 308 l 360 306 l 374 303 l 375 303 l 376 306 l 385 322 l 392 333 l 376 339 l 358 342 l 329 349 l 315 350 l 299 353 l 274 360 m 268 389 l 269 390 l 283 397 l 300 406 l 315 413 l 331 419 l 354 429 l 378 438 l 401 446 l 417 451 l 432 456 l 444 458 l 444 467 l 447 489 l 453 515 l 458 540 l 463 564 l 468 589 l 468 590 l 447 592 l 425 592 l 404 597 l 388 597 l 369 601 l 353 607 l 325 613 l 310 618 l 296 621 l 290 610 l 289 607 l 292 572 l 278 571 l 276 564 l 269 542 l 264 524 l 256 504 l 250 490 l 244 475 l 243 469 l 238 450 l 233 431 l 228 411 l 226 403 l 242 399 l 258 393 l 268 389 m 611 324 l 610 322 l 597 310 l 582 300 l 565 293 l 550 288 l 536 283 l 518 279 l 500 275 l 483 271 l 467 271 l 465 271 l 458 246 l 450 225 l 444 206 l 440 185 l 433 165 l 428 146 l 424 129 l 419 115 l 415 100 l 407 78 l 401 63 l 382 71 l 381 68 l 367 56 l 354 43 l 331 35 l 308 51 l 307 74 l 308 92 l 313 110 l 318 131 l 324 154 l 329 172 l 336 190 l 343 206 l 347 224 l 353 240 l 357 258 l 364 274 l 365 276 l 354 278 l 338 281 l 311 292 l 296 296 l 279 300 l 267 304 l 253 307 l 239 310 l 222 313 l 214 315 l 213 301 l 208 281 l 203 256 l 201 239 l 197 222 l 192 204 l 188 190 l 183 175 l 179 158 l 169 129 l 160 110 l 154 85 l 146 88 l 143 82 l 129 58 l 113 40 l 83 38 l 67 58 l 65 81 l 65 101 l 69 119 l 74 139 l 86 168 l 96 186 l 106 204 l 115 221 l 124 243 l 131 260 l 138 279 l 143 293 l 138 290 l 119 283 l 103 279 l 86 275 l 60 271 l 36 271 l 11 281 l -7 301 l -12 317 l -22 342 l -29 369 l -31 389 l -29 415 l -8 429 l 15 436 l 32 440 l 60 442 l 79 442 l 94 442 l 115 440 l 136 436 l 153 431 l 171 425 l 189 418 l 190 418 l 192 419 l 197 436 l 199 443 l 200 460 l 203 481 l 208 504 l 213 525 l 219 553 l 228 579 l 233 608 l 215 601 l 189 594 l 168 590 l 144 588 l 128 585 l 104 585 l 86 596 l 72 613 l 61 635 l 61 636 l 63 658 l 79 675 l 99 682 l 114 689 l 132 693 l 161 699 l 188 700 l 215 700 l 239 700 l 261 693 l 261 697 l 263 719 l 263 739 l 264 758 l 264 779 l 265 799 l 268 824 l 271 844 l 278 874 l 288 900 l 296 915 l 311 939 l 324 958 l 336 972 l 338 981 l 346 979 l 354 985 l 372 990 l 374 988 l 394 976 l 390 953 l 389 936 l 388 922 l 385 903 l 381 885 l 376 869 l 371 850 l 363 824 l 358 807 l 354 792 l 350 776 l 343 751 l 339 732 l 333 714 l 326 696 l 319 678 l 318 671 l 321 669 l 332 674 l 358 683 l 372 688 l 397 694 l 424 704 l 450 708 l 475 713 l 499 717 l 501 717 l 501 735 l 501 764 l 501 786 l 507 807 l 507 824 l 514 842 l 525 863 l 536 878 l 546 893 l 556 910 l 564 921 l 569 928 l 571 942 l 588 969 l 604 960 l 632 960 l 653 940 l 654 917 l 651 888 l 649 869 l 640 851 l 635 838 l 629 821 l 622 807 l 617 793 l 607 769 l 600 754 l 592 738 l 589 729 l 590 729 l 615 728 l 633 718 l 653 707 l 667 692 l 678 669 l 676 646 l 669 633 l 692 638 l 697 610 l 664 604 l 643 604 l 639 601 l 618 590 l 592 586 l 575 586 l 560 586 l 542 586 l 529 588 l 529 579 l 526 553 l 524 532 l 519 506 l 517 479 l 514 463 l 518 463 l 535 463 l 551 461 l 578 456 l 596 450 l 618 440 l 639 426 l 651 401 l 651 381 l 643 360 l 665 367 l 674 339 l 633 328 l 611 324 m 238 371 l 233 371 l 222 375 l 222 369 l 221 363 l 238 371 m 36 413 l 24 408 l 3 404 l -4 401 l -3 389 l -1 375 l 6 350 l 13 328 l 18 315 l 28 303 l 42 299 l 57 299 l 81 303 l 94 307 l 111 311 l 126 315 l 142 322 l 160 329 l 161 332 l 161 333 l 153 336 l 131 347 l 117 357 l 106 365 l 88 376 l 68 388 l 49 400 l 36 413 z "},"$":{"ha":815,"x_min":35,"x_max":678,"o":"m 643 322 l 646 317 l 646 319 l 643 322 m 304 519 l 294 522 l 279 526 l 254 536 l 226 549 l 211 556 l 196 567 l 183 575 l 164 593 l 146 615 l 136 642 l 129 663 l 126 688 l 126 704 l 126 721 l 128 738 l 135 756 l 142 774 l 156 793 l 167 807 l 178 819 l 192 836 l 207 849 l 218 860 l 231 872 l 243 883 l 254 894 l 268 906 l 256 903 l 242 900 l 219 890 l 196 876 l 183 865 l 168 850 l 156 836 l 146 822 l 135 808 l 128 794 l 121 783 l 118 772 l 115 757 l 113 742 l 113 728 l 113 710 l 113 690 l 113 674 l 113 654 l 117 638 l 125 621 l 132 607 l 142 593 l 150 582 l 163 572 l 182 554 l 193 549 l 210 542 l 225 535 l 240 529 l 256 525 l 281 519 l 293 517 l 304 515 l 304 519 m 547 825 l 550 814 l 554 797 l 558 778 l 561 763 l 568 744 l 572 729 l 576 715 l 579 703 l 586 693 l 596 682 l 600 671 l 607 669 l 613 669 l 615 672 l 614 682 l 613 697 l 607 715 l 606 724 l 592 721 l 588 738 l 585 768 l 583 768 l 574 788 l 560 806 l 547 825 m 303 550 l 303 567 l 303 590 l 303 615 l 301 639 l 301 663 l 301 690 l 301 714 l 299 740 l 297 763 l 297 785 l 297 804 l 297 825 l 297 846 l 299 865 l 299 889 l 299 892 l 285 883 l 274 875 l 263 864 l 250 853 l 238 840 l 226 829 l 211 817 l 200 801 l 189 790 l 178 776 l 167 760 l 160 744 l 156 732 l 154 721 l 154 704 l 154 690 l 157 668 l 161 650 l 171 629 l 183 613 l 200 597 l 213 589 l 225 581 l 238 574 l 265 561 l 288 554 l 303 550 m 360 533 l 360 539 l 358 557 l 357 579 l 357 597 l 356 614 l 354 636 l 354 657 l 353 679 l 351 699 l 350 722 l 349 743 l 349 761 l 349 783 l 349 801 l 349 817 l 349 836 l 349 851 l 349 869 l 349 889 l 349 910 l 349 913 l 336 908 l 331 906 l 326 886 l 326 865 l 325 846 l 325 825 l 325 804 l 325 785 l 325 763 l 326 743 l 329 717 l 329 690 l 329 663 l 329 639 l 331 615 l 331 590 l 331 567 l 331 542 l 356 535 l 360 533 m 104 178 l 104 183 l 104 208 l 107 233 l 111 256 l 115 278 l 117 301 l 117 324 l 117 342 l 117 350 l 108 354 l 100 354 l 85 353 l 72 343 l 64 332 l 63 313 l 63 293 l 64 278 l 67 258 l 72 236 l 82 217 l 92 201 l 99 186 l 104 178 m 388 476 l 388 468 l 389 449 l 390 424 l 390 400 l 390 378 l 390 356 l 390 333 l 390 313 l 390 290 l 390 271 l 390 251 l 390 231 l 390 208 l 390 193 l 390 169 l 390 149 l 390 128 l 390 110 l 390 89 l 390 69 l 390 54 l 390 32 l 390 21 l 394 22 l 421 28 l 444 33 l 464 39 l 492 46 l 515 54 l 539 64 l 556 72 l 567 79 l 568 79 l 582 92 l 596 101 l 613 114 l 625 125 l 638 143 l 640 151 l 644 174 l 647 186 l 647 201 l 646 214 l 644 236 l 640 256 l 638 268 l 629 289 l 622 303 l 615 317 l 608 331 l 599 343 l 589 353 l 579 365 l 568 378 l 553 394 l 540 403 l 518 418 l 497 432 l 472 446 l 456 453 l 428 465 l 413 469 l 396 474 l 388 476 m 349 1021 l 347 1014 l 344 988 l 340 960 l 336 942 l 340 942 l 349 942 l 349 944 l 349 964 l 349 981 l 349 1007 l 349 1021 m 363 79 l 363 89 l 363 110 l 363 128 l 363 149 l 363 169 l 363 193 l 363 208 l 363 231 l 363 251 l 363 271 l 363 290 l 363 313 l 363 333 l 363 356 l 363 378 l 363 400 l 363 424 l 361 446 l 360 468 l 360 482 l 340 483 l 333 485 l 333 479 l 335 450 l 336 418 l 339 389 l 340 358 l 340 338 l 344 311 l 346 289 l 346 267 l 346 239 l 346 215 l 350 189 l 351 163 l 356 138 l 358 113 l 361 88 l 363 79 m 367 1083 l 389 1067 l 381 1056 l 379 1044 l 376 1028 l 376 1007 l 376 981 l 376 964 l 376 947 l 382 947 l 386 947 l 390 947 l 413 949 l 428 949 l 433 947 l 458 944 l 482 938 l 492 932 l 486 956 l 514 961 l 525 910 l 544 892 l 556 879 l 568 865 l 578 850 l 588 829 l 594 815 l 601 801 l 611 776 l 619 760 l 626 746 l 635 724 l 640 703 l 642 682 l 640 664 l 626 644 l 604 642 l 583 649 l 574 665 l 564 676 l 554 692 l 549 707 l 544 721 l 540 736 l 533 754 l 531 772 l 526 792 l 522 808 l 519 822 l 517 836 l 510 858 l 510 863 l 500 872 l 486 883 l 468 896 l 450 907 l 436 918 l 431 919 l 429 919 l 401 919 l 390 919 l 389 919 l 385 919 l 376 918 l 376 910 l 376 889 l 376 869 l 376 851 l 376 836 l 376 817 l 376 801 l 376 783 l 376 761 l 376 743 l 378 725 l 379 701 l 381 682 l 382 657 l 382 636 l 383 617 l 385 597 l 385 579 l 386 560 l 388 539 l 388 526 l 393 525 l 411 519 l 429 513 l 444 507 l 461 499 l 474 492 l 488 485 l 503 478 l 522 467 l 544 453 l 556 443 l 568 433 l 583 424 l 596 414 l 608 406 l 622 392 l 647 367 l 661 346 l 671 331 l 676 311 l 678 293 l 678 278 l 678 260 l 678 235 l 676 206 l 675 185 l 675 179 l 674 150 l 663 131 l 661 125 l 643 100 l 624 82 l 607 69 l 586 57 l 583 56 l 571 46 l 550 33 l 528 22 l 504 11 l 481 3 l 460 -7 l 436 -17 l 417 -21 l 394 -25 l 388 -25 l 388 -39 l 385 -54 l 382 -78 l 379 -97 l 379 -111 l 374 -111 l 374 -112 l 346 -112 l 346 -96 l 346 -74 l 346 -58 l 346 -43 l 344 -28 l 338 -28 l 321 -28 l 300 -24 l 285 -17 l 268 -11 l 242 -4 l 226 1 l 204 13 l 185 24 l 163 46 l 153 60 l 146 74 l 138 88 l 133 96 l 131 99 l 114 117 l 100 136 l 88 154 l 74 172 l 67 188 l 57 203 l 47 228 l 39 253 l 36 275 l 35 293 l 35 315 l 39 343 l 53 363 l 74 378 l 97 382 l 117 382 l 139 367 l 144 344 l 144 324 l 144 301 l 143 275 l 139 250 l 135 228 l 132 206 l 132 183 l 132 171 l 140 142 l 147 131 l 154 115 l 154 114 l 165 103 l 183 86 l 194 75 l 210 63 l 226 50 l 244 36 l 260 28 l 274 18 l 289 13 l 294 10 l 306 10 l 324 8 l 343 8 l 343 17 l 339 36 l 338 61 l 333 85 l 331 110 l 328 135 l 324 160 l 322 186 l 318 213 l 318 239 l 318 267 l 318 289 l 317 308 l 313 335 l 313 358 l 311 386 l 308 415 l 307 450 l 306 479 l 306 488 l 304 488 l 290 489 l 275 492 l 247 497 l 232 504 l 214 510 l 199 517 l 182 524 l 165 532 l 143 550 l 131 563 l 119 576 l 107 593 l 100 610 l 92 629 l 85 651 l 85 674 l 85 690 l 85 710 l 85 728 l 85 744 l 88 763 l 90 778 l 96 794 l 103 808 l 113 825 l 124 839 l 133 853 l 149 869 l 164 885 l 179 899 l 208 915 l 233 925 l 250 931 l 275 936 l 292 938 l 307 939 l 308 939 l 313 965 l 317 990 l 319 1017 l 324 1039 l 325 1068 l 331 1089 l 358 1081 l 353 1063 l 351 1051 l 356 1067 l 367 1083 z "},"%":{"ha":1242,"x_min":28,"x_max":1104,"o":"m 317 535 l 324 540 l 336 551 l 344 568 l 356 590 l 364 611 l 369 633 l 372 649 l 375 667 l 378 682 l 379 700 l 381 721 l 381 742 l 381 758 l 379 771 l 367 792 l 357 810 l 346 825 l 336 839 l 315 857 l 303 865 l 290 875 l 286 876 l 285 865 l 268 869 l 238 869 l 218 869 l 192 869 l 172 868 l 153 864 l 133 857 l 124 849 l 104 829 l 89 808 l 74 788 l 68 769 l 64 744 l 63 719 l 63 693 l 68 669 l 78 646 l 92 625 l 106 611 l 126 592 l 143 579 l 165 565 l 183 554 l 204 549 l 222 543 l 242 539 l 263 535 l 278 535 l 294 535 l 314 535 l 317 535 m 118 881 l 124 885 l 146 900 l 171 911 l 199 918 l 225 918 l 246 918 l 265 917 l 283 910 l 304 897 l 319 888 l 332 879 l 356 858 l 368 842 l 379 824 l 386 814 l 414 822 l 419 804 l 425 785 l 426 764 l 426 743 l 426 722 l 426 706 l 426 686 l 425 669 l 425 654 l 422 635 l 419 613 l 413 590 l 399 560 l 388 546 l 375 532 l 347 511 l 326 508 l 311 500 l 286 493 l 260 493 l 236 494 l 217 497 l 193 506 l 171 514 l 151 526 l 126 542 l 108 560 l 88 582 l 69 607 l 68 608 l 51 629 l 38 654 l 29 682 l 28 708 l 28 733 l 33 757 l 39 778 l 47 797 l 49 801 l 60 826 l 72 846 l 97 868 l 118 881 m 707 289 l 711 297 l 731 326 l 747 353 l 743 351 l 732 343 l 719 326 l 711 310 l 708 294 l 707 289 m 913 389 l 907 392 l 897 394 l 881 394 l 860 394 l 835 388 l 811 371 l 788 353 l 769 336 l 753 313 l 736 283 l 722 257 l 718 236 l 713 215 l 718 204 l 735 175 l 750 146 l 765 124 l 779 108 l 793 89 l 803 79 l 807 76 l 832 67 l 854 60 l 879 56 l 899 54 l 924 54 l 949 56 l 976 67 l 1000 79 l 1017 93 l 1033 111 l 1049 133 l 1060 153 l 1067 175 l 1072 200 l 1072 224 l 1072 228 l 1061 244 l 1050 258 l 1029 283 l 1013 296 l 997 314 l 982 328 l 971 340 l 957 353 l 946 365 l 933 375 l 919 385 l 914 389 l 913 389 m 1036 313 l 1026 322 l 1032 315 l 1036 313 m 863 988 l 853 985 l 832 969 l 807 950 l 783 929 l 769 913 l 753 888 l 738 860 l 719 829 l 704 792 l 692 756 l 679 718 l 667 681 l 653 642 l 640 604 l 654 628 l 674 654 l 694 685 l 717 715 l 742 751 l 760 782 l 785 826 l 810 874 l 835 917 l 849 947 l 857 969 l 861 985 l 863 988 m 204 -82 l 206 -39 l 225 14 l 250 69 l 282 119 l 315 171 l 353 219 l 400 276 l 444 328 l 489 376 l 514 414 l 539 453 l 547 465 l 549 467 l 571 513 l 592 558 l 610 603 l 628 650 l 642 689 l 654 726 l 667 764 l 679 800 l 694 840 l 713 874 l 728 901 l 747 929 l 764 949 l 790 972 l 815 992 l 842 1010 l 869 1015 l 890 997 l 889 982 l 882 961 l 874 936 l 860 903 l 835 860 l 810 813 l 785 768 l 764 738 l 739 699 l 717 668 l 756 719 l 793 769 l 835 831 l 875 906 l 910 997 l 942 1069 l 967 1058 l 935 986 l 900 894 l 860 817 l 815 753 l 778 703 l 738 649 l 694 593 l 649 529 l 597 467 l 553 411 l 551 410 l 531 372 l 510 336 l 490 297 l 471 257 l 457 221 l 439 172 l 421 125 l 404 89 l 386 53 l 365 24 l 346 -8 l 325 -37 l 292 -69 l 267 -87 l 242 -97 l 225 -100 l 204 -82 m 949 456 l 954 428 l 932 424 l 913 418 l 918 417 l 924 414 l 942 406 l 957 400 l 974 393 l 996 385 l 1017 369 l 1036 351 l 1057 331 l 1068 319 l 1088 296 l 1096 274 l 1100 238 l 1100 224 l 1104 200 l 1104 181 l 1103 161 l 1100 139 l 1094 115 l 1083 88 l 1067 65 l 1047 49 l 1025 38 l 1001 28 l 978 22 l 956 17 l 935 15 l 911 15 l 896 17 l 878 17 l 854 18 l 838 24 l 821 32 l 803 42 l 788 56 l 786 57 l 774 65 l 751 79 l 732 94 l 713 117 l 699 140 l 685 171 l 685 197 l 685 210 l 679 222 l 678 251 l 678 275 l 681 300 l 686 321 l 697 340 l 713 363 l 726 374 l 743 388 l 765 401 l 788 411 l 813 419 l 835 426 l 860 435 l 886 440 l 904 446 l 926 451 l 949 456 m 275 -8 l 253 6 l 271 33 l 290 64 l 310 93 l 329 128 l 358 171 l 385 213 l 385 215 l 375 203 l 338 154 l 304 106 l 275 56 l 250 3 l 233 -44 l 229 -72 l 233 -69 l 253 -62 l 275 -47 l 303 -18 l 324 8 l 343 38 l 361 67 l 379 100 l 396 136 l 414 183 l 432 232 l 435 239 l 433 239 l 407 199 l 381 157 l 354 114 l 335 79 l 313 47 l 293 19 l 275 -8 z "},"&":{"ha":986,"x_min":60,"x_max":847,"o":"m 511 800 l 511 810 l 511 833 l 511 854 l 510 868 l 504 882 l 499 894 l 488 907 l 467 915 l 454 924 l 438 928 l 408 935 l 382 935 l 357 935 l 340 931 l 325 925 l 322 924 l 336 925 l 350 925 l 376 925 l 399 914 l 414 903 l 431 890 l 450 879 l 464 868 l 479 854 l 496 835 l 504 817 l 511 800 m 281 522 l 285 524 l 297 526 l 293 532 l 286 526 l 281 522 m 94 265 l 99 256 l 111 229 l 118 215 l 133 190 l 140 175 l 147 163 l 154 150 l 169 129 l 179 119 l 192 103 l 201 93 l 213 83 l 229 69 l 250 64 l 263 64 l 279 64 l 294 64 l 310 64 l 328 65 l 343 67 l 357 68 l 382 74 l 396 76 l 410 79 l 422 82 l 438 89 l 451 96 l 464 103 l 479 113 l 493 118 l 504 126 l 525 142 l 536 151 l 547 163 l 561 186 l 568 199 l 551 213 l 536 226 l 521 242 l 504 258 l 490 274 l 476 288 l 461 303 l 450 321 l 440 336 l 431 351 l 419 367 l 413 382 l 400 400 l 390 414 l 376 432 l 364 446 l 350 460 l 336 476 l 325 489 l 315 501 l 311 500 l 290 496 l 272 492 l 247 485 l 235 479 l 219 472 l 208 471 l 196 463 l 176 447 l 163 435 l 149 417 l 142 406 l 131 382 l 124 368 l 119 347 l 111 328 l 106 310 l 100 294 l 97 282 l 96 268 l 94 265 m 168 88 l 160 100 l 147 110 l 132 136 l 122 149 l 115 164 l 108 176 l 94 200 l 97 190 l 106 175 l 111 158 l 118 143 l 125 129 l 135 118 l 153 99 l 163 92 l 168 88 m 383 43 l 388 46 l 363 40 l 357 39 l 371 39 l 383 43 m 610 232 l 607 224 l 613 229 l 610 232 m 353 546 l 340 564 l 326 557 l 315 549 l 324 538 l 326 535 l 353 546 m 376 560 l 385 567 l 403 579 l 418 592 l 435 603 l 453 617 l 468 629 l 469 632 l 460 625 l 444 617 l 432 608 l 418 601 l 401 593 l 388 588 l 372 581 l 365 576 l 376 560 m 350 600 l 361 606 l 376 613 l 390 618 l 404 626 l 418 633 l 431 642 l 446 650 l 467 664 l 479 674 l 489 690 l 496 710 l 496 726 l 496 746 l 492 765 l 486 783 l 479 806 l 474 821 l 460 835 l 447 846 l 433 857 l 417 868 l 397 881 l 385 889 l 371 897 l 350 897 l 336 897 l 321 896 l 310 894 l 294 886 l 293 883 l 281 850 l 276 821 l 274 797 l 274 768 l 275 742 l 281 711 l 293 688 l 306 663 l 324 639 l 343 610 l 350 600 m 624 258 l 628 257 l 632 254 l 638 263 l 649 272 l 658 286 l 668 301 l 678 317 l 686 332 l 693 347 l 699 367 l 703 390 l 706 408 l 707 424 l 708 447 l 708 463 l 707 483 l 703 494 l 696 507 l 692 510 l 686 507 l 686 499 l 683 482 l 678 460 l 674 440 l 667 424 l 658 400 l 651 388 l 646 375 l 639 350 l 632 328 l 628 314 l 625 297 l 618 271 l 618 267 l 621 263 l 624 258 m 714 104 l 725 96 l 742 82 l 761 72 l 753 57 l 765 46 l 776 38 l 789 33 l 797 31 l 808 44 l 817 60 l 819 74 l 819 92 l 819 108 l 815 128 l 807 144 l 799 154 l 778 169 l 767 171 l 751 175 l 721 185 l 703 189 l 678 197 l 657 207 l 660 203 l 671 188 l 682 164 l 692 140 l 697 128 l 706 118 l 714 104 m 656 239 l 671 232 l 689 222 l 711 217 l 729 213 l 760 203 l 772 199 l 789 194 l 818 174 l 829 158 l 840 136 l 847 111 l 847 92 l 847 71 l 842 51 l 831 28 l 806 6 l 783 6 l 763 13 l 749 24 l 729 39 l 715 53 l 703 71 l 693 86 l 689 90 l 675 104 l 656 118 l 639 135 l 617 156 l 600 172 l 597 175 l 590 168 l 576 151 l 564 139 l 551 126 l 540 115 l 525 100 l 508 86 l 494 75 l 479 65 l 463 57 l 450 49 l 433 38 l 413 26 l 394 18 l 376 11 l 357 11 l 322 11 l 303 15 l 283 17 l 267 22 l 250 26 l 235 29 l 219 32 l 194 43 l 169 53 l 146 69 l 133 79 l 113 101 l 103 115 l 93 132 l 86 147 l 81 164 l 72 179 l 67 196 l 65 213 l 65 226 l 65 242 l 65 257 l 67 264 l 64 276 l 60 297 l 60 315 l 60 336 l 60 358 l 60 381 l 68 400 l 78 419 l 88 436 l 101 450 l 115 460 l 129 471 l 163 485 l 179 490 l 194 496 l 199 496 l 200 497 l 211 507 l 224 515 l 235 525 l 258 540 l 269 549 l 279 556 l 275 561 l 263 583 l 250 610 l 240 636 l 229 661 l 224 688 l 218 707 l 214 725 l 211 753 l 211 768 l 211 785 l 211 807 l 214 826 l 221 846 l 232 864 l 244 882 l 258 897 l 274 907 l 282 924 l 294 938 l 311 950 l 332 958 l 354 963 l 382 963 l 411 963 l 446 956 l 465 949 l 481 940 l 504 929 l 521 908 l 529 893 l 538 874 l 539 854 l 539 833 l 539 810 l 538 786 l 535 758 l 533 729 l 528 701 l 521 674 l 513 651 l 503 631 l 488 610 l 469 594 l 451 581 l 435 569 l 419 557 l 401 544 l 393 539 l 407 519 l 426 500 l 446 475 l 465 450 l 489 428 l 506 413 l 521 397 l 536 381 l 547 367 l 557 356 l 568 342 l 578 325 l 588 310 l 594 296 l 596 296 l 597 303 l 600 319 l 604 336 l 611 358 l 621 383 l 626 399 l 633 411 l 642 432 l 646 449 l 650 465 l 656 488 l 658 504 l 664 524 l 689 538 l 713 529 l 728 508 l 735 489 l 736 463 l 736 447 l 735 421 l 733 406 l 731 385 l 726 358 l 718 339 l 711 318 l 700 303 l 690 288 l 681 272 l 671 256 l 660 243 l 656 239 m 88 342 l 92 356 l 99 376 l 106 393 l 117 419 l 126 433 l 118 428 l 110 419 l 103 406 l 93 389 l 88 375 l 88 358 l 88 342 m 579 226 l 581 229 l 583 244 l 585 247 l 578 251 l 551 265 l 563 290 l 568 288 l 563 296 l 553 311 l 546 325 l 535 339 l 525 350 l 514 364 l 501 378 l 486 393 l 469 408 l 446 431 l 424 458 l 404 481 l 385 503 l 371 522 l 369 524 l 364 521 l 343 511 l 347 506 l 358 493 l 369 479 l 383 465 l 399 449 l 413 431 l 422 417 l 438 396 l 444 381 l 453 365 l 463 350 l 472 335 l 483 319 l 496 307 l 510 293 l 524 278 l 540 261 l 556 246 l 571 235 l 579 226 m 617 194 l 619 192 l 636 175 l 654 158 l 646 174 l 638 186 l 626 203 l 626 204 l 621 199 l 617 194 m 301 572 l 313 582 l 325 588 l 321 593 l 301 622 l 283 649 l 268 674 l 256 703 l 247 739 l 246 768 l 246 800 l 249 824 l 251 843 l 246 835 l 242 821 l 239 804 l 239 785 l 239 768 l 239 756 l 242 731 l 246 713 l 251 693 l 257 669 l 265 647 l 275 621 l 288 597 l 300 575 l 301 572 z "},"'":{"ha":314,"x_min":75,"x_max":176,"o":"m 103 663 l 107 675 l 111 689 l 111 717 l 113 721 l 111 719 l 107 703 l 103 689 l 103 675 l 103 663 m 117 843 l 117 846 l 117 863 l 117 879 l 117 899 l 117 922 l 117 944 l 119 964 l 131 989 l 132 988 l 132 992 l 146 1006 l 172 997 l 176 982 l 176 961 l 176 938 l 175 911 l 167 886 l 163 867 l 156 842 l 149 819 l 147 815 l 147 810 l 147 794 l 147 778 l 147 758 l 144 740 l 142 728 l 142 715 l 142 700 l 142 681 l 142 664 l 140 647 l 128 649 l 122 636 l 111 614 l 81 619 l 75 644 l 75 660 l 75 675 l 75 692 l 79 711 l 86 731 l 94 749 l 101 768 l 110 788 l 114 806 l 115 808 l 115 831 l 117 843 z "},"(":{"ha":522,"x_min":92,"x_max":385,"o":"m 354 992 l 357 990 l 357 994 l 361 1000 l 358 1000 l 354 992 m 322 913 l 329 925 l 338 939 l 344 951 l 353 974 l 354 981 l 349 968 l 333 938 l 322 913 m 290 -176 l 294 -185 l 303 -206 l 311 -214 l 321 -222 l 326 -224 l 324 -212 l 317 -203 l 306 -193 l 290 -176 m 165 -50 l 156 -28 l 147 -3 l 139 17 l 138 32 l 129 51 l 126 74 l 125 94 l 125 101 l 124 104 l 117 132 l 110 161 l 103 200 l 97 238 l 94 272 l 92 303 l 92 332 l 92 353 l 92 375 l 93 403 l 99 429 l 104 453 l 108 472 l 114 497 q 115 503 115 501 l 119 522 l 121 522 l 121 526 l 125 544 l 129 564 l 136 582 l 142 596 l 146 618 l 156 657 l 165 685 l 175 710 l 183 726 l 192 738 l 197 754 l 206 774 l 215 790 l 225 806 l 232 821 l 246 840 l 260 865 l 276 890 l 290 914 l 301 933 l 308 953 l 321 986 l 328 1000 l 347 1025 l 383 1017 l 385 992 l 381 965 l 369 940 l 363 925 l 354 911 l 338 883 l 321 864 l 311 851 l 301 840 l 289 825 l 278 808 l 268 792 l 268 790 l 256 764 l 243 738 l 233 714 l 224 692 l 218 676 l 214 653 l 208 631 l 201 606 l 197 579 l 192 556 l 188 539 l 182 514 l 176 493 l 172 465 l 168 446 l 165 417 l 161 399 l 160 376 l 157 350 l 156 324 l 154 294 l 153 267 l 153 239 l 153 215 l 153 190 l 157 163 l 163 133 l 165 114 l 165 111 l 172 94 l 182 71 l 186 56 l 190 39 l 196 24 l 201 8 l 207 -6 l 214 -19 l 222 -43 l 225 -49 l 229 -54 l 239 -67 l 253 -82 l 264 -96 l 279 -117 l 296 -140 l 306 -150 l 325 -174 l 336 -183 l 349 -201 l 356 -226 l 356 -243 l 349 -268 l 324 -269 l 307 -264 l 290 -254 l 281 -244 l 279 -243 l 267 -232 l 250 -217 l 236 -197 l 224 -176 l 211 -157 l 200 -133 l 188 -104 l 175 -75 l 167 -53 l 165 -50 m 167 572 l 163 563 l 156 538 l 149 517 l 144 494 l 143 468 l 143 463 l 144 471 l 149 499 l 154 519 l 160 544 l 164 561 l 167 572 z "},")":{"ha":468,"x_min":44,"x_max":329,"o":"m 135 -78 l 119 -96 l 107 -112 l 97 -128 l 86 -147 l 81 -167 l 76 -192 l 74 -226 l 74 -231 l 81 -226 l 100 -214 l 104 -208 l 93 -199 l 94 -183 l 99 -162 l 106 -147 l 113 -132 l 119 -121 l 126 -104 l 133 -81 l 135 -78 m 238 463 l 239 494 l 239 526 l 239 556 l 240 589 l 240 617 l 235 628 l 219 656 l 207 678 l 193 703 l 182 725 l 169 747 l 156 772 l 143 796 l 131 819 l 118 842 l 110 863 l 99 886 l 88 911 l 86 913 l 97 885 l 111 854 l 125 822 l 136 793 l 147 763 l 156 736 l 169 704 l 176 675 l 188 643 l 199 610 l 211 575 l 224 540 l 232 503 l 236 474 l 238 463 m 232 728 l 226 750 l 219 775 l 208 804 l 194 832 l 185 856 l 171 878 l 157 900 l 146 919 l 131 940 l 110 967 l 92 990 l 85 997 l 88 983 l 92 967 l 101 944 l 113 922 l 124 897 l 135 874 l 143 853 l 156 833 l 168 810 l 181 786 l 194 761 l 207 739 l 218 717 l 232 692 l 239 678 l 239 685 l 233 721 l 232 728 m 261 164 l 261 163 l 261 132 l 261 110 l 261 79 l 261 50 l 258 24 l 256 3 l 250 -22 l 243 -46 l 233 -71 l 221 -100 l 215 -107 l 224 -99 l 236 -81 l 250 -64 l 260 -49 l 269 -31 l 276 -11 l 285 6 l 288 24 l 293 44 l 296 61 l 297 82 l 299 103 l 300 124 l 301 144 l 301 167 l 301 188 l 301 210 l 301 232 l 301 253 l 301 274 l 301 293 l 301 317 l 301 343 l 300 364 l 299 392 l 294 418 l 292 447 l 288 471 l 288 457 l 288 428 l 288 400 l 288 374 l 286 343 l 286 314 l 282 288 l 279 261 l 276 236 l 271 211 l 267 183 l 261 164 m 260 414 l 257 388 l 256 358 l 257 354 l 258 343 l 260 374 l 260 400 l 260 414 m 267 688 l 267 685 l 269 654 l 274 617 l 274 611 l 282 594 l 292 569 l 303 542 l 310 511 l 314 479 l 319 450 l 322 421 l 326 394 l 328 367 l 329 343 l 329 317 l 329 293 l 329 274 l 329 253 l 329 232 l 329 210 l 329 188 l 329 167 l 329 144 l 328 121 l 326 100 l 325 79 l 324 58 l 321 39 l 315 18 l 310 -3 l 301 -22 l 294 -42 l 285 -62 l 272 -81 l 258 -97 l 246 -115 l 225 -137 l 204 -158 l 190 -172 l 175 -187 l 160 -196 l 147 -206 l 142 -208 l 132 -221 l 117 -236 l 92 -251 l 65 -256 l 46 -235 l 49 -189 l 53 -161 l 61 -136 l 72 -114 l 85 -96 l 97 -79 l 113 -61 l 129 -40 l 143 -21 l 149 -14 l 156 4 l 163 26 l 167 43 l 172 64 l 179 89 l 183 113 l 189 138 l 193 161 l 199 188 l 204 213 l 208 239 l 214 267 l 219 301 l 224 328 l 228 357 l 221 386 l 217 415 l 213 443 l 208 471 l 204 497 l 196 532 l 186 567 l 174 601 l 163 635 l 149 667 l 142 696 l 131 728 l 122 754 l 111 782 l 100 811 l 86 843 l 72 874 l 60 906 l 46 940 l 44 965 l 46 1004 l 64 1029 l 96 1025 l 111 1010 l 117 1014 l 126 994 l 136 986 l 157 969 l 168 958 l 179 946 l 193 929 l 207 908 l 217 885 l 228 861 l 238 838 l 247 810 l 254 781 l 257 750 l 260 733 l 261 728 l 265 700 l 267 688 m 175 -25 l 172 -43 l 167 -67 l 161 -89 l 151 -112 l 144 -132 l 138 -146 l 131 -158 l 126 -171 l 122 -186 l 124 -185 l 138 -171 l 151 -154 l 168 -132 l 183 -107 l 196 -86 l 208 -60 l 218 -37 l 222 -17 l 228 8 l 231 26 l 233 53 l 233 79 l 233 83 l 221 56 l 207 29 l 196 4 l 181 -18 l 175 -25 m 235 226 l 232 207 l 226 182 l 221 156 l 217 132 l 211 107 l 208 96 l 218 115 l 225 139 l 232 164 l 233 167 l 233 185 l 235 211 l 235 226 z "},"*":{"ha":525,"x_min":46,"x_max":388,"o":"m 190 800 l 189 788 l 190 788 l 210 776 l 222 769 l 219 772 l 213 790 l 207 800 l 200 800 l 190 800 m 283 768 l 274 763 l 265 758 l 265 757 l 274 746 l 286 735 l 300 718 l 307 707 l 304 715 l 297 735 l 290 751 l 283 768 m 268 800 l 263 800 l 247 800 l 239 800 l 244 786 l 249 781 l 260 788 l 272 793 l 271 796 l 268 800 m 253 828 l 246 842 l 240 857 l 233 872 l 229 881 l 226 874 l 222 863 l 222 847 l 224 831 l 225 828 l 232 828 l 247 828 l 253 828 m 200 750 l 196 751 l 182 760 l 181 749 l 176 729 l 183 736 l 200 750 m 150 618 l 122 624 l 125 638 l 128 653 l 121 647 l 101 667 l 114 679 l 135 696 l 138 699 l 142 714 l 147 732 l 153 754 l 156 774 l 156 775 l 136 786 l 122 793 l 107 800 l 93 806 l 81 807 l 65 813 l 46 817 l 49 844 l 74 842 l 100 833 l 115 831 l 139 828 l 165 828 l 168 828 l 169 835 l 174 857 l 179 876 l 182 890 l 188 917 l 194 931 l 200 951 l 207 968 l 224 965 l 224 969 l 232 985 l 257 971 l 251 961 l 250 949 l 246 935 l 244 921 l 243 917 l 244 913 l 258 883 l 265 868 l 271 853 l 279 839 l 285 828 l 297 831 l 313 832 l 340 833 l 363 833 l 385 833 l 388 806 l 365 803 l 353 800 l 333 793 l 319 788 l 307 781 l 315 763 l 322 746 l 332 724 l 336 703 l 340 688 l 339 667 l 329 650 l 303 653 l 299 664 l 288 674 l 263 696 l 251 707 l 243 718 l 225 732 l 219 729 l 200 714 l 182 699 l 164 683 l 161 682 l 158 671 l 153 632 l 150 618 z "},"+":{"ha":850,"x_min":32,"x_max":711,"o":"m 381 344 l 361 344 l 361 340 l 363 340 l 381 340 l 381 343 l 381 344 m 131 358 l 136 357 l 153 353 l 179 346 l 196 343 l 214 342 l 235 342 l 256 340 l 275 340 l 296 340 l 318 340 l 333 340 l 333 344 l 317 344 l 293 346 l 267 349 l 242 349 l 213 354 l 185 354 l 157 356 l 131 358 m 38 354 l 32 382 l 56 386 l 76 386 l 104 386 l 131 386 l 160 383 l 185 382 l 215 382 l 244 376 l 267 376 l 296 374 l 317 372 l 333 372 l 333 390 l 333 418 l 333 447 l 333 479 l 333 511 l 333 542 l 333 571 l 333 599 l 333 632 l 336 667 l 364 664 l 361 632 l 361 599 l 361 571 l 361 542 l 361 511 l 361 479 l 361 447 l 361 418 l 361 390 l 361 372 l 381 372 l 381 394 l 379 425 l 378 450 l 375 489 l 372 522 l 371 553 l 367 583 l 364 625 l 364 643 l 371 661 l 396 653 l 392 638 l 392 625 l 394 586 l 399 556 l 400 525 l 403 492 l 406 453 l 407 425 l 408 394 l 408 371 l 415 371 l 442 371 l 463 371 l 490 371 l 510 371 l 535 371 l 556 371 l 575 371 l 596 371 l 617 371 l 638 371 l 658 371 l 682 371 l 697 371 l 697 343 l 682 343 l 658 343 l 638 343 l 617 343 l 596 343 l 575 343 l 556 343 l 535 343 l 510 343 l 490 343 l 463 343 l 442 343 l 415 343 l 408 343 l 408 340 l 424 340 l 443 340 l 460 340 l 483 340 l 503 340 l 518 340 l 540 340 l 558 340 l 579 340 l 600 340 l 621 340 l 643 340 l 664 340 l 689 340 l 711 340 l 711 313 l 689 313 l 664 313 l 643 313 l 621 313 l 600 313 l 579 313 l 558 313 l 540 313 l 518 313 l 503 313 l 483 313 l 460 313 l 443 313 l 424 313 l 408 313 l 408 288 l 408 265 l 408 242 l 408 218 l 408 196 l 408 174 l 408 153 l 408 133 l 407 119 l 407 106 l 406 82 l 406 68 l 378 68 l 378 82 l 379 106 l 379 119 l 381 133 l 381 153 l 381 174 l 381 196 l 381 218 l 381 242 l 381 265 l 381 288 l 381 313 l 363 313 l 361 313 l 361 300 l 363 275 l 364 247 l 364 225 l 365 200 l 365 179 l 365 154 l 365 131 l 365 114 l 365 96 l 365 78 l 368 61 l 340 56 l 338 75 l 338 96 l 338 114 l 338 131 l 338 154 l 338 179 l 338 200 l 336 225 l 336 247 l 335 272 l 333 300 l 333 313 l 318 313 l 296 313 l 275 313 l 256 313 l 235 314 l 214 314 l 193 315 l 174 318 l 144 325 l 131 329 l 106 335 l 111 358 l 104 358 l 76 358 l 58 358 l 38 354 z "},",":{"ha":368,"x_min":69,"x_max":231,"o":"m 100 96 l 100 97 l 97 93 l 99 92 l 100 96 m 176 42 l 178 42 l 176 43 l 176 42 m 197 -11 l 197 -22 l 197 -42 l 190 -60 l 185 -78 l 182 -83 l 193 -76 l 204 -64 l 203 -54 l 203 -37 l 201 -25 l 197 -11 m 196 69 l 196 67 l 196 65 l 201 56 l 215 26 l 224 3 l 229 -19 l 231 -37 l 231 -54 l 229 -72 l 213 -96 l 192 -110 l 178 -122 l 154 -143 l 143 -154 l 132 -168 l 111 -181 l 93 -186 l 89 -176 l 86 -171 l 75 -158 l 78 -157 l 75 -151 l 90 -143 l 101 -129 l 113 -119 l 119 -110 l 135 -86 l 146 -67 l 156 -49 l 161 -32 l 168 -18 l 169 -11 l 169 -4 l 169 19 l 167 29 l 157 21 l 154 19 l 153 19 l 121 11 l 97 35 l 96 58 l 69 88 l 78 111 l 88 107 l 93 94 l 96 93 l 96 103 l 101 100 l 103 104 l 107 107 l 113 118 l 111 122 l 110 131 l 111 132 l 117 132 l 114 135 l 110 139 l 106 164 l 115 168 l 132 157 l 149 139 l 151 135 l 154 135 l 157 133 l 163 138 l 157 139 l 151 135 l 153 132 l 157 133 l 168 132 l 169 132 l 174 131 l 196 110 l 197 90 l 197 85 l 201 104 l 196 126 l 204 124 l 207 101 l 207 82 l 196 69 m 163 138 l 168 139 l 185 132 l 163 138 m 185 132 l 196 126 l 194 129 l 185 132 m 110 139 l 107 140 l 86 144 l 82 135 l 83 117 l 88 107 l 96 103 l 97 113 l 110 131 l 110 135 l 110 139 z "},"-":{"ha":524,"x_min":-26,"x_max":386,"o":"m 3 339 l 3 367 l 31 368 l 11 371 l 13 374 l 10 374 l 8 374 l -21 368 l -26 396 l 6 401 l 28 401 l 50 401 l 74 401 l 101 403 l 121 403 l 142 403 l 160 403 l 178 403 l 201 401 l 222 401 l 244 400 l 263 399 l 278 399 l 297 399 l 318 397 l 331 396 l 354 396 l 375 394 l 374 378 l 386 376 l 383 349 l 367 350 l 340 350 l 333 349 l 314 349 l 289 349 l 267 349 l 238 349 l 214 349 l 192 346 l 168 346 l 151 344 l 125 342 l 107 342 l 89 340 l 67 340 l 49 340 l 35 340 l 3 339 z "},".":{"ha":363,"x_min":60,"x_max":224,"o":"m 114 124 l 119 135 l 118 135 l 104 133 l 101 128 l 114 124 m 119 56 l 111 58 l 110 56 l 106 50 l 106 49 l 119 56 m 113 -3 l 113 0 l 108 0 l 85 0 l 61 14 l 60 35 l 61 46 l 60 51 l 65 88 l 69 108 l 71 128 l 81 150 l 93 144 l 92 161 l 115 163 l 132 164 l 147 164 l 158 178 l 178 168 l 189 169 l 201 176 l 224 160 l 221 139 l 221 122 l 221 108 l 221 92 l 221 72 l 221 33 l 211 4 l 188 1 l 174 1 l 153 1 l 147 1 l 139 -11 l 113 -3 m 165 31 l 165 29 l 174 29 l 188 29 l 194 26 l 193 36 l 193 39 l 176 32 l 165 31 m 190 103 l 182 100 l 182 92 l 190 86 l 188 74 l 193 79 l 193 92 l 193 97 l 196 88 l 199 83 l 211 96 l 193 114 l 190 106 l 193 97 l 193 108 l 193 114 l 192 115 l 188 111 l 190 106 l 190 103 z "},"/":{"ha":515,"x_min":-62,"x_max":376,"o":"m 168 593 l 197 656 l 231 731 l 256 790 l 282 849 l 300 896 l 307 931 l 310 958 l 293 938 l 257 874 l 226 811 l 207 756 l 190 697 l 175 631 l 168 593 m 153 485 l 142 413 l 128 335 l 119 306 l 124 314 l 147 379 l 169 435 l 186 483 l 203 533 l 222 585 l 238 643 l 256 713 l 261 733 l 256 719 l 222 644 l 183 561 l 153 485 m 101 350 l 76 282 l 38 192 l 3 104 l -21 42 l -33 -6 l -36 -21 l -26 -10 l -7 28 l -3 33 l -1 39 l 11 65 l 32 110 l 35 115 l 39 125 l 60 193 l 81 269 l 100 340 l 101 350 m 125 493 l 135 567 l 147 636 l 163 703 l 179 764 l 201 822 l 232 888 l 271 954 l 315 1008 l 342 999 l 351 1024 l 376 1013 l 354 957 l 329 896 l 326 889 l 326 886 l 317 842 l 303 781 l 283 704 l 265 635 l 247 576 l 228 525 l 211 475 l 194 426 l 172 368 l 149 303 l 122 246 l 101 193 l 60 104 l 43 61 l 22 22 l 18 7 l 14 8 l -4 -26 l -25 -51 l -40 -58 l -62 -42 l -61 -3 l -49 50 l -22 115 l 13 203 l 51 293 l 86 385 l 122 485 l 125 493 z "},":":{"ha":417,"x_min":96,"x_max":279,"o":"m 271 604 l 271 603 l 271 585 l 269 563 l 249 549 l 225 549 l 204 550 l 182 550 l 158 550 l 139 550 l 119 550 l 100 564 l 96 586 l 96 603 l 96 617 l 97 636 l 100 656 l 101 678 l 107 703 l 110 721 l 129 717 l 129 719 l 143 719 l 160 719 l 178 719 l 199 719 l 219 719 l 239 719 l 264 714 l 268 690 l 269 678 l 271 656 l 271 631 l 271 622 l 279 608 l 271 604 m 135 24 l 131 26 l 129 24 l 135 24 m 200 165 l 203 165 l 221 167 l 239 171 l 257 169 l 274 147 l 272 143 l 272 142 l 272 140 l 271 138 l 271 119 l 268 100 l 268 79 l 268 65 l 268 40 l 268 24 l 263 0 l 239 -4 l 222 -4 l 207 -4 l 188 -4 l 169 -4 l 153 -4 l 129 -4 l 107 7 l 104 31 l 104 46 l 104 64 l 104 82 l 106 103 l 108 121 l 110 142 l 113 157 l 140 151 l 138 164 l 157 168 l 178 168 l 200 168 l 200 165 m 149 676 l 164 692 l 160 692 l 150 692 l 149 676 m 150 582 l 140 581 l 132 589 l 124 590 l 124 586 l 122 578 l 128 578 l 139 578 l 151 578 l 150 582 m 163 664 l 149 675 l 149 665 l 150 665 l 150 639 l 153 642 l 154 664 l 163 664 m 193 640 l 188 638 l 182 647 l 182 644 l 183 636 l 190 633 l 192 639 l 193 640 m 149 63 l 139 64 l 133 51 l 132 51 l 132 47 l 146 61 l 149 63 m 179 125 l 190 138 l 183 138 l 167 138 l 153 138 l 153 139 l 143 136 l 140 151 l 138 139 l 136 118 l 135 108 l 147 108 l 154 128 l 179 125 m 192 43 l 179 26 l 158 33 l 153 28 l 149 24 l 153 24 l 169 24 l 188 24 l 192 24 l 192 43 m 218 125 l 235 142 l 226 139 l 203 138 l 200 138 l 218 132 l 218 125 m 219 33 l 219 24 l 222 24 l 239 24 l 243 19 l 240 24 l 240 40 l 240 65 l 240 68 l 221 68 l 222 61 l 232 58 l 221 33 l 219 33 m 182 585 l 182 578 l 204 578 l 225 576 l 240 576 l 244 576 l 243 585 l 243 603 l 243 613 l 225 625 l 218 629 l 217 625 l 206 614 l 222 614 l 222 586 l 203 586 l 183 585 l 182 585 m 183 682 l 201 682 l 204 682 l 229 682 l 231 661 l 242 650 l 240 647 l 243 646 l 243 656 l 242 675 l 240 690 l 244 694 l 239 692 l 219 692 l 207 692 l 207 688 l 179 688 l 179 692 l 178 692 l 174 692 l 183 682 m 229 96 l 240 96 l 240 99 l 232 99 l 229 96 z "},";":{"ha":425,"x_min":92,"x_max":286,"o":"m 169 689 l 164 688 l 156 683 l 156 672 l 156 668 l 157 669 l 169 688 l 169 689 m 128 651 l 128 658 l 128 672 l 128 692 l 140 717 l 150 711 l 158 715 l 178 717 l 192 717 l 206 717 l 210 719 l 219 717 l 224 717 l 239 715 l 256 715 l 278 703 l 285 681 l 286 663 l 286 647 l 286 632 l 286 618 l 286 604 l 286 586 l 286 567 l 275 542 l 250 539 l 235 539 l 221 539 l 200 539 l 181 542 l 163 544 l 140 551 l 126 572 l 126 590 l 126 607 l 126 626 l 126 643 l 125 647 l 128 651 m 164 122 l 157 122 l 153 108 l 150 92 l 147 75 l 144 57 l 144 54 l 149 69 l 156 86 l 160 101 l 164 122 m 224 639 l 221 642 l 218 644 l 215 638 l 214 633 l 224 631 l 224 632 l 224 639 m 201 681 l 208 685 l 224 676 l 224 683 l 224 689 l 211 689 l 201 681 m 251 647 l 256 640 l 257 615 l 253 592 l 243 571 l 239 567 l 250 567 l 258 564 l 258 572 l 258 586 l 258 604 l 258 618 l 258 632 l 258 647 l 258 663 l 257 675 l 256 686 l 251 688 l 251 686 l 251 668 l 251 647 m 163 618 l 157 622 l 154 622 l 154 607 l 154 590 l 154 581 l 157 574 l 168 572 l 186 569 l 203 567 l 214 567 l 206 571 l 206 575 l 193 571 l 165 582 l 161 606 l 163 618 m 186 92 l 210 115 l 232 106 l 240 100 l 240 103 l 242 113 l 238 117 l 228 119 l 214 122 l 200 122 l 186 122 l 192 121 l 188 96 l 186 92 m 181 49 l 167 35 l 144 50 l 143 40 l 143 29 l 144 22 l 153 24 l 176 21 l 185 19 l 181 39 l 181 49 m 224 79 l 218 83 l 215 88 l 210 79 l 210 72 l 211 71 l 214 69 l 213 74 l 224 79 m 142 -161 l 142 -150 l 138 -153 l 125 -156 l 117 -158 l 122 -161 l 135 -161 l 142 -161 m 193 -124 l 200 -112 l 203 -106 l 200 -110 l 186 -124 l 176 -131 l 183 -129 l 193 -124 m 253 -47 l 250 -62 l 258 -49 l 258 -35 l 258 -21 l 257 -29 l 253 -47 m 219 -142 l 217 -147 l 204 -160 l 192 -169 l 190 -171 l 174 -178 l 157 -187 l 135 -189 l 111 -186 l 92 -169 l 93 -143 l 114 -131 l 129 -125 l 144 -121 l 156 -112 l 167 -104 l 178 -93 l 188 -78 l 199 -58 l 207 -40 l 207 -19 l 207 -14 l 206 -14 l 185 -10 l 171 -7 l 150 -4 l 131 0 l 115 21 l 115 40 l 117 60 l 119 81 l 122 97 l 125 114 l 115 131 l 144 150 l 167 150 l 181 150 l 200 150 l 217 150 l 236 147 l 254 139 l 267 121 l 268 103 l 267 88 l 267 74 l 267 57 l 265 39 l 263 31 l 278 18 l 285 -3 l 286 -21 l 286 -35 l 286 -57 l 275 -76 l 265 -92 l 254 -110 l 242 -125 l 228 -137 l 219 -142 z "},"<":{"ha":896,"x_min":1,"x_max":758,"o":"m 350 469 l 374 475 l 396 485 l 426 496 l 460 513 l 494 529 l 510 538 l 503 535 l 483 525 l 464 518 l 443 508 l 424 500 l 404 492 l 388 485 l 369 478 l 353 471 l 350 469 m 579 596 l 564 592 l 546 583 l 525 579 l 504 574 l 486 567 l 463 563 l 442 557 l 422 550 l 406 543 l 385 535 l 361 524 l 339 513 l 317 499 l 294 489 l 269 475 l 243 461 l 217 449 l 190 433 l 161 419 l 135 404 l 111 392 l 92 382 l 103 386 l 108 389 l 110 389 l 111 390 l 128 397 l 154 411 l 169 418 l 186 425 l 200 433 l 221 444 l 238 450 l 257 460 l 274 468 l 292 475 l 307 481 l 324 489 l 342 496 l 358 503 l 376 510 l 393 517 l 413 525 l 432 533 l 453 543 l 472 550 l 492 560 l 514 567 l 533 575 l 553 583 l 572 592 l 579 596 m 439 181 l 444 178 l 425 193 l 414 204 l 399 215 l 379 226 l 360 236 l 340 247 l 319 258 l 299 271 l 275 281 l 253 290 l 228 299 l 204 306 l 181 314 l 158 322 l 138 329 l 110 342 l 101 356 l 100 356 l 83 349 l 78 349 l 79 347 l 99 339 l 122 329 l 147 319 l 179 306 l 204 292 l 231 276 l 253 267 l 283 254 l 307 244 l 333 233 l 363 219 l 390 206 l 414 194 l 439 181 m 342 199 l 322 208 l 296 219 l 272 229 l 242 242 l 219 251 l 190 267 l 165 281 l 136 294 l 111 304 l 88 314 l 68 322 l 50 332 l 35 342 l 35 343 l 29 340 l 33 339 l 46 333 l 64 321 l 82 311 l 110 300 l 122 292 l 135 286 l 150 278 l 165 271 l 181 261 l 196 254 l 213 247 l 229 240 l 244 232 l 263 225 l 278 217 l 296 210 l 313 206 l 335 200 l 342 199 m 732 669 l 740 644 l 710 633 l 688 606 l 665 592 l 633 574 l 606 557 l 572 539 l 542 521 l 506 504 l 471 488 l 438 471 l 407 460 l 382 450 l 356 442 l 332 433 l 307 422 l 283 414 l 260 404 l 236 396 l 218 392 l 203 389 l 189 386 l 165 381 l 139 368 l 126 367 l 124 365 l 126 364 l 149 354 l 167 347 l 189 339 l 213 333 l 236 324 l 261 315 l 286 306 l 310 296 l 333 283 l 354 272 l 374 261 l 393 251 l 413 238 l 431 226 l 444 215 l 461 200 l 476 192 l 494 181 l 511 171 l 526 164 l 544 156 l 557 146 l 572 138 l 586 131 l 601 121 l 615 113 l 628 106 l 642 99 l 665 90 l 694 83 l 721 76 l 743 74 l 758 71 l 753 43 l 738 46 l 715 49 l 704 51 l 711 47 l 713 46 l 731 36 l 749 19 l 732 -3 l 714 10 l 697 22 l 672 38 l 660 44 l 646 51 l 631 58 l 621 63 l 611 67 l 601 71 l 586 78 l 578 82 l 556 92 l 540 97 l 524 107 l 503 115 l 485 124 l 464 131 l 447 138 l 428 146 l 413 151 l 392 157 l 372 163 l 350 169 l 329 172 l 304 178 l 288 185 l 267 192 l 251 200 l 233 207 l 218 215 l 201 222 l 185 229 l 167 236 l 151 246 l 136 253 l 124 261 l 108 267 l 96 275 l 71 286 l 50 296 l 32 308 l 14 319 l 1 343 l 25 368 l 40 379 l 58 390 l 75 404 l 97 417 l 121 429 l 147 444 l 176 458 l 203 474 l 232 486 l 256 500 l 283 514 l 303 524 l 325 538 l 350 549 l 374 560 l 394 568 l 414 575 l 433 582 l 457 590 l 481 594 l 496 599 l 517 607 l 538 611 l 556 617 l 578 625 l 596 629 l 617 638 l 633 644 l 658 651 l 676 656 l 699 658 l 732 669 z "},"=":{"ha":875,"x_min":10,"x_max":738,"o":"m 353 496 l 332 497 l 315 497 l 340 496 l 353 496 m 599 490 l 592 492 l 576 493 l 558 496 l 532 496 l 503 496 l 483 496 l 453 496 l 436 496 l 417 496 l 394 496 l 375 496 l 396 494 l 421 493 l 451 493 l 481 493 l 511 492 l 532 490 l 557 490 l 585 490 l 599 490 m 638 460 l 626 460 l 611 460 l 594 460 l 575 460 l 553 460 l 531 460 l 500 460 l 478 460 l 492 457 l 510 456 l 528 456 l 547 456 l 565 456 l 582 456 l 597 456 l 613 456 l 626 457 l 638 460 m 485 211 l 465 215 l 440 219 l 410 219 l 367 219 l 339 219 l 319 218 l 344 214 l 375 213 l 406 213 l 439 211 l 479 211 l 485 211 m 158 211 l 160 211 l 183 211 l 167 214 l 147 217 l 151 214 l 158 211 m 392 163 l 376 165 l 351 168 l 322 171 l 289 175 l 296 174 l 322 169 l 350 167 l 378 164 l 392 163 m 10 549 l 38 554 l 38 543 l 49 538 l 76 529 l 92 525 l 110 521 l 131 519 l 139 518 l 160 526 l 183 528 l 203 528 l 221 528 l 242 528 l 258 526 l 276 526 l 292 525 l 311 525 l 332 525 l 353 524 l 375 524 l 394 524 l 417 524 l 436 524 l 453 524 l 483 524 l 503 524 l 532 524 l 561 524 l 579 521 l 594 519 l 608 517 l 622 515 l 638 513 l 653 510 l 683 499 l 688 490 l 708 490 l 729 493 l 738 467 l 710 451 l 686 443 l 665 438 l 649 433 l 632 429 l 613 428 l 597 428 l 582 428 l 565 428 l 547 428 l 528 428 l 510 428 l 489 429 l 468 433 l 446 433 l 425 436 l 403 438 l 383 439 l 363 443 l 342 443 l 319 444 l 296 447 l 275 449 l 254 453 l 232 454 l 211 457 l 192 460 l 176 463 l 163 463 l 132 463 l 104 467 l 85 471 l 51 485 l 58 506 l 38 513 l 15 529 l 10 549 m 88 215 l 85 243 l 106 244 l 113 249 l 140 247 l 154 246 l 168 243 l 181 242 l 197 242 l 218 242 l 242 242 l 268 242 l 296 243 l 339 247 l 367 247 l 410 247 l 443 247 l 471 243 l 496 238 l 522 235 l 544 233 l 567 232 l 589 229 l 608 225 l 624 219 l 642 218 l 660 218 l 664 218 l 679 218 l 683 218 l 694 218 l 697 218 l 719 218 l 719 190 l 697 190 l 694 190 l 683 190 l 679 190 l 664 190 l 660 190 l 642 190 l 640 190 l 611 189 l 585 188 l 554 185 l 518 183 l 506 183 l 506 172 l 479 172 l 494 171 l 524 171 l 546 171 l 569 172 l 597 172 l 613 172 l 633 181 l 679 179 l 682 151 l 657 149 l 640 146 l 622 144 l 597 140 l 571 138 l 544 133 l 515 132 l 486 132 l 457 132 l 431 133 l 404 133 l 375 136 l 347 139 l 319 142 l 293 146 l 264 149 l 236 156 l 208 163 l 183 172 l 163 179 l 156 182 l 147 182 l 115 182 l 92 182 l 63 182 l 63 210 l 96 211 l 100 211 l 100 217 l 88 215 z "},">":{"ha":858,"x_min":-60,"x_max":719,"o":"m 186 135 l 199 140 l 238 157 l 271 172 l 251 165 l 221 158 l 196 150 l 171 140 l 142 132 l 139 131 l 154 132 l 186 135 m 172 92 l 194 103 l 179 99 l 149 88 l 118 72 l 89 60 l 79 56 l 64 49 l 69 50 l 88 58 l 110 68 l 136 78 l 161 88 l 172 92 m -60 722 l -35 733 l -28 714 l -19 708 l -1 696 l 18 682 l 39 667 l 64 647 l 67 644 l 72 653 l 86 650 l 101 647 l 119 644 l 144 640 l 168 635 l 197 629 l 224 619 l 247 608 l 269 599 l 297 588 l 326 572 l 354 554 l 379 538 l 404 524 l 431 508 l 457 492 l 483 474 l 506 460 l 528 447 l 551 435 l 568 425 l 590 415 l 614 406 l 638 392 l 658 381 l 678 371 l 692 365 l 714 354 l 706 336 l 719 332 l 719 304 l 686 292 l 653 282 l 629 272 l 615 268 l 574 242 l 529 217 l 486 196 l 440 176 l 404 165 l 365 150 l 358 147 l 333 138 l 328 135 l 282 113 l 278 111 l 269 106 l 236 89 l 203 75 l 183 67 l 168 60 l 133 43 l 99 28 l 75 17 l 51 15 l 46 43 l 56 46 l 28 43 l 22 71 l 44 76 l 60 79 l 68 82 l 72 83 l 99 96 l 101 97 l 93 96 l 71 94 l 43 92 l 38 119 l 63 125 l 83 135 l 108 147 l 131 157 l 163 168 l 188 175 l 213 186 l 243 193 l 279 203 l 317 217 l 353 232 l 388 246 l 424 254 l 450 257 l 463 258 l 465 260 l 500 275 l 532 288 l 564 303 l 593 315 l 611 324 l 631 331 l 632 329 l 635 331 l 646 335 l 636 340 l 613 350 l 585 361 l 553 375 l 521 389 l 486 404 l 450 419 l 414 435 l 374 450 l 338 465 l 296 485 l 250 504 l 213 519 l 178 535 l 143 553 l 115 572 l 89 593 l 76 607 l 72 608 l 47 625 l 22 644 l 1 660 l -18 674 l -36 686 l -50 697 l -60 722 m 415 485 l 390 499 l 365 515 l 340 532 l 313 547 l 286 563 l 258 574 l 236 583 l 213 594 l 189 601 l 163 607 l 139 613 l 115 617 l 139 603 l 168 590 l 197 578 l 228 563 l 258 549 l 289 533 l 321 519 l 353 507 l 385 493 l 415 485 z "},"?":{"ha":917,"x_min":94,"x_max":779,"o":"m 376 274 l 376 276 l 385 297 l 390 313 l 399 339 l 408 358 l 418 378 l 429 403 l 435 417 l 447 443 l 451 451 l 442 440 l 433 429 l 421 411 l 407 394 l 396 378 l 386 361 l 381 347 l 374 332 l 369 317 l 363 296 l 358 275 l 356 263 l 354 246 l 356 247 l 368 263 l 376 274 m 456 394 l 472 417 l 486 435 l 494 450 l 510 471 l 519 483 l 528 496 l 546 519 l 554 532 l 564 544 l 572 557 l 581 568 l 585 576 l 572 565 l 558 556 l 547 544 l 535 532 l 535 531 l 524 517 l 513 494 l 496 474 l 486 454 l 479 442 l 472 429 l 460 406 l 456 394 m 369 221 l 364 217 l 350 204 l 325 214 l 325 229 l 326 246 l 328 265 l 331 281 l 335 301 l 342 325 l 349 343 l 356 358 l 361 375 l 374 392 l 385 411 l 399 428 l 411 446 l 419 457 l 429 468 l 440 482 l 461 501 l 471 513 l 481 524 l 504 543 l 514 551 l 517 554 l 526 567 l 536 579 l 547 593 l 558 606 l 569 621 l 585 638 l 599 650 l 611 663 l 625 675 l 636 685 l 651 700 l 664 713 l 674 726 l 689 742 l 703 758 l 703 760 l 710 783 l 715 804 l 717 822 l 717 843 l 717 864 l 714 881 l 707 896 l 697 914 l 688 926 l 678 938 l 664 950 l 653 963 l 639 975 l 626 985 l 608 996 l 592 1006 l 575 1014 l 556 1019 l 531 1028 l 521 1031 l 506 1031 l 483 1031 l 460 1031 l 440 1029 l 419 1028 l 400 1024 l 378 1018 l 357 1014 l 336 1007 l 314 1000 l 294 992 l 272 981 l 256 975 l 236 967 l 219 960 l 204 951 l 197 947 l 193 943 l 181 929 l 171 913 l 165 894 l 165 876 l 167 853 l 175 828 l 182 814 l 190 800 l 197 788 l 206 778 l 224 763 l 242 757 l 251 757 l 272 760 l 296 774 l 319 750 l 311 729 l 301 714 l 289 700 l 275 688 l 253 679 l 231 676 l 228 676 l 226 676 l 229 665 l 211 661 l 190 661 l 168 663 l 147 679 l 136 699 l 125 715 l 115 732 l 106 754 l 99 778 l 96 793 l 94 819 l 94 833 l 94 849 l 94 867 l 103 888 l 111 904 l 118 919 l 128 936 l 143 953 l 157 965 l 171 971 l 188 981 l 201 990 l 203 990 l 204 992 l 224 1004 l 243 1018 l 267 1029 l 285 1036 l 307 1043 l 329 1050 l 354 1056 l 363 1057 l 364 1058 l 385 1063 l 403 1067 l 425 1069 l 444 1071 l 467 1072 l 488 1072 l 510 1072 l 531 1072 l 551 1071 l 568 1068 l 590 1063 l 607 1056 l 625 1050 l 643 1042 l 661 1035 l 675 1024 l 689 1014 l 693 1011 l 699 1007 l 710 999 l 724 986 l 728 981 l 728 979 l 736 967 l 744 956 l 761 932 l 771 904 l 776 889 l 778 865 l 779 849 l 779 833 l 779 815 l 774 785 l 765 769 l 760 754 l 747 740 l 738 726 l 726 713 l 715 699 l 704 685 l 693 674 l 683 667 l 675 656 l 667 643 l 658 631 l 649 618 l 638 604 l 629 593 l 621 578 l 611 567 l 603 554 l 594 540 l 586 528 l 576 515 l 568 503 l 550 479 l 542 467 l 532 454 l 517 433 l 508 421 l 494 400 l 478 379 l 472 367 l 460 346 l 451 333 l 436 311 l 425 294 l 413 275 l 401 261 l 399 244 l 393 217 l 369 221 m 643 1007 l 656 997 l 672 982 l 683 969 l 697 957 l 710 943 l 719 928 l 724 924 l 721 931 l 711 953 l 706 963 l 696 972 l 685 982 l 676 989 l 671 993 l 657 1000 l 643 1007 m 282 735 l 254 729 l 236 729 l 210 738 l 186 758 l 175 771 l 165 786 l 157 800 l 150 817 l 139 847 l 138 876 l 138 881 l 136 878 l 132 864 l 129 840 l 129 814 l 135 792 l 139 771 l 150 756 l 160 743 l 169 732 l 186 717 l 200 707 l 213 704 l 228 704 l 247 707 l 261 713 l 269 719 l 279 731 l 282 735 m 290 150 l 294 158 l 304 154 l 319 158 l 336 161 l 356 164 l 376 164 l 390 164 l 407 164 l 425 163 l 444 149 l 454 132 l 464 114 l 469 96 l 469 81 l 469 63 l 468 46 l 465 28 l 464 4 l 446 -12 l 424 -14 l 406 -14 l 383 -14 l 368 -11 l 356 -8 l 342 -8 l 325 -8 l 299 -4 l 279 13 l 278 35 l 279 56 l 281 71 l 285 92 l 286 104 l 286 124 l 286 142 l 288 144 l 286 150 l 290 150 m 317 33 l 329 51 l 331 56 l 306 31 l 304 24 l 310 21 l 328 19 l 335 19 l 317 33 m 400 119 l 413 117 l 429 100 l 433 104 l 432 111 l 428 118 l 417 121 l 404 121 l 400 119 m 374 99 l 367 94 l 364 90 l 365 89 l 365 88 l 374 93 l 397 79 l 397 71 l 401 72 l 403 81 l 404 89 l 399 92 l 383 96 l 374 99 m 367 129 l 374 136 l 358 136 l 342 133 l 325 131 l 314 128 l 314 124 l 314 104 l 313 89 l 311 82 l 321 96 l 347 125 l 351 119 l 354 133 l 367 129 m 408 38 l 382 17 l 360 33 l 367 47 l 364 49 l 358 42 l 342 19 l 358 19 l 374 17 l 386 14 l 406 14 l 424 14 l 435 13 l 439 15 l 438 31 l 440 49 l 442 63 l 442 71 l 440 69 l 431 58 l 436 50 l 433 22 l 410 17 l 408 38 z "},"@":{"ha":1344,"x_min":140,"x_max":1207,"o":"m 476 504 l 475 496 l 475 478 l 475 457 l 475 439 l 478 419 l 481 401 l 485 382 l 489 365 l 494 349 l 501 332 l 508 315 l 515 303 l 521 294 l 526 290 l 539 288 l 558 288 l 576 288 l 564 292 l 546 301 l 533 315 l 524 331 l 514 347 l 507 363 l 499 385 l 496 403 l 490 426 l 486 446 l 482 465 l 478 488 l 476 504 m 819 451 l 819 443 l 819 417 l 819 414 l 831 436 l 842 456 l 851 476 l 857 499 l 861 518 l 867 542 l 868 560 l 871 582 l 871 601 l 872 618 l 874 642 l 875 663 l 869 651 l 864 628 l 857 607 l 851 588 l 851 578 l 851 560 l 849 540 l 846 519 l 840 500 l 833 483 l 825 461 l 819 451 m 633 279 l 632 278 l 610 268 l 585 260 l 558 260 l 550 260 l 560 254 l 572 250 l 601 246 l 619 246 l 638 246 l 658 250 l 678 260 l 699 271 l 714 281 l 733 292 l 743 301 l 753 313 l 763 326 l 772 339 l 772 340 l 772 342 l 774 363 l 776 385 l 778 390 l 772 383 l 764 371 l 750 356 l 731 335 l 719 325 l 701 307 l 681 293 l 661 283 l 636 279 l 633 279 m 1029 310 l 1018 301 l 999 290 l 982 278 l 967 271 l 957 267 l 969 267 l 981 271 l 994 276 l 1004 285 l 1019 299 l 1029 310 m 1176 647 l 1176 643 l 1176 621 l 1176 599 l 1175 575 l 1171 553 l 1168 533 l 1165 522 l 1168 529 l 1174 550 l 1178 569 l 1179 590 l 1179 611 l 1179 635 l 1176 647 m 856 322 l 872 314 l 886 307 l 899 303 l 917 301 l 936 301 l 953 301 l 967 306 l 978 313 l 997 326 l 1007 338 l 1018 347 l 1029 360 l 1042 376 l 1049 389 l 1060 410 l 1071 429 l 1078 443 l 1082 458 l 1086 475 l 1088 490 l 1093 508 l 1097 533 l 1101 551 l 1107 574 l 1108 593 l 1111 613 l 1114 633 l 1115 653 l 1115 675 l 1115 696 l 1115 715 l 1115 735 l 1114 750 l 1111 767 l 1106 785 l 1101 807 l 1093 824 l 1086 838 l 1076 850 l 1071 858 l 1060 871 l 1044 886 l 1028 901 l 1008 914 l 992 928 l 985 932 l 978 936 l 960 942 l 944 946 l 928 950 l 911 956 l 899 958 l 883 961 l 869 964 l 853 967 l 840 969 l 826 969 l 807 971 l 792 972 l 776 974 l 757 974 l 738 974 l 718 974 l 696 974 l 676 969 l 651 964 l 628 958 l 610 954 l 585 947 l 569 939 l 547 925 l 525 913 l 503 900 l 478 882 l 460 868 l 438 851 l 419 835 l 401 817 l 385 799 l 368 775 l 353 756 l 338 736 l 325 717 l 314 696 l 301 675 l 290 654 l 281 635 l 276 611 l 269 590 l 263 567 l 257 546 l 254 524 l 250 497 l 246 478 l 243 450 l 242 424 l 242 397 l 242 372 l 242 349 l 244 324 l 250 303 l 256 279 l 265 258 l 274 236 l 283 217 l 296 201 l 308 183 l 322 169 l 338 153 l 353 135 l 369 121 l 385 107 l 401 96 l 419 88 l 439 78 l 457 69 l 479 63 l 500 56 l 522 50 l 536 46 l 550 44 l 568 40 l 590 39 l 621 39 l 621 33 l 625 33 l 646 32 l 664 31 l 685 31 l 706 31 l 722 31 l 743 31 l 763 31 l 778 31 l 796 31 l 810 31 l 821 32 l 853 39 l 879 44 l 894 49 l 919 57 l 933 63 l 947 69 l 961 75 l 975 81 l 997 93 l 1015 106 l 1036 121 l 1049 131 l 1067 146 l 1085 160 l 1100 171 l 1106 175 l 1108 178 l 1124 192 l 1135 203 l 1149 219 l 1171 203 l 1156 179 l 1142 169 l 1131 158 l 1124 153 l 1114 143 l 1096 126 l 1081 110 l 1057 93 l 1044 82 l 1025 69 l 1008 58 l 992 50 l 974 42 l 954 33 l 936 28 l 919 21 l 900 15 l 885 11 l 867 10 l 833 4 l 814 3 l 810 3 l 796 1 l 779 -1 l 765 -3 l 750 -4 l 721 -6 l 694 -8 l 679 -8 l 664 -8 l 649 -8 l 635 -8 l 619 -8 l 604 -8 l 586 -7 l 567 -3 l 553 1 l 535 4 l 518 10 l 501 15 l 485 22 l 469 29 l 468 31 l 453 32 l 436 38 l 421 44 l 407 50 l 389 57 l 375 67 l 360 74 l 346 83 l 331 93 l 317 107 l 303 119 l 292 129 l 279 143 l 265 156 l 249 172 l 239 186 l 226 204 l 215 222 l 204 243 l 196 263 l 186 283 l 179 306 l 171 326 l 161 343 l 156 363 l 149 378 l 144 396 l 142 415 l 140 433 l 140 451 l 140 471 l 140 488 l 143 507 l 144 528 l 147 549 l 150 569 l 154 589 l 160 608 l 164 628 l 174 651 l 181 668 l 192 688 l 200 701 l 211 718 l 224 736 l 235 751 l 246 765 l 256 778 l 267 793 l 282 810 l 297 824 l 314 839 l 331 850 l 349 864 l 365 875 l 385 886 l 399 896 l 410 903 l 414 908 l 432 919 l 451 933 l 469 944 l 483 954 l 503 964 l 518 972 l 535 982 l 551 989 l 569 996 l 588 1003 l 607 1010 l 631 1017 l 649 1021 l 672 1026 l 692 1031 l 711 1033 l 732 1036 l 753 1036 l 772 1036 l 788 1036 l 808 1036 l 826 1036 l 844 1036 l 861 1033 l 876 1031 l 892 1025 l 908 1019 l 922 1014 l 936 1008 l 953 1003 l 967 997 l 981 990 l 994 981 l 1019 964 l 1032 951 l 1044 940 l 1061 928 l 1076 911 l 1090 896 l 1106 881 l 1119 865 l 1132 847 l 1143 829 l 1156 810 l 1164 789 l 1169 768 l 1171 761 l 1178 743 l 1186 721 l 1194 699 l 1199 678 l 1203 657 l 1207 638 l 1207 611 l 1207 590 l 1206 567 l 1201 544 l 1193 518 l 1182 494 l 1169 465 l 1153 431 l 1133 403 l 1117 378 l 1099 353 l 1082 332 l 1068 313 l 1054 294 l 1039 279 l 1024 265 l 1008 251 l 992 246 l 975 239 l 954 239 l 938 239 l 921 239 l 903 240 l 883 246 l 867 254 l 850 265 l 838 279 l 825 293 l 815 313 l 808 331 l 804 338 l 803 315 l 797 294 l 776 297 l 775 296 l 763 282 l 750 269 l 728 256 l 713 246 l 689 235 l 667 225 l 640 218 l 619 218 l 599 218 l 567 222 l 549 229 l 533 238 l 521 249 l 510 263 l 501 274 l 494 278 l 474 294 l 461 318 l 451 343 l 440 368 l 432 385 l 432 401 l 432 417 l 432 432 l 432 447 l 432 467 l 433 486 l 436 507 l 440 524 l 446 542 l 453 558 l 458 576 l 469 596 l 478 613 l 488 633 l 499 654 l 510 672 l 524 688 l 535 700 l 538 704 l 544 714 l 558 735 l 569 753 l 583 768 l 594 782 l 615 796 l 639 796 l 656 796 l 681 792 l 708 782 l 721 778 l 739 769 l 753 754 l 754 754 l 754 753 l 767 742 l 779 731 l 792 717 l 801 704 l 813 694 l 824 679 l 835 665 l 840 650 l 844 660 l 851 678 l 858 697 l 863 715 l 868 733 l 874 749 l 878 778 l 906 775 l 906 747 l 906 729 l 906 711 l 906 690 l 903 661 l 901 639 l 900 615 l 899 601 l 899 579 l 896 557 l 894 539 l 889 513 l 885 493 l 876 468 l 867 444 l 856 422 l 842 396 l 824 369 l 825 357 l 833 342 l 840 324 l 847 311 l 856 322 m 1110 450 l 1114 460 l 1119 474 l 1126 490 l 1131 504 l 1135 521 l 1140 539 l 1143 558 l 1147 578 l 1149 599 l 1149 621 l 1149 643 l 1149 663 l 1149 682 l 1147 700 l 1146 722 l 1144 744 l 1143 753 l 1143 754 l 1140 760 l 1142 753 l 1143 735 l 1143 715 l 1143 696 l 1143 675 l 1143 653 l 1142 631 l 1139 610 l 1136 590 l 1135 568 l 1129 546 l 1125 528 l 1121 503 l 1115 485 l 1114 469 l 1110 450 m 426 882 l 421 875 l 403 860 l 385 844 l 367 829 l 351 813 l 331 790 l 311 771 l 293 753 l 278 735 l 261 715 l 249 703 l 239 692 l 229 679 l 222 665 l 215 650 l 210 633 l 201 615 l 197 599 l 192 582 l 188 563 l 186 546 l 186 526 l 186 507 l 188 486 l 188 467 l 189 446 l 192 426 l 196 406 l 200 386 l 203 365 l 208 347 l 213 331 l 217 324 l 214 346 l 214 372 l 214 397 l 214 424 l 215 453 l 218 481 l 222 503 l 226 526 l 229 551 l 235 575 l 242 599 l 249 619 l 256 643 l 265 665 l 276 689 l 289 710 l 300 731 l 315 753 l 331 772 l 346 792 l 363 815 l 382 836 l 400 854 l 421 874 l 443 890 l 431 883 l 426 882 m 689 751 l 661 749 l 661 756 l 642 751 l 619 739 l 610 729 l 593 714 l 578 701 l 565 689 l 556 676 l 550 669 l 538 650 l 521 624 l 518 617 l 511 601 l 507 585 l 504 572 l 504 558 l 504 542 l 504 526 l 504 507 l 506 490 l 510 471 l 514 451 l 518 432 l 524 408 l 526 390 l 532 374 l 539 358 l 546 344 l 556 332 l 563 324 l 575 317 l 597 310 l 622 307 l 625 307 l 640 317 l 651 325 l 667 338 l 681 349 l 692 358 l 704 368 l 715 381 l 728 393 l 738 406 l 747 418 l 754 433 l 761 446 l 771 465 l 781 485 l 789 506 l 789 510 l 793 538 l 796 554 l 797 571 l 799 588 l 799 601 l 797 613 l 793 624 l 786 638 l 775 664 l 764 688 l 756 700 l 747 719 l 735 733 l 724 743 l 713 749 l 699 756 l 697 756 l 689 756 l 689 751 z "},"A":{"ha":1083,"x_min":36,"x_max":946,"o":"m 224 389 l 228 397 l 231 413 l 239 431 l 244 449 l 253 468 l 260 485 l 267 503 l 274 519 l 278 536 l 283 554 l 289 571 l 294 588 l 299 604 l 301 618 l 304 638 l 308 654 l 313 671 l 318 686 l 324 703 l 331 718 l 333 733 l 342 757 l 343 761 l 339 754 l 333 739 l 328 722 l 322 706 l 317 689 l 311 672 l 304 658 l 296 640 l 290 625 l 281 608 l 275 594 l 271 581 l 267 564 l 261 543 l 256 525 l 249 504 l 240 483 l 235 461 l 229 438 l 222 414 l 215 396 l 214 392 l 218 390 l 224 389 m 601 361 l 599 374 l 597 389 l 594 399 l 590 413 l 589 419 l 586 428 l 582 446 l 581 450 l 581 451 l 579 454 l 574 475 l 567 497 l 560 521 l 551 543 l 542 567 l 535 590 l 529 614 l 526 628 l 521 650 l 515 672 l 508 696 l 501 719 l 496 742 l 492 764 l 490 778 l 486 796 l 483 807 l 476 826 l 467 849 l 458 864 l 451 881 l 439 908 l 432 924 l 431 926 l 431 921 l 424 910 l 415 894 l 406 871 l 396 847 l 392 832 l 386 818 l 383 806 l 381 790 l 372 767 l 369 751 l 361 725 l 356 710 l 349 694 l 346 678 l 340 663 l 336 646 l 332 632 l 329 613 l 326 599 l 322 579 l 314 563 l 311 546 l 306 528 l 299 511 l 292 492 l 285 474 l 278 457 l 269 438 l 264 422 l 258 404 l 253 389 l 251 382 l 264 378 l 286 372 l 308 368 l 329 364 l 343 363 l 361 361 l 385 357 l 403 354 l 421 351 l 438 350 l 456 349 l 475 349 l 494 349 l 514 349 l 531 349 l 547 349 l 563 350 l 576 353 l 590 357 l 601 361 m 82 360 l 74 335 l 47 344 l 36 374 l 42 403 l 72 419 l 93 425 l 117 425 l 140 422 l 161 411 l 179 403 l 188 400 l 190 404 l 194 422 l 201 446 l 207 469 l 215 492 l 224 513 l 228 533 l 233 551 l 239 569 l 243 589 l 250 606 l 256 619 l 265 636 l 271 651 l 279 669 l 286 683 l 292 697 l 297 714 l 303 731 l 308 747 l 314 765 l 324 783 l 329 801 l 336 817 l 342 832 l 350 849 l 356 863 l 361 879 l 367 896 l 374 913 l 382 929 l 394 947 l 410 963 l 431 967 l 454 963 l 469 949 l 479 935 l 486 917 l 493 897 l 499 881 l 501 860 l 504 842 l 510 822 l 514 804 l 517 793 l 524 772 l 533 754 l 542 733 l 549 713 l 556 693 l 558 674 l 564 656 l 567 639 l 569 624 l 572 607 l 575 593 l 579 576 l 583 561 l 589 546 l 593 528 l 597 510 l 600 493 l 604 475 l 607 458 l 608 453 l 614 436 l 615 426 l 619 414 l 621 406 l 624 397 l 624 394 l 625 392 l 633 369 l 643 346 l 649 324 l 656 304 l 664 281 l 672 258 l 678 238 l 682 217 l 692 194 l 701 176 l 710 158 l 718 144 l 726 131 l 733 118 l 744 103 l 753 90 l 764 76 l 774 65 l 786 53 l 801 42 l 815 33 l 825 29 l 836 29 l 847 28 l 854 35 l 864 44 l 869 60 l 874 74 l 875 89 l 875 103 l 875 110 l 867 113 l 881 138 l 897 126 l 903 106 l 903 89 l 901 68 l 894 49 l 886 31 l 874 15 l 858 3 l 836 1 l 819 1 l 801 8 l 785 19 l 769 31 l 754 46 l 742 60 l 731 74 l 722 86 l 711 101 l 701 117 l 693 131 l 685 147 l 676 165 l 671 175 l 672 169 l 676 154 l 686 131 l 696 106 l 707 88 l 717 71 l 725 58 l 735 42 l 747 28 l 763 17 l 779 1 l 792 -11 l 807 -18 l 825 -22 l 842 -24 l 853 -24 l 874 -17 l 883 -11 l 903 4 l 911 14 l 917 22 l 918 38 l 918 47 l 913 57 l 903 64 l 922 86 l 935 74 l 946 56 l 946 35 l 942 14 l 933 -3 l 922 -15 l 900 -33 l 885 -42 l 858 -51 l 842 -51 l 819 -50 l 799 -43 l 778 -33 l 760 -21 l 743 -6 l 728 8 l 713 25 l 703 44 l 694 54 l 682 74 l 671 94 l 661 119 l 651 146 l 644 164 l 642 179 l 638 193 l 635 207 l 631 224 l 628 240 l 624 256 l 621 269 l 617 285 l 613 299 l 608 317 l 606 333 l 599 329 l 582 325 l 565 322 l 547 321 l 531 321 l 514 321 l 494 321 l 475 321 l 456 321 l 435 322 l 418 324 l 400 326 l 379 329 l 358 333 l 340 335 l 326 336 l 303 340 l 281 344 l 256 350 l 240 356 l 235 342 l 228 326 l 224 314 l 217 286 l 207 260 l 197 233 l 189 210 l 179 189 l 169 168 l 158 146 l 149 128 l 140 106 l 133 86 l 126 65 l 118 49 l 108 33 l 96 15 l 75 7 l 56 28 l 63 44 l 81 39 l 86 47 l 93 63 l 101 76 l 108 94 l 115 114 l 124 139 l 133 160 l 144 179 l 154 200 l 164 221 l 172 242 l 182 268 l 189 294 l 196 322 l 203 338 l 210 353 l 214 363 l 213 363 l 204 365 l 203 358 l 196 339 l 186 321 l 179 306 l 169 289 l 161 274 l 156 258 l 147 242 l 140 226 l 135 213 l 124 193 l 115 172 l 108 153 l 104 138 l 100 124 l 97 108 l 93 86 l 88 68 l 75 49 l 53 65 l 63 79 l 65 92 l 69 114 l 72 129 l 76 146 l 83 161 l 90 181 l 99 204 l 110 224 l 115 238 l 122 253 l 131 269 l 136 285 l 144 303 l 154 319 l 161 335 l 171 350 l 175 367 l 178 374 l 168 378 l 150 386 l 132 394 l 114 397 l 96 397 l 81 394 l 64 386 l 64 376 l 67 364 l 82 360 z "},"B":{"ha":917,"x_min":35,"x_max":778,"o":"m 104 553 l 100 546 l 100 536 l 104 532 l 104 536 l 104 550 l 104 553 m 722 756 l 725 761 l 731 782 l 735 801 l 735 822 l 735 843 l 735 861 l 731 876 l 725 892 l 717 906 l 706 919 l 694 933 l 679 949 l 664 961 l 647 972 l 636 982 l 621 989 l 604 997 l 590 1001 l 572 1007 l 556 1008 l 535 1008 l 515 1008 l 496 1008 l 475 1008 l 457 1007 l 439 1006 l 424 1004 l 406 1000 l 388 997 l 367 993 l 350 988 l 329 982 l 313 976 l 324 978 l 338 982 l 363 983 l 379 985 l 394 985 l 408 985 l 435 986 l 449 986 l 475 986 l 503 982 l 531 972 l 557 961 l 581 950 l 600 938 l 621 925 l 633 917 l 654 900 l 668 886 l 679 876 l 692 861 l 707 839 l 714 817 l 718 799 l 721 778 l 722 756 m 374 28 l 394 28 l 421 29 l 444 29 l 467 31 l 489 33 l 504 35 l 524 38 l 540 39 l 556 44 l 571 49 l 585 53 l 600 60 l 614 68 l 629 75 l 642 81 l 656 93 l 669 103 l 676 108 l 660 103 l 636 92 l 610 82 l 585 75 l 560 67 l 542 61 l 524 57 l 504 54 l 490 50 l 471 46 l 454 42 l 436 38 l 419 35 l 403 32 l 383 29 l 374 28 m 133 515 l 133 526 l 133 549 l 133 553 l 132 553 l 132 550 l 132 536 l 132 521 l 132 517 l 133 515 m 161 511 l 172 511 l 194 511 l 221 514 l 233 515 l 250 519 l 265 522 l 279 525 l 304 531 l 296 532 l 269 535 l 256 536 l 235 538 l 214 539 l 197 542 l 178 544 l 161 550 l 161 549 l 161 526 l 161 511 m 215 917 l 214 915 l 206 901 l 199 889 l 190 874 l 182 858 l 178 840 l 172 821 l 167 801 l 163 783 l 161 763 l 160 743 l 160 722 l 160 699 l 160 685 l 160 671 l 160 657 l 160 643 l 160 615 l 160 590 l 160 578 l 164 578 l 183 572 l 203 569 l 217 567 l 238 565 l 258 564 l 272 563 l 299 560 l 317 557 l 329 556 l 347 556 l 361 553 l 375 551 l 390 550 l 397 549 l 400 550 l 414 551 l 433 557 l 457 564 l 475 571 l 489 576 l 507 583 l 528 594 l 547 604 l 567 614 l 578 621 l 579 621 l 585 624 l 603 636 l 619 647 l 636 657 l 644 664 l 656 672 l 658 675 l 668 685 l 681 700 l 690 717 l 694 733 l 694 754 l 693 775 l 690 793 l 686 811 l 682 828 l 669 844 l 660 857 l 649 867 l 635 881 l 617 894 l 607 903 l 586 913 l 567 925 l 546 936 l 519 947 l 497 954 l 472 958 l 449 958 l 435 958 l 408 957 l 394 957 l 379 957 l 365 956 l 343 954 l 329 950 l 304 947 l 283 943 l 265 939 l 249 932 l 231 925 l 215 917 m 186 71 l 161 60 l 153 75 l 151 100 l 151 118 l 149 138 l 147 151 l 144 175 l 143 199 l 142 214 l 142 236 l 142 264 l 140 285 l 140 310 l 139 332 l 138 356 l 136 378 l 135 400 l 135 422 l 133 446 l 133 467 l 133 488 l 132 488 l 132 476 l 132 463 l 132 447 l 132 432 l 132 417 l 132 403 l 132 389 l 132 375 l 132 360 l 132 336 l 132 321 l 132 297 l 132 271 l 132 247 l 132 232 l 132 217 l 132 203 l 132 179 l 132 165 l 132 142 l 132 119 l 133 106 l 136 83 l 142 68 l 117 57 l 108 78 l 106 103 l 104 119 l 104 142 l 104 165 l 104 179 l 104 203 l 104 217 l 104 232 l 104 247 l 104 271 l 104 297 l 104 321 l 104 336 l 104 360 l 104 375 l 104 389 l 104 403 l 104 417 l 104 432 l 104 447 l 104 463 l 104 476 l 104 492 l 104 496 l 89 507 l 75 528 l 72 551 l 88 575 l 104 579 l 104 581 l 104 596 l 106 611 l 106 626 l 107 642 l 107 657 l 110 671 l 111 692 l 111 708 l 114 732 l 117 756 l 119 776 l 122 796 l 125 815 l 129 835 l 133 853 l 140 869 l 147 885 l 157 903 l 168 915 l 185 928 l 197 939 l 208 949 l 221 957 l 233 967 l 246 976 l 267 986 l 283 993 l 301 1001 l 321 1010 l 342 1015 l 361 1021 l 382 1025 l 400 1028 l 418 1032 l 436 1033 l 454 1035 l 475 1036 l 496 1036 l 515 1036 l 535 1036 l 556 1036 l 578 1035 l 599 1029 l 615 1022 l 632 1014 l 650 1004 l 664 994 l 681 983 l 699 968 l 714 953 l 728 936 l 739 922 l 750 903 l 756 885 l 763 867 l 763 843 l 763 822 l 763 799 l 758 776 l 750 750 l 738 728 l 724 707 l 710 686 l 692 667 l 675 653 l 669 647 l 663 642 l 657 638 l 639 626 l 621 615 l 607 606 l 593 597 l 592 596 l 581 589 l 579 589 l 574 585 l 557 576 l 542 568 l 526 561 l 511 554 l 499 547 l 485 540 l 469 536 l 461 532 l 475 531 l 492 524 l 500 521 l 506 519 l 526 515 l 542 513 l 563 507 l 579 500 l 599 490 l 613 482 l 628 471 l 646 460 l 661 449 l 678 435 l 686 428 l 692 424 l 699 415 l 706 410 l 719 396 l 729 382 l 740 371 l 749 358 l 760 342 l 767 322 l 772 304 l 776 283 l 778 263 l 778 243 l 778 225 l 778 204 l 771 186 l 763 172 l 754 160 l 747 150 l 739 136 l 728 121 l 715 107 l 701 94 l 686 81 l 672 71 l 656 58 l 640 50 l 628 43 l 611 35 l 596 28 l 579 21 l 564 17 l 546 11 l 526 10 l 507 7 l 492 6 l 469 3 l 444 1 l 421 1 l 394 0 l 365 0 l 349 0 l 333 -1 l 317 -1 l 297 -1 l 278 -1 l 263 -1 l 247 -1 l 231 -1 l 231 17 l 218 17 l 203 15 l 185 15 l 168 15 l 153 15 l 136 15 l 121 17 l 104 17 l 79 26 l 60 40 l 46 57 l 36 81 l 35 101 l 38 122 l 67 139 l 103 139 l 103 111 l 72 111 l 60 108 l 63 101 l 64 86 l 71 71 l 79 60 l 93 51 l 110 44 l 121 44 l 136 43 l 153 43 l 168 43 l 185 43 l 203 43 l 218 44 l 233 44 l 253 44 l 271 46 l 292 47 l 310 49 l 331 50 l 344 53 l 364 54 l 378 57 l 397 60 l 414 63 l 431 65 l 449 69 l 465 74 l 485 78 l 499 82 l 518 85 l 533 89 l 551 94 l 576 103 l 601 110 l 625 117 l 649 128 l 667 135 l 682 143 l 696 151 l 708 163 l 721 176 l 731 192 l 739 208 l 740 225 l 740 249 l 739 269 l 735 290 l 731 313 l 721 333 l 713 354 l 700 374 l 692 383 l 679 396 l 672 401 l 667 406 l 651 418 l 628 435 l 614 442 l 597 450 l 583 458 l 569 465 l 554 472 l 539 478 l 526 483 l 511 486 l 494 493 l 492 494 l 478 497 l 456 503 l 439 506 l 425 507 l 408 510 l 388 513 l 388 518 l 365 513 l 339 507 l 322 504 l 310 503 l 285 497 l 271 494 l 256 492 l 239 488 l 224 486 l 197 483 l 172 483 l 161 483 l 161 467 l 161 446 l 163 422 l 163 400 l 164 381 l 165 358 l 167 335 l 168 310 l 168 285 l 169 264 l 169 236 l 169 214 l 171 201 l 172 178 l 175 154 l 176 140 l 179 121 l 179 100 l 181 83 l 186 71 z "},"C":{"ha":1114,"x_min":-135,"x_max":975,"o":"m 782 865 l 776 857 l 765 836 l 760 822 l 751 800 l 750 782 l 750 760 l 751 747 l 757 731 l 761 714 l 769 701 l 776 689 l 783 679 l 793 672 l 806 674 l 817 675 l 822 683 l 831 696 l 833 711 l 833 731 l 831 751 l 826 772 l 819 796 l 813 818 l 803 838 l 792 854 l 782 865 m 800 321 l 800 322 l 799 335 l 817 336 l 818 338 l 819 338 l 826 338 l 828 328 l 838 318 l 828 308 l 828 294 l 826 275 l 819 258 l 811 242 l 801 225 l 792 208 l 779 186 l 760 164 l 749 150 l 738 139 l 726 128 l 703 108 l 692 100 l 679 92 l 658 78 l 638 64 l 618 53 l 592 39 l 571 31 l 546 21 l 524 17 l 503 11 l 476 7 l 449 7 l 424 6 l 410 6 l 396 6 l 371 6 l 344 7 l 328 13 l 304 22 l 276 33 l 265 43 l 240 56 l 214 72 l 203 85 l 182 104 l 168 115 l 147 139 l 142 150 l 140 147 l 133 133 l 126 117 l 113 97 l 104 86 l 89 69 l 72 57 l 57 44 l 39 33 l 21 21 l 4 13 l -12 6 l -31 1 l -49 1 l -64 1 l -86 7 l -104 18 l -119 35 l -128 53 l -133 78 l -135 94 l -132 118 l -93 129 l -87 101 l -110 101 l -107 94 l -106 81 l -103 61 l -97 51 l -87 40 l -75 32 l -61 29 l -49 29 l -33 29 l -21 33 l -7 38 l 7 46 l 25 56 l 40 67 l 56 79 l 69 89 l 82 103 l 90 114 l 101 131 l 108 144 l 115 158 l 119 172 l 121 181 l 114 192 l 104 207 l 96 222 l 88 236 l 81 253 l 75 268 l 71 285 l 65 299 l 56 328 l 53 342 l 50 358 l 49 374 l 47 393 l 46 413 l 46 432 l 46 447 l 46 464 l 46 485 l 46 501 l 47 522 l 49 542 l 51 561 l 54 578 l 57 599 l 61 615 l 65 631 l 71 649 l 75 664 l 82 681 l 89 696 l 96 711 l 104 729 l 115 747 l 124 763 l 133 778 l 143 792 l 153 807 l 165 819 l 176 832 l 188 843 l 199 854 l 219 875 l 233 885 l 244 894 l 258 904 l 275 915 l 289 924 l 304 932 l 325 942 l 344 951 l 367 961 l 392 972 l 418 978 l 440 983 l 465 988 l 489 989 l 514 990 l 524 990 l 529 992 l 544 994 l 563 997 l 564 990 l 572 990 l 588 990 l 607 988 l 624 983 l 638 981 l 653 975 l 668 969 l 696 961 l 719 949 l 733 940 l 757 925 l 779 906 l 782 903 l 783 904 l 794 913 l 813 925 l 835 936 l 860 939 l 885 940 l 901 940 l 922 940 l 949 938 l 975 918 l 958 896 l 938 913 l 922 913 l 901 913 l 885 913 l 863 911 l 843 908 l 826 900 l 811 890 l 803 883 l 814 871 l 828 851 l 838 829 l 847 804 l 854 778 l 858 757 l 861 733 l 861 708 l 856 685 l 844 667 l 833 653 l 811 646 l 785 644 l 764 660 l 754 672 l 744 688 l 736 703 l 729 722 l 724 742 l 722 760 l 722 782 l 724 806 l 735 833 l 740 847 l 751 871 l 761 885 l 760 886 l 740 903 l 719 915 l 706 924 l 685 936 l 660 944 l 644 950 l 632 953 l 618 956 l 601 960 l 585 963 l 572 963 l 554 963 l 532 963 l 526 963 l 513 960 l 493 956 l 481 951 l 456 944 l 440 940 l 425 933 l 397 921 l 368 910 l 353 903 l 333 892 l 315 882 l 297 868 l 281 857 l 267 844 l 254 832 l 242 819 l 226 806 l 210 789 l 197 774 l 185 757 l 169 740 l 157 722 l 150 708 l 140 692 l 133 679 l 126 664 l 118 650 l 114 638 l 111 618 l 107 603 l 107 585 l 107 567 l 107 547 l 107 528 l 108 510 l 108 493 l 111 475 l 113 457 l 113 442 l 115 425 l 118 408 l 118 393 l 119 379 l 122 361 l 126 349 l 132 328 l 135 314 l 139 300 l 143 285 l 149 269 l 157 256 l 165 239 l 171 226 l 181 211 l 188 197 l 197 186 l 208 174 l 219 163 l 233 150 l 247 139 l 261 126 l 271 117 l 285 106 l 304 96 l 317 88 l 333 79 l 349 75 l 368 72 l 385 72 l 401 72 l 417 72 l 436 74 l 450 75 l 464 76 l 481 79 l 496 83 l 511 88 l 525 92 l 539 97 l 556 106 l 567 115 l 583 126 l 597 135 l 610 142 l 625 153 l 640 164 l 656 175 l 671 186 l 686 199 l 700 210 l 714 221 l 725 233 l 738 244 l 749 253 l 761 268 l 774 282 l 782 296 l 790 307 l 800 321 m 781 246 l 768 233 l 754 222 l 744 214 l 733 201 l 717 188 l 703 176 l 688 164 l 672 153 l 657 142 l 642 131 l 626 119 l 611 110 l 597 101 l 583 93 l 569 83 l 550 72 l 536 67 l 519 60 l 504 56 l 486 51 l 467 49 l 453 47 l 439 46 l 417 44 l 401 44 l 385 44 l 365 44 l 343 47 l 322 54 l 303 63 l 290 71 l 271 83 l 254 94 l 242 107 l 231 117 l 217 128 l 200 143 l 189 154 l 178 167 l 165 181 l 156 197 l 146 213 l 140 228 l 132 242 l 124 258 l 118 276 l 111 292 l 107 308 l 104 322 l 99 340 l 94 356 l 92 376 l 90 393 l 90 406 l 88 419 l 85 439 l 85 457 l 83 472 l 81 490 l 81 510 l 79 528 l 79 547 l 76 539 l 75 519 l 74 501 l 74 485 l 74 464 l 74 447 l 74 432 l 74 413 l 75 396 l 76 376 l 78 361 l 81 347 l 83 333 l 90 307 l 96 293 l 103 276 l 106 264 l 113 250 l 121 236 l 129 221 l 136 206 l 139 204 l 151 203 l 150 188 l 154 179 l 164 167 l 169 156 l 188 135 l 199 126 l 222 104 l 231 94 l 254 81 l 279 65 l 290 58 l 315 47 l 336 38 l 350 35 l 371 33 l 396 33 l 410 33 l 424 33 l 449 35 l 474 35 l 497 39 l 518 44 l 538 49 l 560 56 l 581 64 l 604 78 l 624 89 l 644 100 l 663 114 l 675 122 l 686 131 l 707 150 l 718 158 l 729 169 l 738 181 l 757 203 l 767 222 l 776 239 l 781 246 z "},"D":{"ha":1010,"x_min":53,"x_max":871,"o":"m 92 171 l 82 163 l 81 150 l 82 131 l 85 121 l 85 125 l 89 144 l 90 161 l 92 171 m 158 57 l 165 53 l 182 47 l 201 42 l 218 38 l 244 32 l 263 28 l 282 24 l 300 19 l 318 17 l 339 14 l 358 10 l 374 10 l 389 10 l 404 10 l 422 10 l 436 10 l 453 10 l 465 11 l 479 13 l 494 14 l 508 15 l 521 18 l 536 22 l 561 29 l 575 36 l 600 49 l 615 57 l 626 64 l 643 76 l 658 88 l 672 100 l 685 110 l 699 125 l 715 140 l 728 157 l 744 174 l 758 193 l 768 206 l 776 222 l 786 239 l 797 258 l 806 275 l 814 297 l 821 314 l 825 332 l 829 351 l 833 372 l 839 394 l 843 414 l 843 432 l 843 454 l 843 476 l 843 497 l 843 519 l 840 540 l 838 558 l 833 576 l 828 597 l 822 614 l 815 633 l 806 651 l 797 669 l 786 683 l 775 697 l 763 714 l 750 729 l 739 743 l 725 754 l 707 768 l 694 781 l 682 793 l 667 804 l 650 814 l 635 825 l 619 836 l 607 843 l 589 854 l 575 863 l 560 869 l 544 876 l 528 883 l 511 889 l 490 894 l 467 901 l 449 906 l 424 911 l 407 914 l 388 919 l 368 922 l 353 924 l 335 926 l 314 929 l 294 929 l 272 929 l 254 929 l 238 929 l 215 929 l 199 929 l 204 915 l 210 900 l 217 871 l 218 853 l 218 836 l 219 821 l 221 806 l 222 788 l 222 769 l 222 753 l 222 731 l 222 711 l 222 690 l 222 669 l 222 653 l 222 632 l 224 613 l 224 592 l 224 569 l 224 546 l 224 521 l 224 499 l 224 475 l 221 453 l 218 431 l 217 410 l 214 388 l 211 367 l 208 346 l 204 318 l 201 300 l 197 279 l 194 261 l 192 240 l 188 225 l 188 224 l 199 224 l 219 222 l 246 208 l 257 188 l 232 176 l 226 189 l 211 194 l 199 196 l 185 196 l 183 192 l 182 176 l 178 161 l 176 147 l 172 133 l 172 117 l 167 101 l 165 88 l 160 61 l 158 57 m 156 193 l 140 192 l 126 189 l 121 188 l 119 178 l 118 158 l 117 139 l 113 122 l 113 103 l 110 86 l 111 85 l 122 76 l 132 69 l 138 93 l 139 107 l 144 122 l 144 136 l 149 153 l 150 167 l 154 182 l 156 193 m 167 929 l 163 929 l 144 929 l 132 928 l 124 926 l 125 924 l 133 903 l 142 881 l 147 854 l 151 826 l 156 799 l 157 783 l 160 756 l 161 739 l 163 722 l 163 707 l 163 692 l 163 675 l 163 658 l 163 643 l 163 625 l 163 610 l 163 593 l 163 578 l 163 563 l 163 547 l 163 532 l 163 515 l 160 499 l 158 483 l 157 467 l 156 451 l 154 436 l 151 408 l 149 396 l 147 381 l 146 367 l 144 351 l 140 325 l 136 301 l 135 288 l 132 265 l 128 242 l 126 221 l 126 218 l 138 219 l 160 222 l 160 228 l 164 246 l 167 264 l 169 285 l 174 306 l 176 324 l 181 349 l 183 369 l 186 390 l 189 413 l 190 433 l 193 456 l 196 478 l 196 499 l 196 521 l 196 546 l 196 569 l 196 592 l 196 613 l 194 632 l 194 653 l 194 669 l 194 690 l 194 711 l 194 731 l 194 753 l 194 769 l 194 788 l 193 803 l 192 818 l 190 836 l 190 853 l 189 865 l 182 892 l 179 907 l 169 925 l 167 929 m 68 914 l 60 942 l 81 947 l 106 961 l 110 953 l 129 956 l 144 957 l 143 958 l 129 969 l 122 971 l 110 967 l 101 992 l 119 999 l 140 994 l 163 978 l 179 958 l 181 957 l 197 957 l 215 957 l 238 957 l 254 957 l 272 957 l 294 957 l 317 957 l 338 954 l 356 951 l 371 950 l 393 947 l 413 942 l 429 939 l 454 933 l 472 929 l 499 922 l 519 914 l 536 908 l 556 901 l 571 894 l 586 888 l 603 879 l 621 868 l 636 858 l 651 847 l 667 836 l 681 826 l 699 815 l 714 800 l 726 790 l 742 776 l 758 763 l 772 746 l 785 731 l 797 714 l 808 700 l 819 683 l 831 665 l 840 644 l 847 622 l 853 606 l 861 585 l 865 564 l 868 543 l 871 522 l 871 497 l 871 476 l 871 454 l 871 432 l 871 411 l 867 389 l 861 367 l 857 346 l 853 326 l 846 306 l 839 286 l 831 264 l 822 244 l 811 225 l 801 208 l 790 192 l 781 176 l 767 157 l 750 138 l 735 121 l 718 106 l 704 90 l 689 78 l 675 65 l 660 54 l 643 42 l 629 32 l 614 24 l 586 11 l 572 4 l 544 -6 l 526 -10 l 511 -12 l 497 -14 l 482 -15 l 468 -17 l 453 -18 l 436 -18 l 422 -18 l 404 -18 l 389 -18 l 374 -18 l 356 -18 l 333 -14 l 315 -11 l 294 -8 l 276 -4 l 257 0 l 239 4 l 213 10 l 193 14 l 174 22 l 154 28 l 153 28 l 150 10 l 147 -7 l 119 -1 l 122 15 l 126 38 l 126 42 l 122 43 l 106 54 l 104 54 l 104 50 l 103 31 l 97 15 l 97 -1 l 94 -17 l 67 -11 l 69 1 l 69 21 l 75 36 l 76 53 l 79 74 l 79 76 l 64 96 l 54 125 l 53 150 l 57 176 l 75 193 l 94 207 l 96 207 l 99 224 l 100 244 l 104 268 l 107 290 l 108 304 l 113 331 l 117 354 l 118 369 l 119 383 l 121 399 l 124 414 l 126 439 l 128 454 l 129 469 l 131 486 l 132 501 l 135 518 l 135 532 l 135 547 l 135 563 l 135 578 l 135 593 l 135 610 l 135 625 l 135 643 l 135 658 l 135 675 l 135 692 l 135 707 l 135 722 l 133 736 l 132 753 l 129 781 l 128 796 l 124 821 l 119 849 l 114 872 l 108 894 l 100 913 l 96 921 l 86 919 l 68 914 z "},"E":{"ha":1050,"x_min":21,"x_max":913,"o":"m 426 878 l 447 878 l 474 879 l 496 879 l 510 879 l 531 879 l 544 879 l 571 881 l 588 881 l 611 882 l 625 882 l 639 882 l 663 882 l 683 882 l 710 883 l 731 886 l 746 889 l 769 894 l 789 903 l 806 913 l 817 922 l 818 925 l 800 917 l 781 911 l 761 908 l 747 907 l 732 906 l 715 904 l 699 904 l 681 903 l 661 900 l 640 899 l 618 896 l 597 893 l 572 889 l 549 888 l 535 886 l 508 885 l 493 883 l 463 882 l 446 881 l 431 879 l 426 878 m 122 81 l 117 81 l 99 78 l 83 74 l 64 68 l 51 64 l 49 54 l 49 39 l 51 28 l 58 25 l 68 25 l 78 28 l 89 36 l 103 50 l 117 71 l 122 81 m 154 919 l 153 931 l 150 944 l 147 950 l 139 949 l 131 949 l 122 944 l 125 939 l 131 932 l 140 925 l 154 919 m 353 485 l 363 481 l 379 475 l 396 471 l 414 467 l 426 467 l 447 467 l 460 468 l 476 471 l 485 475 l 486 483 l 486 496 l 483 506 l 474 496 l 460 483 l 439 478 l 421 478 l 400 479 l 378 482 l 353 485 m 836 951 l 858 938 l 849 922 l 839 906 l 822 890 l 800 878 l 778 869 l 751 861 l 736 858 l 713 856 l 683 854 l 663 854 l 639 854 l 625 854 l 611 854 l 588 853 l 571 853 l 544 851 l 531 851 l 510 851 l 496 851 l 474 851 l 447 850 l 426 850 l 404 850 l 382 849 l 367 849 l 347 849 l 331 849 l 315 849 l 297 850 l 283 854 l 256 858 l 257 876 l 253 876 l 232 876 l 211 881 l 188 882 l 188 865 l 188 850 l 190 835 l 192 817 l 192 799 l 192 781 l 192 760 l 192 740 l 192 718 l 193 697 l 193 678 l 194 656 l 194 631 l 194 617 l 194 593 l 194 579 l 194 565 l 194 554 l 204 554 l 224 553 l 242 547 l 272 535 l 288 531 l 300 528 l 315 524 l 332 519 l 344 515 l 358 513 l 381 510 l 403 507 l 421 506 l 436 506 l 446 508 l 454 515 l 463 524 l 464 536 l 490 546 l 501 535 l 508 517 l 514 499 l 514 481 l 507 458 l 488 446 l 465 440 l 447 439 l 426 439 l 411 439 l 388 443 l 371 450 l 354 456 l 335 461 l 315 467 l 301 471 l 285 478 l 268 482 l 250 489 l 229 496 l 211 500 l 194 503 l 194 501 l 194 479 l 194 464 l 194 450 l 193 433 l 192 411 l 190 390 l 190 372 l 190 353 l 190 333 l 190 311 l 188 293 l 188 275 l 185 256 l 182 235 l 181 215 l 176 196 l 174 178 l 172 157 l 167 139 l 164 122 l 161 108 l 182 108 l 208 108 l 222 108 l 249 107 l 276 103 l 290 100 l 313 97 l 336 92 l 360 86 l 382 82 l 407 79 l 428 76 l 450 74 l 468 69 l 481 68 l 501 65 l 526 61 l 546 60 l 569 57 l 588 54 l 606 50 l 622 49 l 640 46 l 657 44 l 675 44 l 690 44 l 708 44 l 726 44 l 743 44 l 763 44 l 781 49 l 801 58 l 817 68 l 831 76 l 846 83 l 883 106 l 885 104 l 896 111 l 913 101 l 901 76 l 901 63 l 893 38 l 883 19 l 863 3 l 839 -12 l 822 -19 l 799 -24 l 775 -25 l 753 -26 l 731 -26 l 708 -26 l 683 -25 l 661 -21 l 647 -19 l 633 -18 l 618 -15 l 596 -12 l 581 -10 l 565 -8 l 540 -4 l 525 -3 l 508 -1 l 493 1 l 475 4 l 463 7 l 443 8 l 417 13 l 399 17 l 371 21 l 354 24 l 340 26 l 324 28 l 310 32 l 294 33 l 276 36 l 260 38 l 242 42 l 222 43 l 207 46 l 193 47 l 196 75 l 210 74 l 225 71 l 244 69 l 265 65 l 279 64 l 297 61 l 315 60 l 329 56 l 343 54 l 360 51 l 376 49 l 404 44 l 422 40 l 446 36 l 465 35 l 481 32 l 499 29 l 511 26 l 528 25 l 543 24 l 568 19 l 583 18 l 599 15 l 624 13 l 636 10 l 650 8 l 664 7 l 686 3 l 708 1 l 731 1 l 753 1 l 772 3 l 796 4 l 814 8 l 825 13 l 846 25 l 861 36 l 868 49 l 874 68 l 860 58 l 844 51 l 831 43 l 815 33 l 789 24 l 765 17 l 743 17 l 726 17 l 708 17 l 690 17 l 675 17 l 657 17 l 638 18 l 619 21 l 600 22 l 582 26 l 567 29 l 543 32 l 524 33 l 499 38 l 478 40 l 463 42 l 444 46 l 425 49 l 404 51 l 379 54 l 354 58 l 331 64 l 307 69 l 285 72 l 271 75 l 246 79 l 222 81 l 208 81 l 182 81 l 157 81 l 153 81 l 151 79 l 142 57 l 125 33 l 106 14 l 89 3 l 71 -3 l 53 -3 l 29 11 l 21 36 l 21 60 l 32 83 l 56 93 l 75 101 l 93 106 l 114 108 l 133 108 l 136 128 l 139 144 l 144 163 l 146 181 l 149 201 l 153 218 l 154 238 l 157 258 l 160 278 l 160 296 l 163 314 l 163 333 l 163 353 l 163 372 l 163 390 l 164 414 l 165 436 l 167 450 l 167 464 l 167 479 l 167 501 l 167 507 l 149 507 l 126 507 l 117 507 l 78 479 l 75 482 l 64 476 l 57 496 l 74 538 l 101 551 l 122 554 l 142 554 l 158 554 l 167 554 l 167 565 l 167 579 l 167 593 l 167 617 l 167 631 l 167 656 l 165 678 l 165 697 l 164 718 l 164 740 l 164 760 l 164 781 l 164 799 l 164 817 l 163 832 l 160 847 l 160 865 l 160 879 l 158 889 l 149 892 l 126 900 l 111 913 l 100 928 l 97 953 l 119 974 l 139 976 l 158 975 l 175 956 l 181 936 l 182 915 l 183 911 l 189 910 l 214 908 l 235 904 l 253 904 l 272 904 l 294 904 l 317 904 l 336 904 l 350 904 l 376 904 l 400 904 l 414 906 l 428 907 l 443 908 l 460 910 l 490 911 l 506 913 l 532 914 l 546 915 l 569 917 l 594 921 l 615 924 l 638 926 l 658 928 l 678 931 l 699 932 l 715 932 l 729 933 l 744 935 l 758 936 l 775 939 l 792 942 l 806 949 l 818 960 l 831 943 l 836 951 z "},"F":{"ha":944,"x_min":88,"x_max":807,"o":"m 206 910 l 214 908 l 236 900 l 256 892 l 271 889 l 290 885 l 311 882 l 331 878 l 354 876 l 378 872 l 400 872 l 414 872 l 436 872 l 464 872 l 490 872 l 511 872 l 535 872 l 556 872 l 576 874 l 597 878 l 621 883 l 646 889 l 665 894 l 686 901 l 706 910 l 721 917 l 735 925 l 750 935 l 760 943 l 768 953 l 778 967 l 779 975 l 772 971 l 758 963 l 740 951 l 719 940 l 696 931 l 683 922 l 658 913 l 631 904 l 617 901 l 592 899 l 564 897 l 536 897 l 522 897 l 508 897 l 493 897 l 479 897 l 464 897 l 449 897 l 433 899 l 407 900 l 393 900 l 376 901 l 350 903 l 336 904 l 311 904 l 288 904 l 274 904 l 250 906 l 226 908 l 206 910 m 508 475 l 521 475 l 542 475 l 556 476 l 565 479 l 574 488 l 572 496 l 572 511 l 568 507 l 550 493 l 536 483 l 519 476 l 508 475 m 115 493 l 88 499 l 92 518 l 107 532 l 131 547 l 143 551 l 143 553 l 143 568 l 143 583 l 143 599 l 143 613 l 143 628 l 143 643 l 143 658 l 143 672 l 144 697 l 144 725 l 146 750 l 149 775 l 149 797 l 151 818 l 154 840 l 154 856 l 157 876 l 157 899 l 157 922 l 157 926 l 151 929 l 136 942 l 119 963 l 118 992 l 142 1008 l 163 996 l 175 979 l 182 963 l 185 944 l 192 942 l 208 938 l 229 936 l 253 933 l 274 932 l 288 932 l 311 932 l 336 932 l 353 931 l 379 929 l 393 928 l 407 928 l 436 926 l 449 925 l 464 925 l 479 925 l 493 925 l 508 925 l 522 925 l 536 925 l 564 925 l 589 926 l 611 929 l 625 932 l 650 938 l 669 947 l 685 956 l 708 965 l 726 976 l 744 988 l 758 996 l 783 1011 l 793 993 l 806 994 l 807 978 l 803 956 l 790 936 l 779 924 l 767 913 l 749 900 l 732 892 l 717 885 l 697 876 l 674 867 l 651 861 l 626 856 l 603 850 l 579 846 l 556 844 l 535 844 l 511 844 l 490 844 l 464 844 l 436 844 l 414 844 l 400 844 l 375 844 l 351 849 l 328 850 l 306 854 l 285 857 l 265 861 l 247 867 l 228 875 l 206 881 l 190 885 l 185 886 l 185 874 l 182 853 l 182 838 l 179 815 l 176 794 l 176 772 l 174 747 l 172 725 l 172 697 l 171 672 l 171 658 l 171 643 l 171 628 l 171 613 l 171 599 l 171 583 l 171 568 l 171 556 l 178 556 l 192 556 l 217 556 l 240 550 l 256 547 l 269 544 l 288 540 l 301 533 l 315 531 l 329 526 l 343 524 l 372 515 l 388 511 l 404 508 l 418 504 l 431 504 l 450 503 l 464 501 l 479 501 l 497 501 l 511 504 l 522 508 l 533 515 l 549 526 l 558 539 l 565 551 l 592 549 l 599 529 l 600 511 l 600 496 l 599 476 l 582 457 l 561 449 l 542 447 l 521 447 l 503 447 l 486 449 l 468 451 l 449 454 l 428 460 l 406 465 l 382 475 l 361 482 l 346 486 l 333 489 l 319 493 l 290 499 l 275 503 l 250 507 l 226 513 l 199 514 l 171 511 l 171 500 l 171 483 l 171 464 l 171 446 l 171 426 l 171 406 l 171 389 l 171 374 l 171 357 l 171 340 l 171 325 l 169 303 l 168 288 l 167 271 l 167 249 l 164 231 l 163 214 l 161 199 l 161 174 l 161 154 l 161 139 l 160 122 l 158 108 l 157 94 l 157 75 l 157 57 l 157 39 l 157 26 l 160 13 l 132 7 l 129 24 l 129 39 l 129 57 l 129 75 l 129 94 l 131 111 l 132 125 l 133 139 l 133 154 l 133 174 l 133 199 l 135 217 l 136 233 l 139 251 l 139 271 l 140 290 l 142 306 l 143 325 l 143 340 l 143 357 l 143 374 l 143 389 l 143 406 l 143 426 l 143 446 l 143 464 l 143 483 l 143 500 l 143 517 l 143 522 l 142 522 l 124 510 l 117 504 l 115 493 z "},"G":{"ha":1043,"x_min":53,"x_max":904,"o":"m 826 454 l 824 457 l 814 465 l 801 475 l 790 485 l 776 493 l 758 503 l 742 508 l 718 515 l 696 522 l 672 528 l 660 528 l 644 528 l 626 528 l 611 528 l 593 528 l 576 526 l 560 522 l 542 518 l 525 511 l 507 504 l 493 499 l 478 488 l 469 478 l 468 468 l 469 456 l 471 451 l 474 457 l 488 468 l 506 475 l 522 482 l 539 489 l 557 496 l 578 500 l 600 500 l 621 500 l 636 500 l 661 500 l 682 497 l 706 496 l 726 493 l 747 489 l 768 482 l 789 475 l 810 465 l 826 454 m 88 339 l 88 332 l 90 324 l 88 339 m 811 185 l 819 174 l 831 158 l 838 142 l 846 125 l 850 108 l 851 108 l 851 113 l 851 131 l 853 149 l 853 167 l 854 183 l 856 197 l 858 217 l 860 233 l 864 254 l 874 275 l 876 288 l 876 303 l 876 318 l 876 335 l 875 347 l 872 367 l 869 381 l 864 393 l 857 408 l 850 421 l 842 433 l 838 439 l 847 419 l 847 399 l 847 379 l 846 357 l 843 340 l 842 321 l 840 301 l 836 283 l 833 265 l 831 246 l 822 226 l 815 210 l 804 190 l 797 183 l 811 185 m 783 654 l 764 676 l 778 688 l 793 693 l 803 700 l 815 714 l 824 726 l 828 739 l 832 753 l 832 769 l 832 783 l 828 799 l 817 815 l 801 835 l 793 844 l 774 858 l 761 868 l 749 878 l 732 886 l 718 894 l 703 901 l 685 910 l 667 917 l 649 924 l 628 932 l 610 940 l 594 943 l 572 947 l 551 949 l 529 950 l 506 950 l 478 950 l 457 950 l 439 949 l 415 942 l 393 936 l 372 929 l 353 925 l 339 915 l 321 908 l 301 896 l 299 894 l 294 893 l 281 883 l 265 872 l 253 861 l 238 846 l 218 828 l 204 811 l 196 799 l 183 781 l 168 760 l 157 739 l 147 717 l 138 693 l 126 669 l 121 657 l 118 644 l 113 626 l 110 604 l 107 583 l 106 563 l 106 540 l 104 518 l 104 497 l 104 476 l 104 457 l 104 436 l 104 415 l 104 394 l 107 374 l 113 356 l 118 332 l 124 311 l 132 290 l 139 271 l 149 253 l 157 235 l 165 217 l 176 203 l 188 188 l 200 174 l 214 160 l 225 149 l 239 138 l 253 128 l 265 118 l 281 111 l 300 101 l 315 94 l 332 88 l 346 82 l 358 79 l 372 76 l 389 74 l 403 71 l 417 69 l 431 69 l 449 68 l 472 67 l 489 67 l 506 67 l 521 67 l 533 68 l 546 69 l 560 74 l 575 78 l 590 82 l 606 86 l 621 93 l 635 96 l 646 103 l 660 110 l 672 117 l 688 124 l 710 138 l 729 149 l 743 163 l 758 178 l 769 193 l 782 207 l 790 221 l 797 238 l 803 254 l 806 271 l 808 289 l 813 307 l 814 324 l 815 343 l 818 360 l 819 379 l 819 399 l 819 414 l 814 425 l 807 433 l 796 440 l 778 450 l 760 454 l 739 461 l 721 465 l 703 468 l 679 469 l 658 472 l 636 472 l 621 472 l 600 472 l 581 472 l 565 468 l 550 464 l 533 457 l 517 450 l 501 443 l 493 438 l 489 433 l 490 429 l 494 426 l 496 426 l 510 426 l 529 426 l 544 428 l 547 428 l 551 432 l 561 446 l 585 432 l 574 410 l 561 404 l 556 400 l 535 397 l 519 397 l 504 397 l 488 400 l 474 401 l 454 414 l 444 436 l 442 453 l 440 471 l 444 489 l 458 507 l 479 524 l 496 529 l 514 536 l 533 543 l 551 550 l 574 554 l 593 556 l 611 556 l 626 556 l 644 556 l 660 556 l 675 556 l 701 550 l 726 543 l 750 533 l 769 528 l 790 518 l 807 507 l 818 497 l 831 488 l 843 476 l 854 461 l 864 450 l 875 435 l 882 419 l 889 404 l 894 389 l 900 372 l 903 350 l 904 335 l 904 318 l 904 303 l 904 285 l 899 267 l 892 246 l 888 228 l 886 214 l 883 194 l 882 181 l 881 167 l 881 149 l 879 131 l 879 113 l 878 94 l 878 78 l 878 61 l 878 46 l 878 31 l 879 10 l 853 1 l 843 19 l 839 38 l 835 57 l 833 71 l 829 86 l 825 100 l 821 114 l 813 131 l 806 144 l 801 151 l 797 140 l 785 122 l 774 110 l 757 93 l 740 78 l 718 63 l 694 50 l 675 42 l 660 33 l 642 28 l 625 21 l 607 17 l 586 13 l 564 11 l 536 8 l 521 7 l 507 7 l 481 4 l 464 4 l 450 4 l 436 4 l 421 4 l 406 4 l 379 4 l 354 7 l 338 13 l 317 22 l 297 32 l 276 43 l 256 57 l 242 65 l 224 78 l 203 93 l 183 108 l 174 119 l 154 138 l 138 157 l 119 183 l 113 194 l 101 208 l 92 236 l 85 253 l 78 268 l 71 285 l 64 311 l 60 329 l 60 347 l 57 360 l 54 378 l 54 393 l 54 411 l 53 426 l 53 442 l 53 458 l 53 472 l 53 486 l 53 503 l 56 517 l 57 533 l 60 549 l 63 563 l 65 578 l 69 594 l 75 613 l 79 629 l 86 649 l 93 664 l 94 668 l 97 675 l 107 700 l 115 722 l 126 747 l 135 763 l 146 782 l 157 800 l 168 817 l 178 831 l 192 849 l 206 863 l 219 875 l 238 889 l 254 900 l 269 911 l 283 918 l 292 924 l 293 924 l 307 933 l 325 940 l 342 950 l 364 957 l 385 964 l 407 969 l 433 976 l 457 978 l 478 978 l 506 978 l 529 978 l 554 976 l 575 975 l 600 971 l 618 965 l 639 957 l 660 949 l 678 942 l 696 935 l 714 926 l 729 919 l 746 911 l 763 900 l 778 890 l 790 881 l 813 864 l 824 851 l 839 832 l 853 810 l 860 786 l 860 769 l 860 750 l 856 731 l 849 713 l 838 697 l 822 681 l 807 668 l 792 663 l 783 654 m 90 324 l 92 319 l 99 293 l 103 279 l 110 264 l 117 247 l 126 222 l 135 211 l 142 197 l 160 174 l 174 157 l 193 139 l 203 128 l 219 115 l 240 100 l 258 88 l 269 79 l 290 68 l 311 57 l 328 47 l 349 38 l 360 35 l 382 32 l 406 32 l 421 32 l 436 32 l 450 32 l 464 32 l 478 32 l 504 35 l 521 35 l 533 36 l 561 39 l 583 40 l 601 44 l 617 49 l 633 53 l 649 58 l 664 67 l 683 75 l 704 88 l 724 100 l 738 113 l 754 129 l 763 139 l 769 149 l 763 143 l 746 126 l 724 113 l 701 99 l 686 92 l 674 85 l 660 78 l 646 71 l 629 65 l 614 61 l 599 54 l 583 50 l 568 46 l 551 42 l 536 40 l 521 39 l 506 39 l 489 39 l 472 39 l 446 40 l 431 42 l 417 42 l 400 43 l 383 46 l 367 49 l 353 51 l 338 57 l 321 63 l 304 69 l 289 76 l 267 86 l 251 96 l 236 106 l 222 115 l 206 129 l 194 140 l 181 154 l 165 171 l 154 186 l 140 203 l 132 224 l 124 242 l 114 260 l 107 282 l 99 303 l 90 324 z "},"H":{"ha":1017,"x_min":-112,"x_max":878,"o":"m 135 24 l 133 42 l 131 58 l 129 79 l 129 104 l 129 128 l 129 151 l 128 174 l 128 199 l 125 226 l 125 254 l 124 268 l 124 294 l 124 310 l 124 324 l 124 338 l 124 353 l 124 368 l 124 382 l 125 397 l 125 413 l 126 432 l 128 446 l 128 461 l 129 478 l 131 493 l 133 507 l 131 499 l 129 483 l 124 465 l 121 449 l 118 432 l 117 415 l 113 397 l 111 381 l 110 364 l 107 347 l 106 331 l 103 314 l 101 297 l 100 281 l 97 265 l 96 250 l 93 233 l 93 218 l 90 203 l 88 179 l 88 153 l 85 132 l 82 110 l 79 88 l 78 68 l 76 50 l 76 36 l 75 29 l 85 29 l 96 26 l 110 25 l 125 25 l 135 24 m 771 178 l 771 169 l 768 149 l 767 129 l 763 110 l 760 93 l 758 79 l 756 63 l 753 47 l 750 35 l 747 28 l 753 28 l 764 26 l 774 28 l 785 33 l 789 40 l 789 51 l 786 69 l 782 89 l 778 114 l 775 138 l 774 153 l 772 167 l 771 178 m -71 486 l -75 496 l -78 518 l -76 543 l -54 558 l -36 564 l -14 565 l 10 565 l 24 565 l 39 565 l 58 565 l 74 565 l 89 565 l 113 565 l 114 572 l 97 576 l 79 582 l 61 588 l 39 588 l 14 588 l -6 588 l -24 586 l -43 582 l -61 572 l -76 560 l -86 553 l -85 543 l -85 526 l -83 511 l -82 496 l -78 489 l -71 486 m 594 418 l 604 414 l 618 414 l 636 413 l 651 411 l 669 411 l 688 411 l 726 418 l 763 424 l 763 428 l 761 428 l 747 424 l 731 421 l 710 418 l 690 418 l 671 418 l 653 418 l 632 418 l 613 418 l 594 418 m -36 499 l -8 490 l -17 469 l -31 464 l -33 457 l -42 458 l -61 458 l -79 458 l -97 469 l -107 488 l -111 508 l -112 526 l -112 543 l -111 564 l -96 582 l -75 597 l -51 607 l -29 614 l -6 615 l 14 615 l 39 615 l 64 615 l 88 610 l 106 604 l 119 599 l 121 604 l 125 624 l 128 643 l 131 664 l 135 685 l 136 700 l 139 718 l 143 735 l 144 754 l 144 772 l 144 792 l 144 814 l 144 831 l 144 847 l 144 864 l 144 876 l 142 892 l 139 911 l 138 924 l 126 942 l 119 954 l 104 974 l 90 988 l 110 1007 l 124 993 l 142 971 l 151 956 l 151 954 l 172 964 l 179 949 l 188 928 l 193 906 l 196 881 l 196 865 l 196 839 l 196 824 l 196 810 l 196 796 l 196 782 l 194 767 l 192 740 l 192 715 l 189 701 l 188 688 l 183 663 l 182 647 l 176 621 l 172 599 l 171 583 l 169 578 l 190 567 l 210 556 l 233 544 l 257 533 l 278 524 l 293 519 l 307 513 l 332 499 l 358 489 l 378 481 l 396 476 l 414 472 l 433 467 l 453 464 l 474 461 l 489 456 l 508 453 l 526 451 l 543 449 l 560 447 l 579 446 l 594 446 l 613 446 l 632 446 l 653 446 l 671 446 l 690 446 l 707 446 l 725 449 l 742 451 l 756 456 l 763 456 l 764 472 l 764 488 l 765 506 l 768 522 l 769 538 l 769 554 l 771 571 l 771 588 l 771 589 l 771 610 l 772 631 l 772 651 l 772 672 l 772 693 l 772 714 l 772 735 l 771 756 l 771 775 l 771 796 l 771 813 l 771 829 l 771 846 l 771 864 l 771 879 l 771 893 l 771 907 l 771 922 l 771 940 l 771 958 l 769 974 l 797 976 l 799 958 l 799 940 l 799 938 l 813 938 l 813 924 l 813 901 l 813 876 l 813 863 l 813 847 l 813 832 l 811 813 l 810 797 l 810 782 l 808 763 l 807 746 l 807 729 l 807 714 l 806 697 l 806 681 l 804 667 l 804 651 l 803 636 l 801 619 l 800 604 l 799 588 l 799 571 l 799 567 l 799 546 l 799 526 l 797 503 l 794 481 l 793 464 l 799 465 l 822 474 l 839 483 l 847 493 l 856 504 l 878 488 l 869 476 l 856 461 l 833 449 l 810 440 l 794 433 l 792 433 l 790 426 l 790 417 l 790 397 l 790 379 l 790 363 l 790 344 l 792 329 l 793 308 l 793 292 l 793 275 l 794 260 l 796 243 l 797 226 l 797 210 l 799 196 l 799 182 l 800 169 l 801 156 l 803 140 l 806 117 l 810 94 l 814 75 l 817 54 l 817 32 l 804 14 l 782 0 l 764 -1 l 744 0 l 722 14 l 722 38 l 725 53 l 728 68 l 731 82 l 732 96 l 735 115 l 739 132 l 740 151 l 743 172 l 744 196 l 747 210 l 747 225 l 750 251 l 751 265 l 754 281 l 754 296 l 756 314 l 757 329 l 758 347 l 760 363 l 760 382 l 760 394 l 732 390 l 690 383 l 669 383 l 651 383 l 633 385 l 618 386 l 601 386 l 578 390 l 564 392 l 549 393 l 522 399 l 497 404 l 471 411 l 446 419 l 431 425 l 410 436 l 396 443 l 371 453 l 368 454 l 353 458 l 336 463 l 317 471 l 301 478 l 283 485 l 267 493 l 249 500 l 232 507 l 217 514 l 199 518 l 183 522 l 165 528 l 163 529 l 163 521 l 161 504 l 158 490 l 157 475 l 156 461 l 156 446 l 154 429 l 153 413 l 153 397 l 151 382 l 151 368 l 151 353 l 151 338 l 151 324 l 151 310 l 151 294 l 151 268 l 153 254 l 153 226 l 156 199 l 156 174 l 157 151 l 157 128 l 157 104 l 157 79 l 158 61 l 161 44 l 163 26 l 167 17 l 150 -6 l 139 -4 l 125 -3 l 110 -3 l 93 -1 l 76 1 l 53 13 l 49 36 l 49 50 l 50 71 l 51 90 l 54 113 l 57 135 l 60 156 l 60 182 l 63 206 l 65 221 l 65 236 l 68 253 l 69 268 l 72 283 l 74 300 l 75 317 l 78 333 l 79 350 l 82 367 l 83 383 l 85 403 l 89 421 l 90 435 l 93 454 l 96 471 l 101 489 l 103 504 l 107 521 l 110 538 l 89 538 l 74 538 l 58 538 l 39 538 l 24 538 l 10 538 l -14 538 l -31 536 l -43 533 l -51 529 l -50 521 l -47 504 l -43 493 l -39 488 l -36 489 l -36 499 z "},"I":{"ha":550,"x_min":-47,"x_max":411,"o":"m 156 67 l 154 67 l 142 69 l 139 69 l 138 58 l 136 50 l 140 50 l 156 47 l 156 51 l 156 67 m 157 94 l 157 106 l 160 126 l 160 143 l 161 164 l 164 182 l 165 201 l 169 218 l 171 238 l 174 257 l 175 279 l 179 303 l 182 325 l 183 339 l 186 365 l 189 379 l 192 396 l 194 411 l 197 428 l 199 443 l 201 461 l 204 475 l 206 492 l 208 507 l 208 521 l 210 539 l 213 554 l 213 571 l 214 586 l 214 601 l 215 615 l 215 632 l 215 646 l 215 660 l 215 675 l 215 703 l 215 718 l 215 735 l 215 750 l 214 763 l 213 792 l 213 806 l 211 818 l 210 832 l 208 846 l 207 869 l 206 883 l 201 904 l 199 924 l 193 936 l 188 944 l 188 922 l 188 901 l 192 882 l 194 860 l 197 835 l 197 819 l 197 790 l 197 765 l 197 750 l 194 735 l 193 717 l 192 704 l 192 688 l 190 667 l 188 647 l 183 631 l 182 611 l 179 593 l 178 578 l 176 558 l 176 542 l 175 525 l 172 504 l 172 489 l 172 467 l 168 447 l 167 431 l 165 415 l 163 400 l 161 385 l 161 368 l 160 351 l 158 336 l 157 321 l 157 307 l 156 292 l 154 278 l 153 256 l 153 242 l 151 225 l 150 203 l 147 182 l 146 160 l 144 140 l 142 124 l 142 110 l 140 97 l 144 97 l 157 94 m -19 33 l -17 36 l -1 46 l 31 54 l 50 56 l 67 56 l 85 56 l 106 56 l 110 56 l 110 61 l 111 71 l 100 71 l 85 71 l 60 69 l 46 69 l 33 69 l 15 64 l 3 57 l -8 51 l -19 40 l -19 33 m 269 39 l 258 42 l 238 47 l 221 51 l 194 58 l 183 61 l 183 51 l 183 44 l 193 44 l 213 42 l 233 39 l 254 39 l 269 39 m 47 956 l 40 954 l 26 946 l 25 942 l 26 940 l 36 947 l 47 956 m 47 914 l 19 911 l 19 928 l 8 919 l -3 939 l 4 963 l 29 979 l 44 985 l 64 989 l 79 990 l 100 992 l 118 993 l 133 994 l 150 994 l 168 994 l 183 994 l 203 994 l 219 994 l 239 992 l 254 989 l 272 986 l 290 983 l 307 979 l 324 976 l 339 975 l 350 974 l 360 978 l 363 972 l 372 972 l 393 972 l 411 972 l 411 944 l 393 944 l 372 944 l 356 944 l 354 944 l 344 940 l 326 940 l 313 940 l 299 940 l 281 942 l 263 943 l 232 946 l 218 949 l 226 932 l 229 910 l 233 886 l 235 872 l 236 849 l 238 835 l 239 821 l 240 806 l 240 792 l 242 765 l 243 750 l 243 735 l 243 718 l 243 703 l 243 675 l 243 660 l 243 646 l 243 632 l 243 615 l 242 601 l 242 586 l 240 571 l 240 551 l 238 536 l 236 521 l 236 504 l 233 489 l 232 472 l 229 456 l 226 440 l 225 425 l 222 406 l 219 390 l 217 374 l 214 360 l 211 336 l 210 322 l 207 300 l 203 276 l 201 254 l 199 235 l 197 215 l 193 196 l 192 179 l 189 161 l 188 143 l 188 124 l 185 103 l 185 89 l 186 89 l 200 86 l 226 79 l 243 75 l 267 69 l 279 65 l 299 64 l 318 61 l 336 61 l 353 61 l 367 63 l 368 51 l 394 67 l 408 42 l 379 25 l 365 18 l 349 11 l 331 11 l 313 11 l 297 11 l 276 11 l 254 11 l 231 11 l 210 14 l 190 17 l 174 17 l 157 19 l 135 22 l 119 25 l 103 28 l 85 28 l 67 28 l 50 28 l 36 26 l 10 21 l 0 14 l -10 4 l -15 10 l -39 -1 l -47 18 l -44 51 l -25 74 l -11 82 l 4 89 l 28 97 l 46 97 l 60 97 l 85 99 l 100 99 l 113 99 l 114 110 l 114 126 l 117 143 l 118 163 l 119 185 l 122 206 l 124 228 l 125 242 l 125 256 l 126 281 l 128 294 l 129 307 l 129 321 l 131 339 l 132 354 l 133 368 l 133 385 l 135 403 l 138 418 l 139 433 l 140 453 l 144 469 l 144 489 l 144 507 l 147 528 l 149 542 l 149 558 l 150 581 l 151 596 l 154 614 l 156 633 l 160 653 l 163 669 l 164 688 l 164 704 l 165 719 l 167 738 l 169 753 l 169 765 l 169 790 l 169 819 l 169 832 l 167 857 l 164 876 l 160 899 l 160 922 l 160 947 l 158 953 l 147 953 l 131 951 l 115 950 l 96 946 l 81 942 l 64 933 l 53 925 l 44 922 l 47 914 z "},"J":{"ha":949,"x_min":6,"x_max":811,"o":"m 513 885 l 514 882 l 515 874 l 517 874 l 532 874 l 547 874 l 572 874 l 599 875 l 621 878 l 646 885 l 671 893 l 688 901 l 704 908 l 718 917 l 733 924 l 744 933 l 756 942 l 771 957 l 757 947 l 743 939 l 729 929 l 713 921 l 696 911 l 678 906 l 660 899 l 643 892 l 622 888 l 597 885 l 575 885 l 553 885 l 532 885 l 513 885 m 471 886 l 463 886 l 471 883 l 471 886 m 410 72 l 414 75 l 433 88 l 453 103 l 469 118 l 483 133 l 496 153 l 510 171 l 519 190 l 531 214 l 538 228 l 544 242 l 551 256 l 557 271 l 563 288 l 568 303 l 574 318 l 576 331 l 578 344 l 581 364 l 581 378 l 581 393 l 581 407 l 581 422 l 581 438 l 581 451 l 581 467 l 576 482 l 576 494 l 571 508 l 569 524 l 565 538 l 561 564 l 557 581 l 554 597 l 550 613 l 546 631 l 542 647 l 539 661 l 536 678 l 533 690 l 535 672 l 538 650 l 539 625 l 539 599 l 539 572 l 539 546 l 539 525 l 539 500 l 539 476 l 539 453 l 539 431 l 539 407 l 538 383 l 535 360 l 529 340 l 526 318 l 524 297 l 518 271 l 511 249 l 503 225 l 494 203 l 489 189 l 481 171 l 471 150 l 457 129 l 447 115 l 433 96 l 410 72 m 44 199 l 44 215 l 49 240 l 54 263 l 60 279 l 64 293 l 67 301 l 65 301 l 53 300 l 44 293 l 33 278 l 33 268 l 33 254 l 33 239 l 33 225 l 38 208 l 40 192 l 44 199 m 189 19 l 165 28 l 150 35 l 133 43 l 118 53 l 115 54 l 119 50 l 131 40 l 142 33 l 154 28 l 167 21 l 179 19 l 189 19 m 490 972 l 490 944 l 485 949 l 489 939 l 489 938 l 504 940 l 508 919 l 508 913 l 510 913 l 532 913 l 553 913 l 575 913 l 594 913 l 617 915 l 635 919 l 651 924 l 669 931 l 685 936 l 699 946 l 715 954 l 729 961 l 740 969 l 756 981 l 767 990 l 786 1001 l 811 982 l 806 953 l 790 938 l 775 922 l 761 911 l 747 901 l 732 892 l 715 883 l 699 876 l 682 868 l 654 857 l 626 850 l 601 847 l 572 846 l 547 846 l 532 846 l 519 846 l 519 842 l 524 829 l 532 801 l 535 789 l 539 774 l 549 746 l 553 731 l 556 714 l 561 699 l 564 683 l 567 667 l 569 653 l 574 636 l 578 618 l 582 603 l 585 586 l 589 569 l 593 543 l 597 529 l 599 514 l 604 500 l 604 485 l 608 469 l 608 451 l 608 438 l 608 422 l 608 407 l 608 393 l 608 378 l 608 361 l 606 342 l 604 325 l 599 310 l 593 294 l 588 279 l 582 263 l 576 244 l 569 231 l 563 217 l 556 203 l 544 179 l 532 157 l 518 136 l 506 117 l 489 99 l 469 81 l 450 65 l 428 50 l 415 43 l 403 36 l 379 24 l 356 13 l 333 8 l 315 8 l 301 1 l 286 -1 l 271 -4 l 257 -6 l 240 -8 l 222 -8 l 194 -8 l 176 -8 l 158 -4 l 143 3 l 128 8 l 114 18 l 100 31 l 89 40 l 78 54 l 68 68 l 57 85 l 46 101 l 36 119 l 29 136 l 24 154 l 17 168 l 13 186 l 10 203 l 6 222 l 6 239 l 6 254 l 6 268 l 8 286 l 25 313 l 42 325 l 63 329 l 79 329 l 93 331 l 106 306 l 94 296 l 89 285 l 88 271 l 82 254 l 76 235 l 72 213 l 72 199 l 72 174 l 72 163 l 81 142 l 93 117 l 100 106 l 108 94 l 121 85 l 132 75 l 147 68 l 161 60 l 176 53 l 203 44 l 217 42 l 231 39 l 243 39 l 258 38 l 272 36 l 288 36 l 310 36 l 329 47 l 344 56 l 358 63 l 379 82 l 390 92 l 411 113 l 425 132 l 435 146 l 446 164 l 456 182 l 464 200 l 469 214 l 478 233 l 483 257 l 490 279 l 496 303 l 499 321 l 501 346 l 507 365 l 510 386 l 511 407 l 511 431 l 511 453 l 511 476 l 511 500 l 511 525 l 511 546 l 511 572 l 511 599 l 511 625 l 510 647 l 507 669 l 506 693 l 501 714 l 499 736 l 496 757 l 492 775 l 489 796 l 486 814 l 482 832 l 479 850 l 479 853 l 469 854 l 454 858 l 429 868 l 400 879 l 386 885 l 360 896 l 346 903 l 331 908 l 308 922 l 304 924 l 289 931 l 274 936 l 246 950 l 233 957 l 247 982 l 260 975 l 285 961 l 290 960 l 294 965 l 306 957 l 317 949 l 328 944 l 346 938 l 361 932 l 379 928 l 401 922 l 422 919 l 442 915 l 465 914 l 467 914 l 461 936 l 465 968 l 490 972 z "},"K":{"ha":1268,"x_min":78,"x_max":1131,"o":"m 164 357 l 151 339 l 150 336 l 150 299 l 150 261 l 146 225 l 144 197 l 142 174 l 140 150 l 139 129 l 138 110 l 135 92 l 135 82 l 147 96 l 156 110 l 157 121 l 160 135 l 160 149 l 160 169 l 160 192 l 160 211 l 160 240 l 160 264 l 163 294 l 164 322 l 164 353 l 164 357 m 169 422 l 150 435 l 150 408 l 150 383 l 156 389 l 168 404 l 169 411 l 169 422 m 169 469 l 169 471 l 169 500 l 169 529 l 168 556 l 164 583 l 161 610 l 157 638 l 154 664 l 149 692 l 144 724 l 143 753 l 139 783 l 139 811 l 139 838 l 139 864 l 139 885 l 139 907 l 139 924 l 139 939 l 139 965 l 140 974 l 136 972 l 118 969 l 106 969 l 121 961 l 114 950 l 114 939 l 118 924 l 119 901 l 121 879 l 122 850 l 124 824 l 128 792 l 131 760 l 133 726 l 135 696 l 139 664 l 142 633 l 144 594 l 146 556 l 147 517 l 149 478 l 150 442 l 169 469 m 494 401 l 488 417 l 478 442 l 472 461 l 461 479 l 453 496 l 442 513 l 431 529 l 418 546 l 406 560 l 393 569 l 383 576 l 369 578 l 358 578 l 343 560 l 339 556 l 350 556 l 378 540 l 392 531 l 404 519 l 415 508 l 428 496 l 438 483 l 447 471 l 456 457 l 463 444 l 476 424 l 493 403 l 494 401 m 956 776 l 972 776 l 990 778 l 1003 786 l 1021 800 l 1029 810 l 1035 821 l 1038 832 l 1038 849 l 1038 869 l 1038 882 l 1033 896 l 1021 914 l 1008 924 l 994 936 l 976 944 l 961 949 l 942 954 l 925 954 l 904 954 l 882 954 l 864 954 l 839 951 l 821 949 l 803 944 l 785 939 l 769 935 l 747 925 l 722 915 l 701 901 l 676 889 l 657 875 l 635 857 l 611 840 l 588 822 l 565 801 l 540 779 l 517 756 l 494 733 l 475 710 l 451 688 l 431 665 l 415 647 l 397 626 l 379 606 l 378 604 l 392 601 l 410 592 l 425 579 l 440 563 l 453 546 l 464 529 l 478 510 l 486 493 l 497 472 l 503 450 l 513 428 l 522 406 l 533 378 l 540 351 l 547 325 l 553 301 l 561 281 l 571 260 l 582 240 l 597 215 l 610 197 l 625 179 l 639 163 l 654 146 l 667 133 l 685 121 l 701 110 l 719 100 l 733 97 l 744 93 l 758 93 l 774 92 l 792 92 l 804 93 l 817 97 l 828 108 l 842 125 l 856 149 l 865 172 l 882 196 l 904 182 l 890 158 l 881 135 l 864 108 l 847 89 l 831 75 l 813 65 l 792 64 l 774 64 l 758 65 l 742 65 l 725 69 l 708 75 l 688 85 l 668 99 l 650 111 l 635 126 l 617 143 l 603 163 l 588 181 l 575 201 l 557 226 l 546 249 l 536 269 l 528 293 l 522 311 l 519 310 l 507 333 l 494 351 l 489 364 l 479 375 l 471 386 l 454 407 l 440 431 l 431 443 l 425 454 l 415 467 l 406 476 l 396 489 l 385 500 l 375 508 l 364 515 l 342 528 l 332 528 l 317 528 l 304 511 l 283 490 l 267 471 l 247 447 l 225 425 l 206 401 l 196 392 l 194 379 l 192 353 l 192 322 l 190 292 l 188 264 l 188 240 l 188 211 l 188 192 l 188 169 l 188 149 l 188 132 l 185 115 l 181 99 l 169 79 l 154 63 l 135 44 l 117 36 l 101 28 l 83 25 l 78 53 l 93 56 l 106 61 l 104 63 l 107 78 l 107 94 l 110 113 l 111 132 l 113 153 l 114 176 l 117 200 l 118 228 l 122 264 l 122 299 l 122 328 l 118 331 l 122 342 l 122 374 l 122 408 l 122 440 l 121 478 l 119 517 l 118 556 l 117 592 l 114 631 l 111 661 l 107 693 l 106 724 l 103 757 l 100 789 l 96 821 l 94 850 l 93 876 l 92 899 l 90 918 l 86 936 l 86 956 l 93 968 l 88 967 l 82 994 l 100 997 l 115 997 l 139 1000 l 163 990 l 167 965 l 167 939 l 167 924 l 167 907 l 167 885 l 167 864 l 167 838 l 167 811 l 167 786 l 171 756 l 172 726 l 176 697 l 182 667 l 185 640 l 189 613 l 192 586 l 196 558 l 197 529 l 197 515 l 207 533 l 226 561 l 246 592 l 267 618 l 289 646 l 311 669 l 331 696 l 354 722 l 376 747 l 401 771 l 424 793 l 446 815 l 469 833 l 492 856 l 518 876 l 538 894 l 557 910 l 579 925 l 603 940 l 622 951 l 650 971 l 672 982 l 697 994 l 721 1004 l 742 1011 l 765 1018 l 789 1024 l 815 1031 l 840 1032 l 863 1032 l 885 1032 l 907 1032 l 933 1031 l 956 1026 l 978 1025 l 999 1021 l 1018 1017 l 1035 1010 l 1051 1004 l 1068 994 l 1082 985 l 1106 964 l 1124 944 l 1131 918 l 1129 890 l 1125 865 l 1115 838 l 1108 822 l 1097 808 l 1090 796 l 1082 783 l 1072 771 l 1061 760 l 1046 747 l 1019 738 l 1000 738 l 972 740 l 949 747 l 924 765 l 940 788 l 956 776 m 296 575 l 293 603 l 319 606 l 336 606 l 346 606 l 357 622 l 375 646 l 396 667 l 411 685 l 432 707 l 456 729 l 475 753 l 497 775 l 521 799 l 546 821 l 571 844 l 594 863 l 618 879 l 640 897 l 663 914 l 688 926 l 711 940 l 736 950 l 758 960 l 776 967 l 797 972 l 815 976 l 836 979 l 861 982 l 882 982 l 904 982 l 925 982 l 944 982 l 969 976 l 988 969 l 1008 961 l 1028 946 l 1040 933 l 1058 907 l 1065 888 l 1065 869 l 1065 849 l 1065 829 l 1060 810 l 1051 793 l 1040 781 l 1026 769 l 1032 772 l 1042 779 l 1050 790 l 1060 800 l 1068 810 l 1075 822 l 1083 836 l 1090 849 l 1097 871 l 1101 893 l 1103 915 l 1099 931 l 1086 944 l 1065 963 l 1054 972 l 1040 979 l 1026 985 l 1010 989 l 993 993 l 975 997 l 953 999 l 931 1003 l 907 1004 l 885 1004 l 863 1004 l 840 1004 l 821 1003 l 794 996 l 774 990 l 750 983 l 729 979 l 708 969 l 686 957 l 664 946 l 636 929 l 617 915 l 593 903 l 574 888 l 554 872 l 535 854 l 511 836 l 489 814 l 465 793 l 443 774 l 421 751 l 396 728 l 374 703 l 353 679 l 333 653 l 311 626 l 289 601 l 268 575 l 249 547 l 232 519 l 210 479 l 197 461 l 197 439 l 197 435 l 206 444 l 228 467 l 244 488 l 264 510 l 282 531 l 292 540 l 289 543 l 299 549 l 300 551 l 321 576 l 322 578 l 296 575 z "},"L":{"ha":969,"x_min":-54,"x_max":831,"o":"m 96 119 l 97 124 l 103 139 l 107 151 l 110 167 l 114 185 l 118 201 l 121 221 l 124 240 l 126 260 l 128 281 l 129 301 l 129 321 l 131 344 l 133 364 l 133 382 l 135 407 l 136 428 l 139 449 l 139 471 l 140 493 l 144 514 l 144 533 l 146 556 l 149 578 l 151 599 l 154 619 l 160 643 l 164 665 l 165 692 l 167 711 l 167 735 l 167 754 l 167 765 l 151 763 l 138 764 l 138 753 l 138 736 l 138 721 l 138 706 l 138 692 l 138 678 l 138 663 l 138 647 l 138 632 l 136 613 l 132 596 l 129 579 l 125 565 l 122 550 l 122 536 l 121 515 l 119 496 l 119 475 l 119 458 l 118 438 l 118 422 l 117 406 l 115 390 l 113 376 l 113 363 l 107 336 l 106 313 l 103 299 l 101 272 l 100 253 l 100 229 l 97 207 l 96 188 l 93 167 l 90 150 l 88 135 l 86 119 l 90 119 l 96 119 m 142 90 l 146 89 l 158 76 l 172 65 l 183 54 l 203 38 l 215 29 l 228 22 l 242 15 l 258 7 l 274 -1 l 292 -8 l 307 -14 l 324 -18 l 344 -22 l 360 -25 l 381 -29 l 401 -31 l 419 -32 l 438 -33 l 458 -35 l 475 -35 l 496 -35 l 517 -35 l 536 -35 l 556 -35 l 574 -33 l 589 -31 l 603 -28 l 618 -24 l 644 -15 l 657 -12 l 679 -1 l 699 8 l 718 21 l 738 33 l 750 44 l 764 58 l 776 69 l 785 82 l 793 92 l 799 103 l 803 117 l 803 129 l 789 119 l 743 86 l 704 57 l 672 42 l 644 29 l 608 17 l 581 11 l 542 10 l 511 10 l 479 11 l 447 11 l 418 17 l 392 19 l 367 25 l 342 32 l 317 42 l 297 50 l 274 57 l 253 64 l 232 69 l 210 75 l 185 81 l 167 86 l 150 90 l 142 90 m 74 75 l 61 72 l 47 68 l 38 63 l 38 54 l 31 56 l 31 49 l 31 42 l 35 44 l 49 49 l 60 57 l 68 64 l 74 75 m 135 797 l 142 789 l 149 790 l 161 793 l 167 794 l 167 814 l 165 828 l 164 849 l 164 861 l 160 874 l 153 889 l 146 903 l 143 911 l 138 913 l 133 911 l 136 894 l 135 863 l 135 839 l 135 825 l 135 811 l 135 797 m 11 808 l -3 783 l -19 793 l -36 814 l -44 835 l -51 863 l -54 886 l -54 910 l -54 938 l -36 968 l -6 1001 l 26 1025 l 60 1040 l 83 1047 l 107 1051 l 128 1051 l 149 1051 l 172 1049 l 192 1038 l 207 1022 l 219 1007 l 231 990 l 239 976 l 247 961 l 256 943 l 261 926 l 263 910 l 264 892 l 264 871 l 263 853 l 253 829 l 243 815 l 228 800 l 217 788 l 203 779 l 194 776 l 194 775 l 194 754 l 194 735 l 194 711 l 193 689 l 192 663 l 188 638 l 182 614 l 179 596 l 176 575 l 174 553 l 172 533 l 172 511 l 168 490 l 167 471 l 167 446 l 164 425 l 163 404 l 161 382 l 161 361 l 158 342 l 157 321 l 157 301 l 156 278 l 154 257 l 151 238 l 149 218 l 146 196 l 142 179 l 138 161 l 135 143 l 128 128 l 125 119 l 131 119 l 153 118 l 175 114 l 193 108 l 215 103 l 238 97 l 261 92 l 282 82 l 306 75 l 328 67 l 350 60 l 372 53 l 397 47 l 424 44 l 450 39 l 479 39 l 511 38 l 542 38 l 578 39 l 600 44 l 633 54 l 661 67 l 690 82 l 726 108 l 772 142 l 814 171 l 831 149 l 826 146 l 831 146 l 831 129 l 831 114 l 824 92 l 815 78 l 807 65 l 796 50 l 783 39 l 769 25 l 754 11 l 732 -1 l 713 -17 l 690 -26 l 668 -37 l 653 -43 l 626 -51 l 608 -56 l 594 -58 l 576 -61 l 556 -62 l 536 -62 l 517 -62 l 496 -62 l 475 -62 l 458 -62 l 435 -61 l 417 -60 l 399 -58 l 378 -57 l 354 -53 l 339 -50 l 318 -46 l 299 -39 l 283 -33 l 263 -26 l 244 -18 l 231 -10 l 214 -3 l 201 7 l 186 15 l 164 35 l 153 46 l 139 57 l 129 67 l 110 76 l 107 76 l 106 74 l 90 47 l 76 35 l 60 24 l 38 17 l 14 19 l 3 43 l 3 64 l 13 93 l 38 115 l 56 119 l 57 119 l 58 119 l 60 138 l 63 156 l 65 172 l 68 190 l 69 210 l 72 232 l 72 253 l 74 275 l 75 301 l 78 315 l 79 339 l 85 365 l 85 379 l 88 393 l 89 408 l 90 422 l 90 438 l 92 458 l 92 475 l 92 496 l 93 518 l 94 536 l 94 553 l 97 571 l 101 585 l 104 601 l 108 618 l 110 632 l 110 647 l 110 663 l 110 678 l 110 692 l 110 706 l 110 721 l 110 736 l 110 753 l 110 767 l 108 781 l 108 788 l 101 797 l 93 813 l 86 833 l 85 864 l 85 881 l 89 910 l 114 933 l 135 940 l 163 933 l 171 914 l 178 900 l 185 885 l 192 867 l 192 849 l 193 831 l 194 814 l 194 807 l 200 810 l 208 819 l 221 832 l 228 843 l 235 858 l 236 871 l 236 892 l 235 907 l 233 921 l 231 932 l 222 947 l 214 963 l 206 976 l 197 990 l 188 1003 l 175 1015 l 164 1021 l 146 1024 l 128 1024 l 110 1024 l 89 1019 l 68 1015 l 40 1000 l 14 982 l -14 951 l -26 929 l -26 910 l -26 889 l -24 868 l -17 843 l -11 828 l 0 815 l 11 808 z "},"M":{"ha":1144,"x_min":82,"x_max":1007,"o":"m 874 708 l 876 713 l 882 732 l 888 754 l 893 775 l 899 793 l 903 813 l 907 831 l 908 846 l 911 863 l 914 886 l 915 907 l 917 929 l 917 947 l 917 961 l 915 972 l 907 975 l 893 975 l 885 974 l 876 951 l 872 936 l 867 910 l 863 894 l 863 879 l 863 864 l 863 844 l 863 829 l 863 808 l 863 792 l 867 772 l 867 757 l 871 738 l 872 719 l 874 708 m 917 321 l 915 314 l 915 296 l 914 276 l 913 263 l 911 243 l 911 226 l 910 208 l 910 190 l 910 175 l 908 160 l 908 144 l 907 124 l 906 99 l 906 83 l 906 57 l 906 31 l 906 15 l 911 8 l 919 4 l 932 4 l 950 4 l 965 7 l 976 8 l 982 7 l 978 14 l 976 28 l 972 43 l 967 64 l 963 82 l 958 101 l 953 122 l 949 142 l 944 165 l 940 188 l 936 213 l 931 239 l 926 265 l 924 281 l 921 296 l 918 310 l 917 321 m 114 42 l 114 39 l 113 39 l 110 31 l 107 28 l 117 29 l 133 29 l 143 33 l 149 46 l 149 61 l 149 86 l 149 101 l 150 118 l 150 135 l 150 154 l 151 171 l 151 192 l 151 211 l 151 229 l 151 250 l 151 267 l 151 285 l 151 306 l 151 326 l 151 346 l 151 363 l 150 351 l 147 332 l 143 304 l 139 283 l 138 263 l 136 242 l 135 222 l 132 203 l 129 186 l 126 167 l 122 150 l 118 132 l 117 118 l 115 103 l 114 89 l 113 68 l 114 47 l 115 46 l 114 42 m 233 882 l 243 867 l 254 850 l 265 833 l 278 815 l 290 796 l 301 776 l 313 760 l 324 743 l 333 726 l 343 710 l 353 693 l 364 676 l 374 661 l 382 643 l 389 631 l 397 615 l 404 601 l 411 589 l 422 569 l 435 549 l 449 529 l 458 508 l 471 493 l 482 475 l 493 457 l 500 438 l 508 424 l 517 408 l 531 394 l 539 381 l 524 372 l 531 372 l 553 372 l 563 375 l 583 388 l 597 396 l 613 406 l 626 414 l 640 421 l 651 429 l 665 439 l 675 449 l 690 463 l 706 474 l 717 485 l 733 500 l 746 514 l 758 529 l 771 544 l 786 561 l 800 576 l 810 590 l 822 608 l 835 628 l 844 646 l 853 660 l 853 661 l 850 681 l 847 697 l 844 717 l 843 735 l 839 754 l 839 769 l 835 789 l 835 808 l 835 829 l 835 844 l 835 864 l 835 879 l 835 897 l 839 915 l 844 944 l 851 963 l 865 993 l 888 1003 l 913 1003 l 938 989 l 944 964 l 944 947 l 944 929 l 943 904 l 942 883 l 939 860 l 936 843 l 935 825 l 931 807 l 926 788 l 921 767 l 915 746 l 910 724 l 901 704 l 894 685 l 888 669 l 882 657 l 885 646 l 886 626 l 890 608 l 894 588 l 896 569 l 897 563 l 911 571 l 919 554 l 926 528 l 926 506 l 926 490 l 926 472 l 926 457 l 926 442 l 926 426 l 926 418 l 931 400 l 933 381 l 938 364 l 940 346 l 943 331 l 946 315 l 949 301 l 951 286 l 954 271 l 958 244 l 964 218 l 968 193 l 972 171 l 976 147 l 981 128 l 986 107 l 990 88 l 994 69 l 1000 51 l 1004 33 l 1006 17 l 1007 -4 l 985 -19 l 968 -21 l 953 -24 l 932 -24 l 911 -24 l 892 -11 l 881 7 l 878 31 l 878 57 l 878 83 l 878 99 l 879 126 l 881 144 l 881 160 l 882 175 l 882 190 l 882 208 l 883 226 l 883 243 l 885 265 l 886 279 l 888 296 l 888 317 l 890 336 l 893 350 l 893 364 l 894 382 l 899 396 l 899 411 l 899 414 l 893 428 l 888 447 l 883 465 l 882 485 l 878 504 l 875 524 l 871 544 l 868 567 l 867 585 l 863 603 l 860 617 l 857 614 l 844 594 l 832 574 l 822 560 l 808 542 l 793 525 l 781 510 l 765 494 l 753 481 l 736 465 l 722 451 l 707 440 l 694 429 l 682 417 l 668 407 l 654 399 l 640 389 l 626 381 l 611 371 l 597 363 l 574 350 l 556 344 l 531 344 l 506 344 l 483 349 l 461 356 l 442 365 l 421 379 l 407 396 l 397 408 l 386 424 l 372 446 l 363 468 l 356 482 l 344 507 l 339 521 l 325 544 l 318 558 l 310 572 l 303 588 l 296 601 l 289 618 l 281 633 l 272 647 l 261 667 l 253 683 l 244 699 l 236 715 l 228 731 l 219 744 l 217 749 l 215 731 l 214 714 l 211 697 l 208 682 l 207 664 l 204 649 l 203 635 l 201 619 l 199 604 l 197 586 l 192 568 l 189 551 l 186 533 l 185 518 l 182 499 l 182 482 l 182 460 l 181 443 l 179 425 l 179 406 l 179 385 l 179 363 l 179 346 l 179 326 l 179 306 l 179 285 l 179 267 l 179 250 l 179 229 l 179 211 l 179 192 l 179 171 l 178 154 l 178 135 l 178 118 l 176 101 l 176 86 l 176 61 l 176 40 l 163 14 l 139 1 l 114 1 l 85 8 l 82 36 l 86 46 l 85 68 l 86 92 l 88 106 l 89 121 l 90 138 l 94 156 l 99 172 l 101 192 l 104 208 l 107 225 l 108 244 l 110 265 l 111 286 l 115 310 l 119 335 l 122 354 l 125 376 l 131 401 l 135 425 l 142 449 l 144 474 l 149 500 l 153 521 l 156 549 l 161 572 l 164 593 l 169 619 l 174 644 l 176 668 l 178 690 l 181 717 l 182 736 l 186 764 l 188 789 l 188 797 l 181 811 l 171 826 l 161 846 l 153 863 l 146 878 l 136 900 l 131 922 l 131 943 l 131 961 l 131 985 l 133 999 l 135 1019 l 142 1040 l 168 1056 l 190 1038 l 203 1022 l 211 1004 l 218 979 l 218 957 l 218 933 l 218 913 l 218 903 l 219 901 l 231 888 l 233 883 l 233 882 m 225 844 l 224 825 l 222 804 l 221 794 l 222 792 l 232 774 l 242 761 l 253 744 l 261 729 l 269 713 l 278 697 l 286 681 l 297 661 l 306 647 l 314 629 l 321 613 l 328 599 l 335 586 l 343 572 l 350 558 l 364 532 l 369 518 l 381 493 l 388 479 l 397 460 l 408 440 l 419 425 l 429 413 l 440 401 l 456 390 l 472 381 l 489 376 l 508 372 l 510 372 l 511 372 l 508 378 l 494 392 l 483 410 l 475 426 l 468 446 l 460 461 l 449 476 l 436 494 l 424 515 l 413 535 l 400 556 l 386 575 l 379 588 l 372 601 l 364 617 l 357 632 l 349 647 l 342 663 l 331 676 l 318 696 l 308 713 l 299 729 l 290 746 l 279 763 l 265 782 l 256 801 l 243 817 l 232 836 l 225 844 m 169 914 l 189 933 l 190 932 l 190 933 l 190 957 l 190 976 l 186 996 l 181 1008 l 171 1018 l 165 1028 l 164 1024 l 163 1014 l 161 996 l 158 982 l 158 961 l 158 943 l 158 925 l 161 908 l 171 889 l 178 874 l 186 860 l 190 850 l 190 864 l 190 889 l 190 893 l 188 897 l 169 914 z "},"N":{"ha":1167,"x_min":72,"x_max":1029,"o":"m 744 742 l 743 735 l 738 708 l 735 685 l 735 671 l 732 656 l 731 642 l 731 626 l 731 611 l 729 596 l 729 571 l 731 549 l 732 525 l 735 501 l 736 488 l 739 465 l 742 442 l 744 418 l 744 435 l 744 463 l 744 493 l 744 521 l 744 551 l 744 575 l 744 606 l 744 635 l 744 664 l 744 688 l 744 717 l 744 742 m 100 -18 l 72 -10 l 76 3 l 78 19 l 79 33 l 82 50 l 85 68 l 90 92 l 93 118 l 96 132 l 100 150 l 101 164 l 103 181 l 106 196 l 107 211 l 110 231 l 111 249 l 114 268 l 117 288 l 122 307 l 125 328 l 129 346 l 132 364 l 132 375 l 132 396 l 132 417 l 132 435 l 132 456 l 132 474 l 132 496 l 132 517 l 132 538 l 132 558 l 131 578 l 129 597 l 129 615 l 128 636 l 128 650 l 128 668 l 128 688 l 128 704 l 128 719 l 128 738 l 128 751 l 128 765 l 128 781 l 129 796 l 129 813 l 132 826 l 133 840 l 139 871 l 143 889 l 144 903 l 146 918 l 147 928 l 147 933 l 146 951 l 149 951 l 149 954 l 151 972 l 165 994 l 196 993 l 200 967 l 199 949 l 199 935 l 199 918 l 199 913 l 206 900 l 215 885 l 225 868 l 236 847 l 246 832 l 260 813 l 269 790 l 281 771 l 292 750 l 306 728 l 317 707 l 332 686 l 344 663 l 357 643 l 368 622 l 379 600 l 390 579 l 401 557 l 415 536 l 428 517 l 439 493 l 451 475 l 467 451 l 481 431 l 492 413 l 503 394 l 511 375 l 525 360 l 536 339 l 550 321 l 557 306 l 568 289 l 579 272 l 589 261 l 599 246 l 608 231 l 617 217 l 628 203 l 638 192 l 649 178 l 658 167 l 668 151 l 675 140 l 685 128 l 697 113 l 717 90 l 726 78 l 735 68 l 736 67 l 735 75 l 735 100 l 735 125 l 735 146 l 735 169 l 735 183 l 735 204 l 733 226 l 732 251 l 729 272 l 729 299 l 726 319 l 725 342 l 724 367 l 719 392 l 717 415 l 714 439 l 711 463 l 708 485 l 707 499 l 704 522 l 703 546 l 701 571 l 701 596 l 703 611 l 703 626 l 703 642 l 704 658 l 707 674 l 707 688 l 710 714 l 715 740 l 721 764 l 725 776 l 729 797 l 736 818 l 744 840 l 751 864 l 760 882 l 767 901 l 769 904 l 772 914 l 788 935 l 803 953 l 808 957 l 811 961 l 825 976 l 840 989 l 863 999 l 882 999 l 901 999 l 924 997 l 938 997 l 960 997 l 981 993 l 1000 983 l 1018 967 l 1029 949 l 1029 926 l 1025 904 l 1021 893 l 1021 875 l 1013 856 l 999 842 l 981 832 l 961 826 l 940 825 l 915 840 l 907 860 l 929 876 l 943 865 l 953 863 l 964 861 l 971 868 l 982 879 l 993 896 l 993 911 l 992 925 l 988 936 l 979 949 l 967 958 l 951 961 l 932 961 l 910 960 l 896 958 l 883 956 l 861 950 l 847 947 l 833 940 l 828 938 l 822 929 l 813 915 l 800 900 l 794 892 l 792 886 l 786 871 l 782 853 l 778 836 l 778 817 l 772 793 l 772 768 l 772 743 l 772 717 l 772 688 l 772 664 l 772 635 l 772 606 l 772 575 l 772 551 l 772 521 l 772 493 l 772 463 l 772 435 l 772 406 l 775 379 l 776 347 l 778 315 l 778 285 l 779 257 l 781 231 l 782 204 l 782 175 l 782 154 l 783 128 l 785 108 l 786 88 l 786 68 l 788 53 l 788 29 l 785 11 l 758 4 l 749 15 l 733 31 l 715 49 l 704 61 l 694 74 l 675 96 l 663 111 l 653 124 l 646 138 l 636 150 l 626 161 l 615 175 l 606 186 l 594 200 l 586 217 l 576 229 l 567 244 l 557 256 l 546 272 l 532 292 l 525 307 l 514 325 l 503 343 l 489 361 l 478 381 l 467 399 l 456 417 l 444 438 l 429 458 l 414 479 l 403 503 l 393 522 l 376 543 l 365 565 l 354 586 l 343 608 l 332 629 l 319 649 l 307 672 l 294 693 l 281 714 l 267 736 l 256 757 l 244 779 l 235 799 l 224 815 l 211 833 l 200 854 l 199 857 l 199 849 l 197 821 l 197 806 l 196 790 l 194 775 l 193 758 l 192 743 l 192 728 l 192 710 l 190 686 l 189 669 l 188 650 l 188 631 l 185 610 l 182 590 l 182 571 l 178 551 l 176 531 l 175 525 l 175 519 l 175 485 l 175 451 l 175 419 l 175 388 l 175 358 l 175 324 l 175 289 l 174 258 l 174 228 l 172 199 l 172 174 l 171 149 l 167 122 l 161 99 l 160 74 l 160 60 l 160 54 l 160 39 l 160 36 l 160 14 l 132 14 l 132 36 l 132 39 l 132 54 l 132 60 l 132 74 l 132 85 l 132 100 l 132 115 l 132 131 l 132 147 l 132 164 l 132 181 l 132 186 l 131 178 l 129 161 l 128 144 l 124 126 l 121 113 l 118 86 l 113 63 l 110 44 l 107 31 l 106 17 l 104 -3 l 100 -18 z "},"O":{"ha":1100,"x_min":44,"x_max":961,"o":"m 78 394 l 76 410 l 75 431 l 72 456 l 72 447 l 72 428 l 74 411 l 78 394 m 679 926 l 671 928 l 656 928 l 643 926 l 636 921 l 629 913 l 629 901 l 629 888 l 638 876 l 647 867 l 663 856 l 675 846 l 689 842 l 706 838 l 719 836 l 733 835 l 747 835 l 757 836 l 772 844 l 776 849 l 768 863 l 761 874 l 751 883 l 740 892 l 733 899 l 726 901 l 701 915 l 681 925 l 679 926 m 783 819 l 786 819 l 796 821 l 793 826 l 786 822 l 783 819 m 868 813 l 875 804 l 889 782 l 903 761 l 915 738 l 925 722 l 932 701 l 938 681 l 946 660 l 951 635 l 957 608 l 960 581 l 961 564 l 961 549 l 961 532 l 961 517 l 961 500 l 961 483 l 961 467 l 961 446 l 957 426 l 956 410 l 951 392 l 946 374 l 942 357 l 936 340 l 931 322 l 925 306 l 918 289 l 910 272 l 903 257 l 894 242 l 886 226 l 878 213 l 867 197 l 857 181 l 847 168 l 835 153 l 822 140 l 814 129 l 801 115 l 790 106 l 779 94 l 768 82 l 756 72 l 742 63 l 728 53 l 715 42 l 701 32 l 686 24 l 672 17 l 644 3 l 619 -7 l 592 -18 l 574 -22 l 551 -28 l 536 -29 l 521 -31 l 506 -32 l 490 -33 l 474 -33 l 456 -33 l 440 -33 l 425 -33 l 404 -32 l 374 -22 l 353 -12 l 329 -3 l 322 1 l 321 1 l 304 10 l 285 18 l 268 31 l 249 44 l 232 58 l 208 75 l 190 96 l 176 115 l 167 128 l 158 140 l 149 156 l 142 167 l 131 182 l 124 196 l 117 208 l 106 228 l 100 243 l 92 260 l 82 282 l 75 300 l 69 324 l 65 343 l 58 364 l 50 386 l 46 408 l 44 428 l 44 447 l 44 464 l 44 479 l 44 501 l 47 521 l 50 540 l 53 557 l 56 578 l 60 593 l 64 613 l 65 615 l 65 621 l 69 644 l 78 665 l 86 686 l 96 707 l 103 715 l 103 717 l 111 732 l 121 750 l 131 764 l 142 783 l 156 800 l 167 817 l 182 832 l 193 847 l 207 865 l 221 879 l 233 892 l 247 904 l 263 915 l 278 921 l 300 929 l 319 938 l 336 944 l 354 950 l 371 957 l 388 964 l 411 969 l 433 971 l 449 971 l 476 969 l 478 969 l 492 969 l 493 969 l 496 969 l 521 969 l 521 967 l 529 963 l 549 957 l 571 953 l 565 925 l 540 929 l 521 938 l 508 942 l 496 942 l 494 942 l 493 942 l 492 942 l 478 942 l 476 942 l 460 942 l 443 940 l 431 939 l 417 935 l 399 929 l 385 926 l 369 919 l 358 913 l 346 906 l 328 896 l 315 886 l 300 875 l 281 865 l 263 857 l 244 843 l 225 829 l 207 810 l 188 790 l 172 771 l 157 750 l 143 729 l 136 717 l 128 704 l 126 701 l 119 689 l 113 674 l 106 656 l 101 639 l 97 622 l 93 611 l 93 596 l 93 572 l 93 547 l 94 526 l 96 503 l 97 481 l 100 458 l 103 433 l 104 413 l 107 392 l 113 369 l 118 347 l 122 328 l 131 304 l 142 279 l 149 264 l 161 232 l 168 218 l 174 204 l 185 181 l 194 169 l 204 154 l 217 132 l 224 119 l 239 100 l 257 81 l 275 67 l 294 51 l 306 42 l 325 33 l 333 28 l 343 26 l 364 25 l 385 24 l 408 24 l 431 24 l 456 24 l 475 24 l 493 28 l 515 35 l 533 39 l 556 47 l 579 57 l 603 68 l 626 81 l 639 88 l 651 94 l 665 106 l 681 115 l 696 126 l 713 140 l 725 150 l 740 164 l 750 175 l 761 188 l 772 203 l 785 219 l 793 233 l 800 247 l 810 269 l 818 283 l 825 300 l 835 322 l 844 342 l 849 357 l 856 381 l 861 401 l 867 419 l 871 439 l 875 456 l 878 472 l 881 492 l 882 510 l 882 531 l 882 550 l 882 571 l 882 590 l 881 606 l 876 624 l 872 643 l 868 661 l 863 679 l 858 697 l 850 715 l 844 731 l 836 744 l 826 764 l 818 781 l 810 794 l 789 792 l 764 792 l 749 792 l 735 792 l 721 792 l 707 792 l 689 792 l 671 792 l 643 801 l 619 819 l 608 835 l 601 849 l 594 864 l 589 894 l 588 921 l 590 944 l 607 960 l 631 965 l 651 965 l 672 961 l 689 953 l 697 951 l 715 943 l 729 935 l 744 925 l 749 921 l 765 911 l 778 903 l 789 894 l 801 886 l 813 876 l 819 883 l 833 899 l 847 915 l 856 929 l 861 943 l 863 960 l 863 976 l 861 993 l 851 1007 l 839 1021 l 856 1043 l 874 1035 l 888 1022 l 900 1011 l 913 997 l 926 982 l 935 965 l 940 949 l 944 926 l 944 910 l 944 890 l 935 871 l 924 853 l 911 839 l 896 826 l 875 815 l 868 813 m 842 801 l 839 800 l 843 794 l 851 775 l 861 758 l 869 742 l 875 726 l 883 706 l 890 688 l 896 669 l 900 649 l 904 629 l 908 611 l 910 590 l 910 571 l 910 550 l 910 531 l 910 510 l 908 489 l 906 469 l 903 450 l 899 433 l 894 414 l 889 393 l 883 372 l 876 349 l 869 331 l 860 311 l 850 289 l 843 272 l 835 256 l 825 236 l 818 219 l 807 203 l 794 186 l 783 171 l 769 156 l 760 144 l 742 128 l 729 118 l 713 104 l 697 93 l 682 83 l 668 72 l 653 63 l 640 56 l 614 43 l 590 32 l 567 22 l 542 11 l 524 7 l 499 0 l 478 -4 l 456 -4 l 431 -4 l 425 -6 l 440 -6 l 456 -6 l 474 -6 l 490 -6 l 503 -4 l 518 -3 l 533 -1 l 546 0 l 568 6 l 583 10 l 608 18 l 633 28 l 658 42 l 672 49 l 688 57 l 699 64 l 711 75 l 725 85 l 739 94 l 749 101 l 760 114 l 771 125 l 782 135 l 792 146 l 803 160 l 815 172 l 825 185 l 835 197 l 844 211 l 853 226 l 861 240 l 869 256 l 878 271 l 885 283 l 893 300 l 900 314 l 903 331 l 908 349 l 914 365 l 918 382 l 924 400 l 928 415 l 929 432 l 933 449 l 933 467 l 933 483 l 933 500 l 933 517 l 933 532 l 933 549 l 933 564 l 932 578 l 929 603 l 924 629 l 918 651 l 913 672 l 904 693 l 900 711 l 890 724 l 878 747 l 867 768 l 853 788 l 842 801 m 850 835 l 864 840 l 879 849 l 892 858 l 901 869 l 910 885 l 917 896 l 917 910 l 917 924 l 913 943 l 910 954 l 904 965 l 893 978 l 890 981 l 890 979 l 890 960 l 889 938 l 881 915 l 869 899 l 856 879 l 839 864 l 832 857 l 842 847 l 850 836 l 850 835 z "},"P":{"ha":983,"x_min":56,"x_max":846,"o":"m 129 14 l 138 14 l 149 15 l 149 22 l 149 36 l 149 51 l 149 71 l 149 85 l 149 103 l 149 119 l 150 131 l 146 113 l 142 93 l 139 78 l 136 50 l 132 28 l 129 14 m 233 403 l 240 401 l 263 396 l 278 393 l 304 390 l 332 388 l 353 388 l 367 388 l 385 388 l 403 393 l 422 396 l 442 401 l 467 407 l 488 411 l 501 417 l 515 419 l 539 428 l 553 432 l 565 439 l 579 447 l 593 454 l 610 463 l 625 469 l 639 476 l 653 486 l 669 494 l 683 503 l 696 513 l 710 522 l 722 532 l 735 544 l 749 557 l 757 567 l 765 579 l 776 589 l 783 601 l 790 615 l 799 628 l 810 647 l 814 672 l 817 696 l 818 717 l 818 740 l 814 760 l 806 778 l 804 781 l 807 756 l 808 728 l 808 703 l 799 678 l 790 658 l 779 642 l 769 629 l 758 615 l 747 606 l 738 594 l 726 583 l 715 572 l 700 558 l 685 546 l 668 531 l 656 522 l 632 508 l 610 496 l 597 488 l 581 479 l 565 472 l 550 465 l 532 458 l 515 450 l 496 443 l 479 438 l 458 432 l 440 428 l 422 419 l 401 415 l 382 413 l 364 408 l 349 408 l 335 406 l 317 403 l 300 403 l 279 403 l 264 403 l 247 403 l 233 403 m 115 457 l 117 457 l 128 450 l 129 449 l 129 472 l 129 493 l 129 514 l 129 533 l 129 553 l 119 553 l 107 549 l 97 544 l 96 540 l 90 526 l 89 511 l 89 497 l 92 485 l 100 474 l 113 460 l 115 457 m 160 549 l 157 550 l 157 533 l 157 514 l 157 493 l 157 472 l 157 447 l 157 438 l 160 436 l 160 442 l 160 463 l 160 476 l 160 492 l 160 511 l 160 526 l 160 542 l 160 549 m 188 388 l 188 372 l 186 358 l 186 343 l 185 319 l 183 301 l 182 283 l 182 268 l 182 254 l 182 238 l 179 224 l 179 210 l 179 186 l 179 160 l 178 138 l 176 119 l 176 103 l 176 85 l 176 71 l 176 51 l 176 36 l 176 19 l 168 -4 l 140 -14 l 124 -14 l 124 -6 l 100 -3 l 101 11 l 104 33 l 108 53 l 111 81 l 114 99 l 118 118 l 122 136 l 124 156 l 125 175 l 126 197 l 128 219 l 128 242 l 129 264 l 129 289 l 129 313 l 129 338 l 129 358 l 129 382 l 129 403 l 129 414 l 125 417 l 106 431 l 100 435 l 86 444 l 65 469 l 56 497 l 56 519 l 58 543 l 74 563 l 79 565 l 82 569 l 104 585 l 124 586 l 129 586 l 129 593 l 129 611 l 129 626 l 129 649 l 129 665 l 129 683 l 129 704 l 129 719 l 128 736 l 126 757 l 126 775 l 126 790 l 125 807 l 125 824 l 124 840 l 122 857 l 119 874 l 119 892 l 118 906 l 117 924 l 117 938 l 115 953 l 114 971 l 111 985 l 110 1004 l 115 1010 l 113 1017 l 133 1035 l 147 1028 l 161 1019 l 178 1015 l 197 1010 l 211 1007 l 235 1001 l 261 994 l 288 988 l 300 986 l 315 986 l 332 986 l 347 986 l 369 986 l 392 986 l 421 986 l 447 986 l 476 986 l 501 986 l 517 983 l 532 983 l 550 982 l 567 979 l 582 976 l 597 975 l 625 972 l 640 968 l 664 960 l 688 949 l 711 938 l 726 924 l 740 911 l 754 892 l 768 876 l 779 857 l 790 842 l 801 825 l 817 811 l 831 792 l 842 768 l 846 743 l 846 717 l 844 693 l 842 667 l 835 639 l 824 614 l 815 601 l 808 588 l 799 572 l 788 560 l 779 550 l 768 538 l 754 525 l 742 513 l 726 500 l 713 490 l 700 481 l 683 469 l 667 461 l 653 451 l 636 444 l 621 438 l 607 429 l 593 422 l 579 414 l 564 407 l 547 403 l 524 392 l 510 389 l 496 383 l 472 379 l 447 374 l 428 368 l 408 365 l 388 360 l 367 360 l 353 360 l 332 360 l 301 363 l 275 365 l 257 368 l 235 374 l 218 378 l 203 381 l 189 388 l 188 388 m 160 397 l 157 399 l 157 382 l 157 358 l 157 338 l 157 322 l 158 343 l 158 358 l 160 372 l 160 393 l 160 397 m 160 581 l 160 586 l 160 601 l 160 615 l 160 631 l 160 644 l 160 671 l 160 685 l 160 699 l 160 722 l 160 749 l 157 768 l 154 794 l 154 808 l 153 817 l 153 807 l 154 790 l 154 775 l 154 757 l 156 739 l 157 719 l 157 704 l 157 683 l 157 665 l 157 649 l 157 626 l 157 611 l 157 593 l 157 582 l 160 581 m 188 560 l 194 550 l 208 528 l 200 503 l 188 504 l 188 492 l 188 476 l 188 463 l 188 442 l 188 431 l 192 431 l 208 431 l 226 431 l 247 431 l 264 431 l 279 431 l 300 431 l 314 431 l 329 433 l 346 436 l 361 436 l 376 440 l 396 443 l 414 447 l 432 453 l 450 460 l 471 465 l 488 471 l 504 475 l 521 483 l 539 490 l 554 497 l 569 504 l 583 513 l 596 521 l 618 533 l 642 544 l 651 553 l 665 565 l 681 581 l 696 592 l 707 603 l 718 614 l 728 625 l 739 635 l 747 646 l 757 658 l 765 672 l 774 689 l 781 708 l 781 728 l 779 753 l 776 776 l 771 801 l 767 814 l 757 836 l 747 844 l 738 856 l 729 867 l 718 875 l 708 885 l 696 893 l 676 906 l 664 911 l 650 918 l 635 921 l 621 926 l 603 929 l 586 935 l 574 935 l 554 938 l 540 939 l 525 939 l 511 940 l 492 940 l 476 940 l 458 942 l 442 943 l 428 944 l 414 944 l 399 944 l 381 946 l 365 947 l 351 949 l 336 949 l 304 954 l 286 956 l 267 958 l 253 961 l 235 964 l 218 967 l 201 969 l 185 974 l 157 983 l 160 975 l 163 957 l 167 935 l 172 910 l 172 894 l 175 881 l 176 858 l 178 835 l 182 811 l 182 797 l 185 771 l 188 751 l 188 722 l 188 699 l 188 685 l 188 671 l 188 644 l 188 631 l 188 615 l 188 601 l 188 586 l 188 560 z "},"Q":{"ha":1236,"x_min":46,"x_max":1099,"o":"m 204 79 l 196 86 l 186 97 l 175 111 l 167 125 l 157 138 l 146 153 l 139 171 l 131 186 l 124 204 l 118 222 l 111 242 l 104 260 l 97 286 l 93 306 l 88 325 l 86 350 l 86 367 l 86 388 l 86 411 l 86 435 l 89 458 l 89 479 l 90 503 l 92 522 l 96 544 l 100 565 l 107 588 l 111 606 l 118 629 l 125 650 l 131 668 l 139 690 l 146 704 l 147 711 l 143 704 l 136 692 l 128 678 l 117 656 l 111 642 l 101 617 l 94 592 l 92 578 l 89 564 l 88 550 l 86 535 l 83 519 l 82 504 l 79 488 l 78 472 l 75 456 l 74 440 l 74 421 l 74 404 l 74 383 l 74 363 l 74 343 l 74 319 l 75 300 l 76 286 l 81 267 l 85 253 l 89 239 l 96 225 l 103 210 l 111 194 l 117 181 l 124 169 l 129 157 l 139 144 l 149 133 l 158 121 l 167 110 l 178 101 l 199 82 l 204 79 m 700 983 l 711 975 l 732 963 l 754 946 l 767 936 l 786 918 l 797 907 l 808 896 l 819 883 l 829 871 l 839 858 l 850 844 l 857 829 l 865 817 l 879 794 l 885 776 l 894 756 l 900 736 l 908 718 l 915 700 l 922 682 l 929 663 l 936 644 l 940 624 l 943 604 l 943 585 l 943 567 l 943 546 l 942 528 l 940 508 l 940 488 l 938 467 l 935 449 l 931 431 l 926 413 l 922 392 l 915 375 l 908 354 l 903 336 l 896 319 l 889 303 l 882 288 l 875 272 l 868 258 l 863 246 l 869 254 l 875 267 l 889 290 l 903 313 l 910 324 l 919 346 l 929 369 l 936 382 l 943 404 l 950 429 l 954 442 l 957 456 l 960 469 l 961 486 l 963 503 l 967 518 l 967 536 l 967 550 l 967 567 l 967 582 l 967 600 l 967 615 l 965 628 l 963 642 l 956 656 l 953 669 l 949 686 l 942 701 l 939 717 l 932 731 l 925 746 l 918 761 l 910 776 l 903 790 l 893 807 l 886 819 l 876 832 l 868 844 l 856 854 l 842 871 l 833 881 l 819 893 l 807 904 l 792 918 l 778 931 l 764 943 l 754 951 l 738 963 l 724 972 l 708 979 l 700 983 m 576 243 l 590 244 l 613 244 l 631 243 l 647 235 l 663 226 l 683 210 l 703 192 l 713 178 l 731 157 l 742 147 l 751 139 l 757 144 l 760 147 l 753 160 l 735 179 l 718 197 l 700 215 l 686 225 l 668 236 l 650 246 l 633 250 l 610 250 l 593 250 l 581 246 l 576 243 m 782 104 l 775 119 l 771 117 l 772 115 l 782 104 m 1053 39 l 1049 47 l 1047 39 l 1043 21 l 1035 -11 l 1021 -37 l 997 -49 l 975 -49 l 958 -47 l 931 -40 l 904 -29 l 878 -12 l 867 -4 l 856 4 l 851 6 l 854 -3 l 865 -24 l 872 -39 l 882 -56 l 892 -65 l 901 -74 l 915 -81 l 929 -85 l 944 -87 l 960 -90 l 972 -90 l 990 -90 l 1001 -90 l 1018 -83 l 1033 -74 l 1044 -64 l 1051 -53 l 1061 -36 l 1061 -35 l 1056 -29 l 1065 -19 l 1067 -8 l 1068 6 l 1068 8 l 1067 11 l 1063 25 l 1058 32 l 1053 39 m 1092 -29 l 1092 -31 l 1086 -47 l 1076 -67 l 1064 -83 l 1050 -96 l 1032 -108 l 1007 -118 l 990 -118 l 972 -118 l 957 -118 l 939 -115 l 924 -112 l 904 -106 l 888 -96 l 872 -85 l 860 -72 l 847 -53 l 840 -35 l 829 -14 l 821 11 l 813 33 l 810 42 l 803 46 l 792 56 l 771 75 l 753 96 l 751 97 l 749 96 l 736 85 l 724 74 l 710 61 l 696 49 l 682 39 l 668 29 l 656 19 l 642 10 l 625 3 l 610 -4 l 594 -11 l 581 -14 l 565 -19 l 546 -24 l 532 -24 l 525 -26 l 496 -32 l 479 -32 l 465 -32 l 451 -32 l 435 -32 l 410 -31 l 394 -29 l 381 -28 l 367 -25 l 351 -24 l 336 -19 l 322 -15 l 294 -7 l 281 0 l 267 7 l 251 14 l 238 24 l 225 31 l 207 40 l 194 51 l 182 60 l 158 79 l 147 90 l 136 104 l 126 117 l 117 128 l 107 143 l 99 156 l 92 169 l 86 183 l 78 199 l 71 214 l 64 228 l 57 244 l 53 261 l 49 281 l 47 297 l 46 319 l 46 343 l 46 363 l 46 383 l 46 404 l 46 421 l 46 440 l 47 458 l 50 475 l 51 490 l 54 507 l 56 522 l 58 538 l 60 553 l 61 567 l 64 583 l 67 597 l 76 625 l 86 653 l 92 667 l 103 692 l 111 706 l 118 718 l 126 732 l 140 756 l 147 768 l 157 783 l 167 796 l 178 808 l 188 821 l 197 832 l 204 847 l 214 858 l 222 869 l 242 892 l 257 910 l 271 926 l 283 943 l 297 957 l 311 971 l 326 983 l 343 997 l 361 1010 l 381 1024 l 403 1036 l 411 1039 l 411 1040 l 414 1040 l 428 1046 l 456 1046 l 482 1046 l 506 1046 l 532 1046 l 540 1044 l 557 1044 l 575 1043 l 592 1042 l 613 1040 l 629 1036 l 647 1032 l 668 1026 l 683 1019 l 700 1014 l 722 1004 l 738 994 l 751 985 l 771 974 l 783 963 l 797 950 l 811 938 l 826 924 l 839 913 l 853 900 l 864 888 l 875 874 l 888 864 l 899 849 l 908 836 l 918 821 l 928 804 l 935 788 l 943 772 l 950 757 l 957 742 l 964 725 l 969 710 l 974 694 l 981 678 l 983 664 l 988 650 l 993 633 l 994 615 l 994 600 l 994 582 l 994 567 l 994 550 l 994 536 l 994 515 l 990 497 l 989 483 l 988 467 l 985 450 l 982 436 l 978 421 l 971 396 l 961 371 l 954 358 l 944 335 l 935 313 l 928 299 l 914 276 l 900 253 l 892 240 l 883 228 l 871 208 l 853 189 l 836 174 l 814 157 l 801 147 l 794 142 l 800 131 l 811 107 l 821 86 l 831 64 l 833 57 l 846 46 l 856 36 l 869 26 l 883 18 l 894 10 l 918 -4 l 939 -15 l 964 -19 l 975 -21 l 992 -21 l 1001 -18 l 1010 -3 l 1015 26 l 1019 44 l 1022 58 l 1026 82 l 1044 78 l 1058 86 l 1068 69 l 1079 51 l 1081 47 l 1083 44 l 1093 28 l 1094 15 l 1099 1 l 1099 -18 l 1092 -29 m 418 999 l 407 974 l 397 979 l 383 974 l 360 957 l 346 943 l 329 926 l 311 908 l 293 889 l 278 874 l 267 860 l 251 844 l 239 831 l 226 814 l 217 799 l 210 785 l 201 768 l 196 753 l 186 735 l 176 717 l 171 696 l 164 679 l 158 660 l 153 642 l 146 621 l 139 597 l 135 579 l 128 557 l 124 539 l 119 519 l 118 500 l 117 479 l 117 456 l 114 432 l 114 411 l 114 388 l 114 367 l 114 350 l 115 331 l 121 311 l 125 292 l 132 268 l 136 250 l 143 231 l 149 213 l 156 197 l 164 182 l 171 167 l 179 154 l 189 142 l 197 128 l 208 117 l 218 106 l 226 94 l 236 86 l 249 76 l 261 68 l 272 58 l 283 53 l 297 46 l 326 33 l 354 22 l 381 14 l 394 13 l 413 10 l 442 7 l 461 6 l 475 4 l 492 4 l 510 4 l 526 4 l 540 8 l 554 15 l 568 22 l 581 31 l 606 43 l 619 49 l 633 56 l 649 63 l 674 75 l 688 82 l 700 90 l 710 100 l 722 111 l 731 119 l 722 128 l 711 138 l 690 161 l 683 172 l 664 188 l 646 204 l 635 210 l 622 215 l 613 217 l 590 217 l 574 215 l 572 215 l 561 204 l 544 224 l 546 231 l 546 232 l 549 254 l 567 271 l 588 278 l 610 278 l 636 278 l 658 271 l 682 261 l 703 247 l 717 238 l 738 217 l 754 199 l 775 176 l 778 171 l 788 182 l 800 197 l 810 210 l 817 222 l 825 238 l 833 251 l 843 269 l 850 283 l 857 299 l 864 314 l 871 331 l 878 347 l 883 363 l 890 383 l 894 400 l 899 418 l 903 436 l 907 454 l 910 469 l 913 490 l 913 508 l 914 531 l 915 546 l 915 567 l 915 585 l 915 601 l 913 618 l 908 636 l 904 654 l 897 671 l 890 689 l 883 707 l 875 728 l 869 744 l 860 765 l 854 783 l 843 800 l 832 815 l 825 831 l 817 842 l 807 854 l 797 867 l 789 876 l 778 888 l 767 899 l 747 914 l 738 924 l 715 940 l 697 953 l 672 968 l 650 981 l 639 988 l 615 997 l 590 1004 l 576 1008 l 553 1014 l 538 1017 l 535 1017 l 514 1017 l 493 1017 l 471 1017 l 456 1017 l 438 1017 l 421 1014 l 414 1011 l 403 1006 l 418 999 z "},"R":{"ha":1144,"x_min":13,"x_max":1007,"o":"m 108 992 l 107 993 l 101 1010 l 97 1017 l 94 1019 l 93 1018 l 93 1011 l 103 994 l 108 992 m 919 19 l 931 22 l 943 26 l 958 33 l 968 40 l 974 51 l 979 63 l 979 79 l 979 99 l 976 115 l 969 131 l 960 146 l 949 160 l 942 164 l 943 153 l 943 131 l 942 108 l 940 90 l 940 68 l 933 49 l 925 28 l 919 19 m 581 122 l 590 110 l 606 88 l 622 67 l 636 51 l 656 33 l 676 22 l 701 13 l 714 7 l 728 4 l 749 3 l 732 8 l 707 19 l 693 29 l 678 39 l 664 49 l 650 58 l 638 69 l 622 82 l 610 94 l 597 106 l 581 122 m 403 381 l 400 385 l 390 400 l 383 399 l 365 394 l 349 392 l 328 389 l 308 386 l 286 383 l 267 381 l 243 381 l 231 379 l 240 378 l 253 376 l 272 374 l 300 372 l 314 372 l 328 371 l 342 371 l 357 371 l 369 372 l 382 374 l 403 381 m 111 436 l 117 433 l 135 424 l 139 422 l 139 442 l 139 463 l 140 483 l 140 503 l 140 522 l 140 542 l 140 561 l 140 579 l 140 593 l 129 592 l 117 585 l 106 575 l 92 563 l 81 547 l 74 538 l 74 532 l 74 518 l 76 493 l 81 481 l 92 457 l 108 438 l 111 436 m 196 407 l 203 407 l 222 407 l 243 408 l 264 408 l 283 411 l 306 414 l 325 417 l 343 419 l 360 422 l 376 425 l 372 432 l 360 456 l 349 478 l 342 489 l 332 501 l 324 514 l 315 526 l 308 538 l 306 539 l 296 553 l 278 565 l 258 579 l 242 589 l 225 596 l 221 597 l 200 597 l 189 597 l 189 592 l 192 569 l 192 547 l 193 528 l 194 503 l 196 482 l 196 464 l 196 442 l 196 422 l 196 407 m 168 482 l 167 463 l 167 442 l 167 418 l 165 413 l 167 413 l 168 411 l 168 422 l 168 442 l 168 464 l 168 482 m 436 392 l 446 396 l 469 406 l 492 414 l 515 424 l 533 435 l 558 449 l 578 461 l 597 475 l 610 485 l 618 492 l 601 482 l 582 472 l 561 461 l 544 454 l 521 444 l 501 435 l 482 429 l 460 419 l 442 413 l 425 408 l 432 399 l 436 392 m 188 632 l 199 631 l 214 628 l 229 625 l 236 621 l 246 618 l 264 611 l 278 601 l 290 593 l 314 576 l 331 553 l 343 540 l 357 519 l 365 507 l 379 485 l 392 460 l 406 438 l 410 433 l 415 435 l 433 440 l 451 444 l 474 454 l 490 460 l 510 469 l 533 479 l 550 486 l 568 497 l 588 507 l 604 517 l 622 526 l 639 536 l 653 547 l 665 557 l 679 568 l 694 583 l 707 596 l 715 607 l 726 619 l 738 633 l 747 644 l 758 668 l 765 682 l 769 694 l 775 718 l 775 735 l 775 750 l 774 763 l 771 786 l 765 811 l 760 833 l 747 850 l 743 854 l 732 865 l 721 874 l 708 885 l 699 893 l 683 900 l 665 910 l 661 913 l 654 915 l 640 922 l 625 925 l 617 928 l 599 929 l 579 933 l 561 935 l 543 938 l 522 939 l 499 940 l 490 940 l 471 940 l 456 940 l 436 940 l 418 940 l 401 940 l 383 940 l 378 940 l 360 936 l 342 932 l 319 928 l 290 924 l 269 922 l 249 919 l 225 919 l 204 919 l 183 919 l 168 919 l 168 908 l 168 885 l 168 872 l 169 867 l 172 847 l 172 829 l 175 811 l 176 794 l 178 774 l 181 756 l 182 735 l 182 715 l 183 696 l 185 674 l 186 651 l 188 632 m 197 3 l 194 -6 l 210 -6 l 222 -4 l 236 -3 l 251 0 l 268 0 l 283 0 l 286 7 l 281 7 l 267 4 l 244 4 l 231 4 l 213 4 l 197 3 m 168 371 l 163 374 l 163 356 l 161 331 l 158 308 l 157 282 l 156 260 l 156 236 l 154 213 l 153 192 l 153 171 l 151 150 l 150 131 l 150 114 l 147 97 l 147 83 l 147 69 l 147 44 l 147 25 l 147 24 l 160 25 l 172 28 l 169 43 l 169 63 l 168 83 l 168 103 l 168 125 l 168 144 l 168 165 l 168 188 l 168 210 l 168 225 l 168 240 l 168 256 l 168 271 l 168 290 l 168 307 l 168 321 l 168 339 l 168 353 l 168 371 m 449 368 l 454 357 l 463 343 l 471 326 l 478 313 l 489 294 l 496 279 l 500 275 l 515 251 l 531 232 l 539 219 l 547 207 l 563 188 l 579 167 l 589 157 l 597 146 l 617 125 l 629 114 l 642 101 l 654 92 l 667 81 l 681 71 l 694 61 l 707 51 l 721 44 l 743 33 l 765 28 l 792 21 l 804 19 l 818 19 l 833 18 l 858 18 l 871 18 l 882 21 l 893 31 l 900 42 l 908 60 l 913 74 l 913 90 l 914 111 l 915 131 l 915 153 l 914 169 l 910 179 l 903 190 l 888 197 l 900 222 l 924 213 l 940 200 l 951 192 l 968 179 l 982 163 l 994 144 l 1004 124 l 1007 101 l 1007 79 l 1007 57 l 999 38 l 988 21 l 972 8 l 954 1 l 939 -6 l 922 -8 l 907 -14 l 890 -14 l 872 -18 l 849 -21 l 829 -24 l 804 -25 l 790 -25 l 764 -25 l 749 -25 l 722 -24 l 706 -18 l 690 -12 l 665 -3 l 639 11 l 617 32 l 600 47 l 583 71 l 568 93 l 554 113 l 538 138 l 531 151 l 517 178 l 508 193 l 503 208 l 493 222 l 479 251 l 472 265 l 469 269 l 461 283 l 446 304 l 435 319 l 428 333 l 421 346 l 417 356 l 415 356 l 388 346 l 372 344 l 357 343 l 342 343 l 328 343 l 314 344 l 300 344 l 269 346 l 250 349 l 235 350 l 214 354 l 197 361 l 196 361 l 196 353 l 196 339 l 196 321 l 196 307 l 196 290 l 196 271 l 196 256 l 196 240 l 196 225 l 196 210 l 196 188 l 196 165 l 196 144 l 196 125 l 196 103 l 196 83 l 197 63 l 197 46 l 200 31 l 210 32 l 231 32 l 244 32 l 264 32 l 283 35 l 308 21 l 311 0 l 307 -24 l 283 -28 l 268 -28 l 254 -28 l 239 -31 l 225 -32 l 210 -33 l 193 -33 l 171 -33 l 144 -33 l 118 -33 l 97 -32 l 82 -31 l 57 -29 l 35 -28 l 24 -28 l 13 -28 l 13 0 l 14 0 l 15 0 l 19 19 l 39 15 l 64 15 l 78 17 l 93 18 l 111 19 l 119 19 l 119 25 l 119 44 l 119 69 l 119 83 l 119 100 l 122 117 l 122 131 l 124 153 l 125 171 l 125 192 l 126 215 l 128 236 l 128 260 l 129 285 l 131 311 l 133 333 l 135 356 l 135 378 l 135 386 l 129 390 l 115 400 l 100 411 l 90 417 l 74 428 l 63 440 l 46 463 l 40 489 l 40 518 l 46 542 l 46 554 l 47 578 l 54 597 l 67 613 l 93 628 l 124 633 l 140 633 l 140 651 l 140 668 l 140 685 l 140 700 l 140 715 l 140 729 l 140 744 l 140 760 l 140 781 l 140 794 l 140 815 l 140 839 l 140 861 l 140 869 l 139 875 l 135 893 l 131 910 l 129 924 l 110 931 l 92 944 l 78 961 l 68 988 l 65 1006 l 65 1011 l 65 1021 l 69 1049 l 97 1053 l 115 1042 l 129 1028 l 144 1003 l 154 988 l 158 972 l 172 971 l 190 968 l 204 968 l 226 968 l 247 968 l 264 968 l 286 968 l 306 968 l 325 968 l 344 968 l 364 968 l 374 968 l 379 969 l 399 972 l 419 972 l 438 972 l 458 972 l 481 971 l 501 968 l 510 968 l 526 967 l 543 967 l 565 965 l 582 964 l 600 963 l 618 957 l 621 956 l 622 956 l 649 947 q 656 946 653 947 l 672 938 l 679 935 l 696 926 l 711 917 l 714 915 l 718 913 l 735 901 l 750 886 l 763 874 l 769 867 l 779 857 l 792 835 l 801 810 l 807 781 l 807 765 l 807 751 l 807 735 l 804 718 l 801 700 l 799 686 l 793 661 l 783 635 l 772 611 l 764 597 l 744 576 l 736 564 l 728 553 l 718 540 l 707 529 l 693 518 l 683 510 l 674 499 l 660 488 l 638 471 l 626 463 l 614 453 l 592 439 l 572 426 l 547 410 l 526 399 l 503 389 l 481 381 l 457 371 l 449 368 z "},"S":{"ha":946,"x_min":71,"x_max":808,"o":"m 249 639 l 247 642 l 236 656 l 228 669 l 219 683 l 213 701 l 207 718 l 201 738 l 199 757 l 196 772 l 193 786 l 190 803 l 190 821 l 189 839 l 189 853 l 189 867 l 190 894 l 178 872 l 172 853 l 165 832 l 161 811 l 161 790 l 161 764 l 163 742 l 167 726 l 172 714 l 179 703 l 189 693 l 199 681 l 210 669 l 221 658 l 231 649 l 244 643 l 249 639 m 335 289 l 342 290 l 353 299 l 364 310 l 367 322 l 367 342 l 363 360 l 358 372 l 347 393 l 331 417 l 322 426 l 313 435 l 289 450 l 276 454 l 256 460 l 242 460 l 228 460 l 217 460 l 204 456 l 193 449 l 210 451 l 226 451 l 249 451 l 265 447 l 292 433 l 310 418 l 322 406 l 333 383 l 340 358 l 340 333 l 340 308 l 335 289 m 213 318 l 213 328 l 213 349 l 215 357 l 214 356 l 206 353 l 206 344 l 206 335 l 211 319 l 213 318 m 156 153 l 150 161 l 140 179 l 133 196 l 126 213 l 114 242 l 107 258 l 104 275 l 100 293 l 100 283 l 103 271 l 107 251 l 113 232 l 117 214 l 122 201 l 133 186 l 140 171 l 150 157 l 156 153 m 736 726 l 750 739 l 757 749 l 768 761 l 774 772 l 775 785 l 775 799 l 775 814 l 774 832 l 772 849 l 769 867 l 765 885 l 757 903 l 751 918 l 742 936 l 732 949 l 718 960 l 704 974 l 690 985 l 675 994 l 658 1006 l 668 996 l 682 979 l 700 963 l 717 939 l 726 925 l 738 906 l 749 882 l 757 854 l 757 829 l 757 801 l 754 776 l 750 757 l 743 739 l 736 726 m 585 678 l 596 703 l 607 697 l 658 697 l 675 701 l 686 707 l 697 718 l 706 728 l 711 739 l 718 750 l 722 765 l 726 782 l 729 804 l 729 829 l 729 851 l 724 871 l 713 892 l 701 911 l 694 922 l 678 943 l 663 960 l 649 976 l 632 992 l 613 1007 l 597 1015 l 582 1025 l 563 1032 l 547 1039 l 533 1042 l 518 1046 l 504 1049 l 490 1049 l 475 1049 l 457 1049 l 444 1049 l 431 1046 l 415 1043 l 399 1039 l 382 1035 l 363 1028 l 339 1017 l 324 1010 l 308 1001 l 294 994 l 281 986 l 269 979 l 267 976 l 257 964 l 249 953 l 233 931 l 226 917 l 222 903 l 218 889 l 217 867 l 217 853 l 217 839 l 218 821 l 218 806 l 221 792 l 224 778 l 226 763 l 229 743 l 235 726 l 238 710 l 244 697 l 253 683 l 258 672 l 267 661 l 276 651 l 288 644 l 300 638 l 326 625 l 339 621 l 354 617 l 383 610 l 411 599 l 435 589 l 456 582 l 476 574 l 500 564 l 521 554 l 544 546 l 568 539 l 583 535 l 600 529 l 622 518 l 649 506 l 671 493 l 685 483 l 697 474 l 708 465 l 713 463 l 724 453 l 738 442 l 749 431 l 760 417 l 769 403 l 782 379 l 792 357 l 797 342 l 803 328 l 807 313 l 808 283 l 808 268 l 808 254 l 807 228 l 800 210 l 793 194 l 785 179 l 775 165 l 764 153 l 756 140 l 743 129 l 731 117 l 713 103 l 696 89 l 694 88 l 682 78 l 667 65 l 647 53 l 628 42 l 613 33 l 597 24 l 581 17 l 564 8 l 546 3 l 531 -4 l 511 -8 l 492 -8 l 476 -8 l 461 -8 l 443 -7 l 428 -4 l 411 -3 l 396 1 l 382 1 l 364 6 l 335 11 l 317 18 l 289 29 l 275 38 l 260 44 l 244 54 l 236 63 l 218 71 l 197 85 l 179 99 l 160 108 l 146 125 l 131 138 l 115 157 l 108 172 l 97 188 l 92 206 l 85 224 l 79 246 l 75 265 l 72 281 l 71 308 l 72 340 l 81 365 l 90 376 l 90 385 l 99 407 l 117 431 l 131 442 l 144 453 l 160 464 l 176 472 l 193 481 l 211 488 l 228 488 l 242 488 l 258 488 l 285 482 l 303 475 l 329 457 l 342 446 l 353 433 l 372 407 l 383 383 l 390 368 l 394 344 l 394 319 l 389 296 l 369 276 l 353 265 l 332 260 l 313 260 l 294 260 l 275 260 l 253 267 l 244 268 l 221 278 l 206 286 l 189 303 l 178 329 l 178 347 l 183 369 l 200 381 l 222 392 l 242 392 l 261 390 l 264 364 l 249 360 l 243 354 l 240 346 l 240 328 l 240 313 l 244 303 l 257 294 l 274 292 l 289 292 l 303 296 l 311 300 l 313 311 l 313 333 l 313 356 l 308 372 l 300 389 l 290 399 l 275 411 l 257 422 l 246 424 l 226 424 l 213 424 l 201 421 l 189 417 l 175 410 l 160 401 l 147 394 l 138 385 l 122 372 l 118 367 l 118 364 l 118 344 l 121 331 l 124 314 l 126 300 l 132 281 l 135 267 l 139 253 l 151 224 l 158 207 l 165 190 l 175 175 l 185 157 l 194 144 l 206 132 l 215 118 l 225 107 l 236 96 l 250 86 l 251 85 l 253 85 l 269 75 l 289 69 l 311 63 l 335 56 l 357 49 l 375 44 l 399 44 l 419 44 l 442 44 l 463 44 l 485 44 l 500 44 l 519 47 l 538 50 l 554 56 l 571 58 l 593 68 l 614 76 l 632 85 l 651 93 l 661 101 l 678 111 l 681 113 l 692 124 l 703 135 l 713 144 l 722 158 l 732 171 l 746 193 l 753 204 l 760 226 l 763 251 l 764 264 l 764 278 l 764 292 l 764 306 l 764 319 l 757 342 l 750 363 l 739 383 l 732 393 l 722 407 l 707 426 l 693 442 l 685 446 l 661 463 l 636 478 l 622 485 l 608 493 l 594 499 l 579 504 l 565 508 l 550 514 l 536 519 l 521 524 l 504 528 l 488 535 l 458 544 l 443 549 l 431 553 l 417 556 l 400 558 l 382 561 l 364 565 l 347 571 l 328 576 l 311 583 l 294 589 l 276 594 l 261 601 l 246 608 l 231 618 l 214 626 l 201 639 l 190 650 l 179 661 l 167 674 l 157 686 l 147 703 l 142 718 l 135 736 l 133 764 l 133 790 l 133 814 l 138 838 l 144 861 l 153 883 l 165 908 l 178 929 l 194 947 l 206 958 l 217 969 l 228 981 l 240 992 l 250 1000 l 263 1014 l 288 1029 l 308 1042 l 332 1050 l 346 1056 l 368 1067 l 393 1071 l 419 1076 l 440 1078 l 456 1079 l 471 1079 l 494 1081 l 519 1081 l 543 1081 l 564 1078 l 586 1074 l 606 1065 l 621 1056 l 638 1049 l 656 1040 l 672 1029 l 689 1017 l 707 1007 l 724 993 l 738 979 l 751 968 l 764 950 l 776 929 l 782 914 l 790 893 l 797 872 l 800 851 l 801 835 l 803 814 l 803 799 l 803 782 l 799 764 l 790 747 l 779 732 l 769 719 l 751 703 l 736 693 l 719 686 l 701 678 l 683 668 l 665 663 l 663 669 l 661 669 l 601 669 l 585 678 z "},"T":{"ha":1096,"x_min":-149,"x_max":958,"o":"m 779 808 l 771 804 l 785 808 l 803 811 l 815 815 l 829 819 l 854 826 l 876 838 l 894 849 l 910 860 l 922 875 l 931 885 l 931 899 l 929 919 l 926 935 l 918 949 l 907 963 l 901 967 l 901 964 l 901 939 l 894 913 l 881 888 l 869 874 l 858 863 l 847 851 l 832 839 l 818 828 l 803 817 l 779 808 m 364 828 l 369 819 l 389 814 l 411 810 l 426 807 l 413 811 l 393 818 l 376 825 l 364 828 m 344 835 l 344 836 l 328 842 l 313 847 l 299 853 l 282 861 l 268 867 l 251 875 l 226 889 l 213 896 l 186 907 l 171 914 l 157 919 l 133 931 l 121 936 l 96 942 l 74 949 l 50 954 l 25 956 l 1 958 l -22 961 l -35 961 l -47 961 l -62 957 l -60 957 l -39 957 l -22 957 l -1 957 l 17 953 l 36 949 l 54 944 l 69 942 l 88 936 l 106 932 l 124 924 l 142 915 l 158 908 l 179 897 l 194 892 l 214 881 l 231 874 l 251 865 l 268 857 l 289 849 l 311 840 l 331 831 l 336 829 l 344 835 m 440 506 l 440 486 l 444 461 l 446 439 l 450 413 l 450 388 l 451 365 l 453 344 l 454 315 l 456 289 l 457 264 l 457 242 l 457 221 l 457 199 l 457 175 l 457 153 l 457 133 l 457 115 l 457 100 l 456 85 l 456 60 l 454 42 l 454 29 l 457 29 l 471 29 l 494 29 l 513 29 l 521 29 l 518 35 l 515 49 l 513 64 l 511 81 l 508 99 l 507 117 l 501 139 l 497 161 l 496 176 l 492 196 l 489 210 l 486 225 l 483 240 l 482 256 l 479 271 l 476 289 l 474 304 l 471 322 l 467 340 l 464 358 l 461 375 l 460 393 l 457 413 l 454 429 l 450 449 l 447 471 l 447 489 l 443 508 l 440 506 m -121 904 l -149 913 l -140 932 l -124 938 l -128 942 l -110 961 l -96 972 l -78 981 l -50 989 l -35 989 l -19 989 l 4 986 l 28 983 l 53 982 l 82 976 l 104 969 l 129 961 l 144 956 l 168 944 l 182 939 l 197 932 l 224 921 l 240 914 l 265 900 l 279 892 l 293 886 l 310 878 l 324 872 l 336 867 l 353 861 l 371 854 l 385 850 l 401 843 l 421 839 l 435 835 l 453 829 l 469 825 l 485 819 l 500 815 l 515 813 l 535 808 l 549 804 l 561 800 l 575 797 l 582 796 l 601 796 l 626 796 l 644 799 l 668 803 l 692 808 l 710 813 l 733 818 l 753 826 l 768 833 l 789 842 l 801 850 l 815 861 l 828 871 l 839 882 l 850 893 l 858 904 l 869 924 l 874 942 l 874 964 l 874 982 l 868 990 l 851 1004 l 868 1026 l 890 1011 l 908 997 l 926 982 l 940 965 l 951 946 l 957 922 l 958 899 l 956 876 l 944 858 l 929 840 l 911 826 l 890 813 l 865 801 l 838 792 l 824 788 l 808 783 l 790 781 l 776 776 l 763 775 l 744 771 l 729 771 l 715 769 l 700 768 l 679 767 l 664 767 l 649 767 l 632 767 l 617 767 l 589 767 l 581 768 l 579 768 l 557 768 l 533 769 l 511 771 l 490 771 l 468 772 l 446 775 l 435 778 l 435 775 l 435 750 l 436 736 l 438 722 l 439 707 l 443 678 l 444 663 l 449 646 l 450 625 l 454 607 l 456 589 l 460 572 l 465 549 l 468 532 l 471 514 l 475 492 l 475 474 l 478 454 l 482 435 l 485 415 l 488 396 l 489 378 l 492 364 l 494 346 l 499 328 l 501 310 l 504 294 l 507 276 l 510 258 l 511 243 l 514 231 l 517 215 l 519 201 l 524 179 l 525 164 l 529 144 l 535 122 l 536 101 l 539 83 l 540 67 l 543 54 l 546 38 l 543 13 l 515 1 l 494 1 l 471 1 l 457 1 l 443 1 l 425 -6 l 403 -4 l 386 -1 l 371 6 l 363 8 l 357 8 l 336 10 l 317 11 l 318 39 l 339 39 l 357 39 l 368 35 l 382 33 l 403 29 l 417 29 l 426 29 l 426 42 l 428 60 l 428 85 l 429 100 l 429 115 l 429 133 l 429 153 l 429 175 l 429 199 l 429 221 l 429 242 l 429 264 l 428 286 l 426 315 l 425 342 l 424 363 l 422 388 l 422 410 l 418 436 l 417 458 l 413 483 l 413 506 l 413 531 l 413 553 l 410 576 l 407 600 l 407 622 l 403 644 l 403 671 l 403 690 l 403 707 l 411 707 l 410 719 l 408 733 l 407 750 l 407 775 l 407 782 l 406 782 l 383 786 l 385 778 l 390 760 l 392 738 l 393 713 l 394 692 l 396 665 l 396 643 l 397 621 l 397 607 l 397 593 l 397 571 l 397 546 l 397 521 l 397 497 l 397 472 l 397 458 l 397 444 l 397 419 l 396 393 l 396 367 l 393 351 l 393 339 l 392 314 l 388 290 l 388 276 l 385 254 l 382 231 l 381 208 l 378 188 l 375 169 l 372 150 l 371 132 l 365 113 l 361 94 l 358 78 l 356 60 l 349 42 l 324 50 l 328 65 l 331 83 l 333 100 l 338 121 l 343 138 l 344 153 l 347 172 l 350 190 l 353 211 l 354 233 l 357 257 l 360 279 l 360 293 l 364 317 l 365 339 l 365 354 l 368 369 l 368 393 l 369 419 l 369 444 l 369 458 l 369 472 l 369 497 l 369 521 l 369 546 l 369 571 l 369 593 l 369 607 l 369 621 l 368 643 l 368 665 l 367 689 l 365 710 l 364 735 l 363 754 l 357 772 l 354 786 l 351 796 l 343 797 l 319 806 l 300 815 l 278 824 l 257 832 l 240 840 l 219 849 l 203 856 l 183 867 l 168 872 l 147 883 l 131 890 l 113 899 l 97 904 l 79 908 l 64 914 l 49 917 l 31 921 l 11 925 l -4 929 l -22 929 l -39 929 l -57 929 l -75 926 l -121 913 l -121 904 z "},"U":{"ha":1065,"x_min":79,"x_max":928,"o":"m 407 -4 l 393 6 l 376 19 l 364 29 l 349 39 l 329 54 l 317 64 l 306 75 l 294 89 l 285 100 l 268 117 l 250 136 l 242 150 l 233 161 l 214 182 l 206 196 l 192 217 l 176 242 l 169 258 l 158 283 l 149 307 l 149 289 l 149 268 l 150 251 l 156 235 l 161 213 l 165 196 l 174 179 l 181 158 l 189 146 l 199 132 l 208 118 l 218 107 l 229 94 l 240 86 l 254 75 l 268 64 l 286 51 l 299 42 l 318 32 l 333 24 l 353 14 l 372 7 l 394 0 l 407 -4 m 882 999 l 881 1001 l 867 1014 l 854 1018 l 832 1025 l 818 1025 l 800 1025 l 788 1025 l 765 1017 l 757 1008 l 739 992 l 729 981 l 715 960 l 708 947 l 697 928 l 693 910 l 699 924 l 706 939 l 715 951 l 726 965 l 740 976 l 751 986 l 774 1001 l 799 1011 l 821 1015 l 838 1015 l 861 1014 l 876 1004 l 882 999 m 828 372 l 831 363 l 829 382 l 829 399 l 828 414 l 825 428 l 824 443 l 819 458 l 815 474 l 814 488 l 808 513 l 803 528 l 797 554 l 790 568 l 779 590 l 768 615 l 760 639 l 746 658 l 736 678 l 726 696 l 711 717 l 701 736 l 693 738 l 693 718 l 696 697 l 699 681 l 704 664 l 708 647 l 713 631 l 721 615 l 726 597 l 735 582 l 740 565 l 749 551 l 757 535 l 765 519 l 776 504 l 785 486 l 790 467 l 797 451 l 806 433 l 813 417 l 822 392 l 828 372 m 747 46 l 751 49 l 768 65 l 782 83 l 790 94 l 799 107 l 804 121 l 811 135 l 817 149 l 821 164 l 814 149 l 803 124 l 792 104 l 779 86 l 767 67 l 750 49 l 747 46 m 79 940 l 79 968 l 103 968 l 142 949 l 160 929 l 171 901 l 172 883 l 175 869 l 176 851 l 176 831 l 176 814 l 176 794 l 176 775 l 176 758 l 176 736 l 174 715 l 172 696 l 168 674 l 167 654 l 164 636 l 161 615 l 160 599 l 158 582 l 157 560 l 156 540 l 154 519 l 153 496 l 151 475 l 151 456 l 153 429 l 156 415 l 157 393 l 161 369 l 167 346 l 172 321 l 183 294 l 194 269 l 201 256 l 217 231 l 228 210 l 236 199 l 256 178 l 264 167 l 272 153 l 288 136 l 304 119 l 317 106 l 325 94 l 336 86 l 346 76 l 365 61 l 381 51 l 393 42 l 410 28 l 425 18 l 442 11 l 457 4 l 469 1 l 489 -3 l 506 -7 l 521 -8 l 538 -8 l 553 -8 l 568 -8 l 593 -7 l 603 -4 l 626 1 l 646 8 l 667 18 l 683 28 l 700 39 l 714 51 l 731 68 l 744 83 l 757 100 l 767 118 l 778 138 l 789 160 l 799 182 l 804 203 l 808 218 l 811 236 l 814 256 l 814 274 l 814 293 l 814 310 l 811 329 l 806 346 l 800 364 l 794 383 l 788 406 l 781 422 l 772 440 l 765 458 l 760 475 l 751 490 l 743 506 l 732 521 l 724 538 l 715 554 l 710 571 l 701 586 l 696 604 l 688 619 l 681 639 l 676 656 l 671 675 l 668 694 l 665 715 l 665 738 l 665 757 l 665 776 l 665 793 l 665 810 l 667 825 l 664 832 l 663 850 l 663 864 l 663 889 l 665 915 l 672 939 l 683 961 l 690 974 l 707 997 l 719 1011 l 738 1028 l 751 1039 l 782 1053 l 800 1053 l 818 1053 l 835 1053 l 863 1046 l 881 1039 l 903 1018 l 919 992 l 928 964 l 928 947 l 924 921 l 906 893 l 878 883 l 858 883 l 838 892 l 825 894 l 815 908 l 810 914 l 808 933 l 808 935 l 808 957 l 836 957 l 836 938 l 838 924 l 839 922 l 844 918 l 849 915 l 854 915 l 864 915 l 871 922 l 876 928 l 875 939 l 875 954 l 874 964 l 869 974 l 860 982 l 853 989 l 838 988 l 824 988 l 807 983 l 788 976 l 768 964 l 757 954 l 746 946 l 738 935 l 731 925 l 724 913 l 718 899 l 710 885 l 708 872 l 701 857 l 697 842 l 694 828 l 694 826 l 699 814 l 703 797 l 708 785 l 718 763 l 726 750 l 736 731 l 749 710 l 761 692 l 771 672 l 785 650 l 793 626 l 804 601 l 815 579 l 822 563 l 831 536 l 836 521 l 842 493 l 843 479 l 847 467 l 851 449 l 853 431 l 856 417 l 857 399 l 857 382 l 858 365 l 861 333 l 861 317 l 863 300 l 863 281 l 863 264 l 863 246 l 863 226 l 860 207 l 857 190 l 851 174 l 849 156 l 842 140 l 836 124 l 829 110 l 824 93 l 813 78 l 804 67 l 788 46 l 768 26 l 743 10 l 719 -3 l 701 -8 l 689 -14 l 675 -19 l 658 -26 l 642 -31 l 626 -33 l 597 -35 l 588 -37 l 560 -42 l 538 -42 l 510 -42 l 483 -42 l 460 -40 l 429 -37 l 411 -33 l 386 -28 l 364 -18 l 342 -11 l 319 -1 l 304 7 l 285 19 l 269 29 l 251 42 l 238 53 l 224 64 l 210 75 l 199 88 l 186 101 l 176 115 l 167 129 l 156 147 l 149 168 l 140 185 l 133 204 l 128 226 l 122 246 l 121 268 l 121 289 l 121 310 l 121 333 l 121 357 l 121 378 l 121 399 l 121 421 l 121 438 l 122 458 l 124 478 l 124 482 l 122 497 l 122 525 l 122 553 l 122 567 l 122 581 l 122 596 l 122 611 l 122 628 l 122 646 l 122 661 l 122 679 l 143 726 l 147 725 l 149 739 l 149 758 l 149 775 l 149 794 l 149 814 l 149 831 l 149 851 l 147 867 l 144 881 l 143 896 l 138 915 l 125 926 l 97 940 l 79 940 z "}}}
